<svg xmlns="http://www.w3.org/2000/svg" viewBox="0 0 16 16"><path d="M9.235 13.334l-.735.736v-3.879a.5.5 0 0 0-1 0v3.879l-.735-.736a.5.5 0 0 0-.707.707l1.588 1.589a.495.495 0 0 0 .354.147.503.503 0 0 0 .354-.147l1.588-1.589a.5.5 0 0 0-.707-.707zM6.765 2.6l.735-.736v3.878a.5.5 0 0 0 1 0V1.864l.735.736a.498.498 0 0 0 .707 0 .5.5 0 0 0 0-.707L8.354.304a.501.501 0 0 0-.708 0L6.058 1.893a.5.5 0 0 0 .707.707zm-.49 5.367a.5.5 0 0 0-.5-.5H1.897l.736-.736a.5.5 0 0 0-.707-.707L.337 7.613a.496.496 0 0 0 0 .708L1.926 9.91a.498.498 0 0 0 .708 0 .5.5 0 0 0 0-.707l-.737-.736h3.878c.277 0 .5-.223.5-.5zm9.497-.191a.477.477 0 0 0-.109-.163l-1.589-1.589a.5.5 0 0 0-.707.707l.736.736h-3.878a.5.5 0 0 0 0 1h3.878l-.736.736a.5.5 0 0 0 .708.707l1.589-1.589a.518.518 0 0 0 .109-.163.51.51 0 0 0-.001-.382z"/></svg>