<svg xmlns="http://www.w3.org/2000/svg" viewBox="0 0 64 64"><path d="M53.319 40.925c4.419 0 7.822-3.356 8.255-7.957H45.063c.433 4.6 3.837 7.957 8.256 7.957z" fill="none"/><circle cx="32.125" cy="11.392" r="2.986" fill="none"/><path fill="none" d="M61.107 30.968l-7.786-18.23-7.76 18.23zm-42.418 0l-7.76-18.23-7.786 18.23zm-7.758 9.957c4.419 0 7.823-3.356 8.256-7.957H2.676c.432 4.6 3.836 7.957 8.255 7.957z"/><path d="M63.539 31.574l-.001-.006-9.299-21.772a.99.99 0 0 0-.195-.288c-.021-.023-.045-.04-.068-.06a.96.96 0 0 0-.217-.146c-.03-.015-.058-.03-.09-.042a.983.983 0 0 0-.349-.071H36.576c-.817-1.641-2.496-2.782-4.452-2.782-1.954 0-3.633 1.141-4.45 2.782H10.931a.975.975 0 0 0-.349.071c-.032.012-.06.027-.09.042a.995.995 0 0 0-.217.146c-.023.02-.047.038-.068.06a.97.97 0 0 0-.195.288l-9.3 21.771-.001.007a.996.996 0 0 0-.082.394c0 6.246 4.429 10.957 10.302 10.957s10.303-4.711 10.303-10.957a.975.975 0 0 0-.166-.52l-8.624-20.259h14.715c-.003.069-.021.134-.021.203a4.993 4.993 0 0 0 3.987 4.884v39.62h-7.039a1 1 0 1 0 0 2h16.078a1 1 0 1 0 0-2h-7.039v-39.62a4.993 4.993 0 0 0 3.987-4.884c0-.07-.018-.134-.021-.203h14.715l-8.624 20.259a.975.975 0 0 0-.166.52c0 6.246 4.43 10.957 10.303 10.957s10.302-4.711 10.302-10.957c0-.14-.03-.273-.082-.394zm-52.61-18.836l7.76 18.229H3.143l7.786-18.229zm.002 28.187c-4.419 0-7.822-3.356-8.255-7.957h16.511c-.433 4.6-3.837 7.957-8.256 7.957zm21.193-26.548c-1.646 0-2.986-1.339-2.986-2.985s1.34-2.985 2.986-2.985c1.647 0 2.988 1.339 2.988 2.985s-1.341 2.985-2.988 2.985zm28.983 16.591H45.561l7.76-18.229 7.786 18.229zm-7.788 9.957c-4.419 0-7.823-3.356-8.256-7.957h16.511c-.432 4.6-3.836 7.957-8.255 7.957z"/></svg>