<svg xmlns="http://www.w3.org/2000/svg" viewBox="0 0 64 64"><path d="M31.636 41.596a.998.998 0 0 1-.757-.347l-13.25-15.361a1 1 0 0 1 1.514-1.307l12.462 14.447L61.53 1.412a.999.999 0 1 1 1.564 1.245L32.418 41.219a1.003 1.003 0 0 1-.763.377h-.019z"/><path d="M56.974 63.852H6.331a5.626 5.626 0 0 1-5.62-5.62V5.562A5.318 5.318 0 0 1 6.023.25h32.879a1 1 0 1 1 0 2H6.022A3.315 3.315 0 0 0 2.71 5.562v52.67a3.624 3.624 0 0 0 3.62 3.62h50.643a3.624 3.624 0 0 0 3.62-3.62V24.393a1 1 0 1 1 2 0v33.838a5.626 5.626 0 0 1-5.619 5.621z"/></svg>