<svg xmlns="http://www.w3.org/2000/svg" viewBox="0 0 24 24"><path d="M20.966 8.869a.75.75 0 0 0-.75-.75H6.305L8.89 5.553a.75.75 0 1 0-1.057-1.064L3.957 8.336l-.001.001a.747.747 0 0 0-.162.822.758.758 0 0 0 .163.242l3.876 3.847a.745.745 0 0 0 1.06-.004.75.75 0 0 0-.004-1.061L6.305 9.619h13.911a.75.75 0 0 0 .75-.75z"/><path d="M17.703.129H6.297C2.85.129.045 2.915.045 6.34v5.712c0 3.424 2.805 6.21 6.252 6.21h4.991a.75.75 0 0 0 0-1.5H6.297c-2.62 0-4.752-2.113-4.752-4.71V6.34c0-2.598 2.132-4.711 4.752-4.711h11.406c2.62 0 4.751 2.113 4.751 4.711v5.712c0 2.597-2.131 4.71-4.751 4.71h-2.558a.749.749 0 0 0-.655.385l-3.125 5.608a.75.75 0 0 0 1.311.731l2.911-5.224h2.117c3.447 0 6.251-2.786 6.251-6.21V6.34c0-3.425-2.805-6.211-6.252-6.211z"/></svg>