<svg xmlns="http://www.w3.org/2000/svg" viewBox="0 0 24 24"><path d="M13.929 20.21l-1.242 1.241v-6.07a.688.688 0 1 0-1.375 0v6.07L10.07 20.21a.69.69 0 0 0-.973.973l2.415 2.415c.005.005.012.007.018.012a.683.683 0 0 0 .732.137.668.668 0 0 0 .206-.137c.005-.005.012-.006.018-.012l2.415-2.415a.687.687 0 1 0-.972-.973zM10.071 3.791l1.242-1.242v6.07a.688.688 0 1 0 1.375 0v-6.07l1.242 1.242a.687.687 0 1 0 .972-.973L12.486.402c-.006-.006-.014-.008-.021-.014a.672.672 0 0 0-.932.001c-.006.006-.014.007-.02.013L9.098 2.818a.69.69 0 0 0 .973.973zM9.306 12a.688.688 0 0 0-.688-.688h-6.07L3.79 10.07a.69.69 0 0 0-.973-.973L.401 11.513c-.005.005-.007.013-.012.018a.692.692 0 0 0-.136.205.68.68 0 0 0-.05.247c0 .006-.003.01-.003.016s.003.011.003.016a.675.675 0 0 0 .05.246c.032.077.08.146.136.206.005.005.007.013.012.018l2.416 2.416a.687.687 0 1 0 .972-.973l-1.242-1.242h6.07A.685.685 0 0 0 9.306 12zm14.49.016c0-.006.003-.01.003-.016s-.003-.01-.003-.016a.68.68 0 0 0-.05-.247.692.692 0 0 0-.136-.205c-.005-.006-.007-.013-.012-.019l-2.416-2.416a.687.687 0 1 0-.973.973l1.242 1.242h-6.07a.688.688 0 1 0 0 1.376h6.07l-1.242 1.242a.688.688 0 0 0 .972.973l2.416-2.416c.005-.005.007-.013.012-.018a.692.692 0 0 0 .136-.205.691.691 0 0 0 .051-.248z"/></svg>