<svg xmlns="http://www.w3.org/2000/svg" viewBox="0 0 16 16"><circle cx="2.815" cy="2.789" r="1.481" fill="none"/><path fill="none" d="M12.523 7.192h1.476l-1.476-1.547z"/><path d="M15.642 7.571a.494.494 0 0 0-.106-.209c-.004-.004-.004-.011-.008-.015L12.385 4.05l-.004-.002a.489.489 0 0 0-.286-.138c-.024-.004-.046-.014-.071-.014h-5.72a.5.5 0 0 0-.5.5v3.455a.5.5 0 0 0 1 0V4.896h4.72v2.797a.5.5 0 0 0 .5.5h2.643v6.438H6.804v-3.083a.5.5 0 0 0-1 0v3.583a.5.5 0 0 0 .5.5h8.863a.5.5 0 0 0 .5-.5V7.692c0-.02-.009-.037-.011-.057a.733.733 0 0 0-.014-.064zm-3.119-.379V5.645l1.476 1.548h-1.476z"/><path d="M9.721 9.763a.5.5 0 0 0-.5-.5h-4.49a1.419 1.419 0 0 1-1.417-1.417V5.22a2.486 2.486 0 0 0 1.981-2.431c0-1.368-1.113-2.481-2.481-2.481S.333 1.421.333 2.789c0 1.197.852 2.199 1.981 2.431v2.626a2.42 2.42 0 0 0 2.417 2.417H9.22a.5.5 0 0 0 .501-.5zM1.333 2.789c0-.817.665-1.481 1.481-1.481s1.481.665 1.481 1.481-.663 1.482-1.48 1.482-1.482-.665-1.482-1.482z"/></svg>