<svg xmlns="http://www.w3.org/2000/svg" viewBox="0 0 24 24"><path d="M11.965 17.475c3.349 0 6.074-2.691 6.074-6v-5.25c0-3.309-2.725-6-6.074-6s-6.074 2.691-6.074 6v5.25c0 3.308 2.725 6 6.074 6zM7.391 6.225c0-2.481 2.052-4.5 4.574-4.5s4.574 2.019 4.574 4.5v5.25c0 2.481-2.052 4.5-4.574 4.5s-4.574-2.019-4.574-4.5v-5.25z"/><path d="M19.852 9.072a.75.75 0 0 0-.75.75v1.944c0 3.941-3.135 7.028-7.137 7.028s-7.137-3.087-7.137-7.028V9.822a.75.75 0 0 0-1.5 0v1.944c0 4.532 3.409 8.127 7.887 8.492v2.103H8.006a.75.75 0 0 0 0 1.5h7.967a.75.75 0 0 0 0-1.5h-3.258v-2.103c4.478-.365 7.887-3.96 7.887-8.492V9.822a.75.75 0 0 0-.75-.75z"/></svg>