<svg xmlns="http://www.w3.org/2000/svg" viewBox="0 0 16 16"><path d="M3.945 8.4h3.748a.674.674 0 0 0 .673-.673V1.951a.674.674 0 0 0-.673-.673H1.917a.674.674 0 0 0-.673.673v5.776c0 .371.302.673.673.673h2.028zm.494 2.324v.781c0 .049.04.089.089.089h.729l-.818-.87zm4.004-1.522a1.652 1.652 0 0 1-.75.187h-.416l2.103 2.206h1.384L8.443 9.202zm-2.531.187H4.54l2.074 2.206h1.401zm5.649-3.928v-.899a.09.09 0 0 0-.089-.089h-.84l.929.988zm-2.207.454l2.207 2.315V6.903L9.354 4.557zm0 1.432v.38c0 .285-.079.549-.206.784l2.412 2.487V9.662L9.354 7.347z" fill="none"/><path d="M14.666 6.679h-1.08a.494.494 0 1 0 0 .988h1.08a.09.09 0 0 1 .089.089V14.7c0 .05-.04.09-.089.09H7.723a.09.09 0 0 1-.089-.09v-1.022a.494.494 0 0 0-.988 0V14.7c0 .595.483 1.078 1.078 1.078h6.943a1.08 1.08 0 0 0 1.078-1.078V7.757a1.081 1.081 0 0 0-1.079-1.078z"/><path d="M11.472 12.583c.594 0 1.078-.483 1.078-1.077V4.562a1.08 1.08 0 0 0-1.078-1.078H9.354V1.951c0-.916-.745-1.661-1.661-1.661H1.917C1.001.29.256 1.035.256 1.951v5.776c0 .916.745 1.661 1.661 1.661H3.45v2.117c0 .594.483 1.077 1.078 1.077h6.944zm-4.858-.988L4.54 9.389h1.372l2.103 2.206H6.614zm.663-2.206h.417c.271 0 .523-.071.749-.187l2.321 2.393H9.379L7.277 9.389zm1.872-.878c.127-.235.206-.499.206-.784v-.38l2.207 2.315v1.337L9.149 8.511zm2.412-.281L9.354 5.915V4.557l2.207 2.347V8.23zm0-3.668v.899l-.929-.988h.84a.09.09 0 0 1 .089.089zM1.245 7.728V1.951c0-.371.302-.673.673-.673h5.776c.371 0 .673.302.673.673v5.776a.674.674 0 0 1-.673.673H1.917a.672.672 0 0 1-.672-.672zm3.194 3.778v-.781l.818.87h-.729a.09.09 0 0 1-.089-.089z"/></svg>