<svg xmlns="http://www.w3.org/2000/svg" viewBox="0 0 16 16"><path d="M7.76.096a2.111 2.111 0 0 0-2.109 2.109c0 1.164.946 2.11 2.109 2.11 1.164 0 2.11-.946 2.11-2.11A2.111 2.111 0 0 0 7.76.096zm0 3.219a1.11 1.11 0 0 1 0-2.219c.612 0 1.11.498 1.11 1.109s-.498 1.11-1.11 1.11zm0 2.575A2.111 2.111 0 0 0 5.651 8c0 1.163.946 2.109 2.109 2.109 1.164 0 2.11-.946 2.11-2.109 0-1.164-.946-2.11-2.11-2.11zm0 3.219a1.11 1.11 0 1 1 .001-2.22 1.11 1.11 0 0 1-.001 2.22zm0 2.577c-1.163 0-2.109.946-2.109 2.109s.946 2.109 2.109 2.109c1.164 0 2.11-.946 2.11-2.109s-.946-2.109-2.11-2.109zm0 3.218c-.612 0-1.109-.498-1.109-1.109s.498-1.109 1.109-1.109 1.11.498 1.11 1.109-.498 1.109-1.11 1.109z"/></svg>