<svg xmlns="http://www.w3.org/2000/svg" viewBox="0 0 24 24"><path d="M11.824 9.048c-3.645 0-6.61 2.965-6.61 6.609s2.965 6.609 6.61 6.609 6.609-2.965 6.609-6.609-2.965-6.609-6.609-6.609zm.574 7.204v2.505a.549.549 0 1 1-1.098 0v-2.505a1.453 1.453 0 0 1 .549-2.799c.803 0 1.455.651 1.455 1.454a1.456 1.456 0 0 1-.906 1.345z" fill="none"/><path d="M11.824 7.548a8.046 8.046 0 0 0-2.91.549V4.643a2.913 2.913 0 0 1 2.909-2.91 2.913 2.913 0 0 1 2.91 2.91.75.75 0 0 0 1.5 0 4.415 4.415 0 0 0-4.41-4.41 4.414 4.414 0 0 0-4.409 4.41v4.218c-2.224 1.448-3.7 3.951-3.7 6.796 0 4.472 3.638 8.109 8.11 8.109s8.109-3.638 8.109-8.109-3.638-8.109-8.109-8.109zm0 14.719c-3.645 0-6.61-2.965-6.61-6.609s2.965-6.609 6.61-6.609 6.609 2.965 6.609 6.609-2.965 6.609-6.609 6.609z"/><path d="M11.848 13.453a1.454 1.454 0 0 0-.549 2.799v2.505a.549.549 0 1 0 1.098 0v-2.505a1.453 1.453 0 0 0-.549-2.799z"/></svg>