<svg xmlns="http://www.w3.org/2000/svg" viewBox="0 0 16 16"><path d="M13.044 5.291a4.083 4.083 0 0 0-4.035-3.457 4.102 4.102 0 0 0-3.485 1.959 4.093 4.093 0 0 0-5.212 3.93c0 2.253 1.832 4.086 4.11 4.086h.779a.5.5 0 0 0 0-1l-.801.003a3.092 3.092 0 0 1-3.088-3.088 3.091 3.091 0 0 1 4.259-2.857.501.501 0 0 0 .643-.25 3.097 3.097 0 0 1 2.794-1.782 3.083 3.083 0 0 1 3.079 2.925.5.5 0 0 0 .465.473 2.297 2.297 0 0 1 2.135 2.285 2.295 2.295 0 0 1-2.293 2.293l-1.754-.002a.5.5 0 0 0 0 1l1.754.002a3.297 3.297 0 0 0 3.293-3.293 3.3 3.3 0 0 0-2.643-3.227z"/><path d="M10.272 9.655a.5.5 0 0 0 .327-.878L8.327 6.81c-.024-.021-.052-.031-.078-.046-.022-.013-.042-.03-.066-.039a.495.495 0 0 0-.367 0c-.024.01-.043.026-.065.039-.026.015-.054.025-.078.046L5.401 8.777a.5.5 0 1 0 .654.756L7.5 8.282v6.155a.5.5 0 0 0 1 0V8.282l1.445 1.251a.496.496 0 0 0 .327.122z"/></svg>