<svg xmlns="http://www.w3.org/2000/svg" viewBox="0 0 16 16"><path d="M6.8 12.9c2 0 3.6-1.6 3.6-3.5S8.8 5.9 6.8 5.9 3.3 7.4 3.3 9.4c0 1.9 1.6 3.5 3.5 3.5zm0-6.1c1.4 0 2.6 1.1 2.6 2.5s-1.2 2.5-2.6 2.5c-1.4 0-2.6-1.1-2.6-2.5s1.2-2.5 2.6-2.5z"/><path d="M15.6 2.5L13.3.3c-.2-.2-.5-.2-.7 0l-2.3 2.2c-.2.2-.2.5 0 .7.2.2.5.2.7 0l1.4-1.4v7.4c0 3.1-2.5 5.6-5.6 5.6-3.1 0-5.6-2.5-5.6-5.6 0-1.6.8-3.2 2-4.2.2-.2.2-.5.1-.7-.2-.2-.5-.3-.7-.1C1.1 5.5.2 7.3.2 9.3c0 3.6 3 6.6 6.6 6.6 3.6 0 6.6-3 6.6-6.6V1.8l1.5 1.4c.1.1.2.1.3.1.1 0 .3-.1.4-.2.2-.1.2-.4 0-.6z"/></svg>