<svg xmlns="http://www.w3.org/2000/svg" viewBox="0 0 24 24"><path d="M11.965 17.142a.697.697 0 0 1-.697-.697V9.897a.697.697 0 1 1 1.394 0v6.547a.698.698 0 0 1-.697.698zm.493 2.453a.493.493 0 1 1-.986 0 .493.493 0 1 1 .986 0z"/><path d="M11.965 20.463a.87.87 0 0 1 0-1.736c.478 0 .868.39.868.868s-.39.868-.868.868zm0-.986a.118.118 0 0 0-.118.118c0 .131.236.131.236 0a.118.118 0 0 0-.118-.118z"/><path d="M11.964 1.641c.27 0 .539.14.679.42l9.598 19.196a.76.76 0 0 1-.679 1.099H2.366a.76.76 0 0 1-.679-1.099l9.598-19.196a.75.75 0 0 1 .679-.42m0-1.507c-.864 0-1.641.48-2.027 1.253L.338 20.583a2.251 2.251 0 0 0 .099 2.205 2.253 2.253 0 0 0 1.928 1.075h19.196c.791 0 1.512-.402 1.928-1.075a2.251 2.251 0 0 0 .099-2.205L13.991 1.387A2.253 2.253 0 0 0 11.964.134z"/></svg>