<svg xmlns="http://www.w3.org/2000/svg" viewBox="0 0 16 16"><path d="M7.921 6.032a4.411 4.411 0 0 0-4.406 4.406 4.41 4.41 0 0 0 4.406 4.405 4.41 4.41 0 0 0 4.405-4.405 4.41 4.41 0 0 0-4.405-4.406zm.411 4.737v1.8a.395.395 0 0 1-.79 0v-1.8a1.044 1.044 0 1 1 .79 0z" fill="none"/><path d="M7.921 5.032a5.37 5.37 0 0 0-1.94.366V3.096c0-1.07.87-1.94 1.939-1.94s1.939.87 1.939 1.94a.5.5 0 0 0 1 0c0-1.621-1.319-2.94-2.939-2.94s-2.939 1.319-2.939 2.94v2.812a5.403 5.403 0 0 0-2.466 4.531 5.412 5.412 0 0 0 5.406 5.405 5.412 5.412 0 0 0 5.405-5.405 5.411 5.411 0 0 0-5.405-5.407zm0 9.812a4.41 4.41 0 0 1-4.406-4.405 4.411 4.411 0 0 1 4.406-4.406 4.41 4.41 0 0 1 4.405 4.406 4.41 4.41 0 0 1-4.405 4.405z"/><path d="M7.937 8.758a1.045 1.045 0 0 0-.395 2.012v1.8a.395.395 0 0 0 .79 0v-1.8a1.044 1.044 0 0 0-.395-2.012z"/></svg>