<svg xmlns="http://www.w3.org/2000/svg" viewBox="0 0 16 16"><path d="M1.95 5.232v1.044c0 1.066 2.587 2.258 6.05 2.258s6.049-1.192 6.049-2.258V5.234c-1.21.938-3.413 1.542-6.049 1.542-2.636 0-4.841-.605-6.05-1.544z" fill="none"/><path d="M8 5.776c3.455 0 6.038-1.187 6.048-2.251v-.006l.001-.003C14.045 2.451 11.46 1.261 8 1.261c-3.462 0-6.049 1.192-6.049 2.258 0 1.065 2.587 2.257 6.049 2.257zM1.95 7.991v1.388c0 1.065 2.587 2.258 6.049 2.258s6.049-1.192 6.049-2.258V7.991C12.839 8.929 10.635 9.534 8 9.534s-4.84-.605-6.05-1.543z" fill="none"/><path d="M8 12.637c-2.636 0-4.84-.605-6.049-1.544v1.388c0 1.065 2.587 2.257 6.049 2.257s6.049-1.191 6.049-2.257v-1.388c-1.21.939-3.414 1.544-6.049 1.544z" fill="none"/><path d="M8 .261C3.989.261.963 1.657.952 3.509l-.002.01v8.962c0 1.856 3.031 3.257 7.049 3.257s7.049-1.4 7.049-3.257V3.529l.001-.01C15.05 1.662 12.019.261 8 .261zm6.049 9.118c0 1.065-2.587 2.258-6.049 2.258s-6.05-1.193-6.05-2.258V7.991C3.16 8.929 5.364 9.534 8 9.534s4.84-.605 6.049-1.544v1.389zm0-3.103c0 1.066-2.587 2.258-6.049 2.258S1.95 7.342 1.95 6.276V5.232C3.159 6.171 5.364 6.776 8 6.776c2.635 0 4.839-.604 6.048-1.543v1.043zM8 1.261c3.459 0 6.044 1.19 6.049 2.255l-.001.003v.007c-.01 1.063-2.592 2.25-6.048 2.25-3.462 0-6.049-1.192-6.049-2.257 0-1.066 2.587-2.258 6.049-2.258zm0 13.477c-3.462 0-6.049-1.191-6.049-2.257v-1.388c1.209.939 3.413 1.544 6.049 1.544s4.84-.605 6.049-1.544v1.388c0 1.066-2.587 2.257-6.049 2.257z"/></svg>