<svg xmlns="http://www.w3.org/2000/svg" viewBox="0 0 16 16"><path d="M.838 4.642l3.413.033c1.217 0 2.057.536 2.806 1.791a.498.498 0 0 0 .685.173.5.5 0 0 0 .173-.686c-.583-.977-1.598-2.278-3.659-2.278L.848 3.642H.843a.5.5 0 0 0-.005 1zm14.976 7.107c-.003-.011.003-.022-.001-.032-.003-.008-.011-.011-.014-.019a.488.488 0 0 0-.138-.203l-2.665-2.221a.5.5 0 0 0-.641.767l1.594 1.329-1.393-.008c-1.237 0-2.087-.534-2.842-1.786a.5.5 0 0 0-.856.518c.588.974 1.611 2.269 3.696 2.269l1.356.008-1.544 1.219a.5.5 0 1 0 .619.785l2.665-2.103c.01-.008.012-.023.021-.031.017-.015.038-.023.053-.041a.504.504 0 0 0 .095-.178l.001-.006a.494.494 0 0 0-.006-.267z"/><path d="M15.815 4.034l-.002-.008c-.003-.01.003-.02-.001-.03-.001-.004-.006-.006-.007-.009-.005-.013-.009-.025-.015-.037-.013-.028-.033-.052-.052-.078-.02-.028-.038-.056-.063-.079-.006-.006-.009-.014-.015-.019l-2.665-2.221a.5.5 0 0 0-.641.769l1.594 1.329-1.392-.008c-2.829 0-3.802 2.235-4.661 4.207-.83 1.903-1.546 3.547-3.64 3.547l-3.408-.033H.842a.5.5 0 0 0-.005 1l3.413.033c2.754 0 3.714-2.203 4.561-4.147.843-1.935 1.571-3.606 3.742-3.606l1.357.006-1.544 1.218a.5.5 0 1 0 .619.785l2.665-2.102c.005-.004.006-.012.011-.017.016-.014.032-.027.046-.042.005-.006.012-.007.017-.013.015-.018.02-.04.032-.06.019-.03.037-.058.049-.091.003-.01.011-.018.013-.028l.001-.006c.006-.022.004-.045.007-.068.003-.022.013-.042.013-.065 0-.008-.004-.015-.005-.023 0-.036-.01-.069-.019-.104z"/></svg>