<svg xmlns="http://www.w3.org/2000/svg" viewBox="0 0 64 64"><path d="M25.105 63.801H.895a.966.966 0 0 1-.967-.967V38.625c0-.534.432-.967.967-.967h24.209c.534 0 .967.432.967.967v24.209a.966.966 0 0 1-.966.967zM1.862 61.867h22.276V39.591H1.862v22.276zm61.105 1.934h-24.21a.966.966 0 0 1-.967-.967V38.625c0-.534.432-.967.967-.967h24.209c.534 0 .967.432.967.967v24.209a.966.966 0 0 1-.966.967zm-23.243-1.934H62V39.591H39.724v22.276zm4.344-35.725H19.86a.966.966 0 0 1-.967-.967V.967c0-.534.432-.967.967-.967h24.208c.534 0 .967.433.967.967v24.208a.966.966 0 0 1-.967.967zm-23.242-1.934h22.275V1.933H20.826v22.275z"/><path d="M50.939 39.591a.966.966 0 0 1-.967-.967V33H13.954v5.624a.966.966 0 1 1-1.934 0v-6.59c0-.534.432-.967.967-.967h37.951c.534 0 .967.432.967.967v6.59a.965.965 0 0 1-.966.967z"/><path d="M31.964 32.625a.966.966 0 0 1-.967-.967v-6.484a.966.966 0 1 1 1.934 0v6.484a.966.966 0 0 1-.967.967zm6.793-25.312H25.308a.967.967 0 0 1 0-1.934h13.449a.967.967 0 0 1 0 1.934zm18.907 37.658H44.215a.966.966 0 1 1 0-1.934h13.449a.966.966 0 1 1 0 1.934zm-37.939 0H6.275a.966.966 0 1 1 0-1.934h13.449a.966.966 0 1 1 .001 1.934z"/></svg>