<svg xmlns="http://www.w3.org/2000/svg" viewBox="0 0 24 24"><path d="M18.882 23.885H5.135c-.92 0-1.669-.749-1.669-1.67V4.544a.75.75 0 0 1 1.5 0v17.671c0 .094.076.17.169.17h13.747a.17.17 0 0 0 .169-.17V4.544a.75.75 0 0 1 1.5 0v17.671c0 .921-.749 1.67-1.669 1.67z"/><path d="M23.147 5.294H.863a.75.75 0 0 1 0-1.5h22.284a.75.75 0 0 1 0 1.5z"/><path d="M15.946 5.294a.75.75 0 0 1-.75-.75V1.752a.152.152 0 0 0-.151-.151H9.047a.152.152 0 0 0-.151.151v2.792a.75.75 0 0 1-1.5 0V1.752c0-.911.741-1.651 1.651-1.651h5.997c.911 0 1.651.741 1.651 1.651v2.792a.749.749 0 0 1-.749.75zm-7.8 15.764a.75.75 0 0 1-.75-.75V7.371a.75.75 0 0 1 1.5 0v12.937a.75.75 0 0 1-.75.75zm7.8 0a.75.75 0 0 1-.75-.75V7.371a.75.75 0 0 1 1.5 0v12.937a.75.75 0 0 1-.75.75zm-3.9 0a.75.75 0 0 1-.75-.75V7.371a.75.75 0 0 1 1.5 0v12.937a.75.75 0 0 1-.75.75z"/></svg>