<svg xmlns="http://www.w3.org/2000/svg" viewBox="0 0 64 64"><path fill="none" d="M50.118 29.807h9.88l-9.88-10.363z"/><circle cx="10.405" cy="10.193" r="7.331" fill="none"/><path d="M63.321 30.749a.96.96 0 0 0-.055-.27c-.01-.029-.016-.057-.028-.085a.984.984 0 0 0-.182-.277l-13.215-13.86-.01-.008c-.015-.015-.034-.025-.05-.039a1.008 1.008 0 0 0-.237-.16c-.032-.015-.065-.025-.098-.037a.998.998 0 0 0-.266-.054c-.022-.001-.04-.013-.062-.013H25.072a1 1 0 0 0-1 1v14.526a1 1 0 1 0 2 0V17.946h22.046v12.86a1 1 0 0 0 1 1h12.215v29.269H26.072V47.011a1 1 0 1 0-2 0v15.064a1 1 0 0 0 1 1h37.261a1 1 0 0 0 1-1V30.807c0-.021-.01-.038-.012-.058zm-13.203-.942V19.444l9.88 10.362h-9.88z"/><path d="M38.335 39.511a1 1 0 0 0-1-1H18.463a7.066 7.066 0 0 1-7.059-7.059V19.468c4.677-.501 8.331-4.468 8.331-9.275 0-5.145-4.186-9.331-9.331-9.331s-9.33 4.186-9.33 9.331c0 4.807 3.654 8.774 8.33 9.275v11.984c0 4.995 4.063 9.059 9.059 9.059h18.872a1 1 0 0 0 1-1zM3.074 10.193c0-4.042 3.288-7.331 7.33-7.331s7.331 3.289 7.331 7.331-3.289 7.331-7.331 7.331-7.33-3.289-7.33-7.331z"/></svg>