<svg xmlns="http://www.w3.org/2000/svg" viewBox="0 0 64 64"><path d="M55.573 23.571a1 1 0 0 0-1-1H13.762l8.931-8.864a1 1 0 1 0-1.408-1.42L10.631 22.861l-.001.001a1.004 1.004 0 0 0 0 1.418l.001.001 10.654 10.574a.996.996 0 0 0 1.414-.006.999.999 0 0 0-.006-1.414l-8.931-8.864h40.811a1 1 0 0 0 1-1z"/><path d="M47.667.614h-31.35C7.426.614.193 7.795.193 16.622v15.699c0 8.827 7.233 16.008 16.124 16.008h13.717a1 1 0 1 0 0-2H16.317c-7.788 0-14.124-6.284-14.124-14.008V16.622c0-7.724 6.336-14.008 14.124-14.008h31.35c7.787 0 14.122 6.284 14.122 14.008v15.699c0 7.724-6.335 14.008-14.122 14.008h-7.03a.999.999 0 0 0-.873.513l-8.59 15.412a.998.998 0 0 0 .872 1.487 1 1 0 0 0 .874-.513l8.305-14.899h6.442c8.89 0 16.122-7.182 16.122-16.008V16.622c0-8.827-7.232-16.008-16.122-16.008z"/></svg>