<svg xmlns="http://www.w3.org/2000/svg" viewBox="0 0 64 64"><path d="M47.689.666H16.812C8.047.666.917 7.796.917 16.561v15.582c0 8.764 7.13 15.895 15.895 15.895h13.511a1 1 0 1 0 0-2H16.812c-7.661 0-13.895-6.233-13.895-13.895V16.561c0-7.662 6.233-13.895 13.895-13.895H47.69c7.661 0 13.894 6.233 13.894 13.895v15.582c0 7.662-6.232 13.895-13.894 13.895h-6.924a.998.998 0 0 0-.875.516L31.43 61.851a1 1 0 1 0 1.75.968l8.176-14.782h6.334c8.764 0 15.894-7.131 15.894-15.895V16.561C63.583 7.796 56.453.666 47.689.666z"/><circle cx="19.649" cy="24.367" r="3.072"/><circle cx="32.249" cy="24.367" r="3.072"/><circle cx="44.851" cy="24.367" r="3.072"/></svg>