<svg xmlns="http://www.w3.org/2000/svg" viewBox="0 0 24 24"><path d="M18.156 10.005c0-4.448-3.619-8.067-8.067-8.067-4.449 0-8.068 3.619-8.068 8.067 0 4.449 3.619 8.068 8.068 8.068 4.448 0 8.067-3.619 8.067-8.068zm-9.959 4.402a.749.749 0 0 1-1.061-.018l-3.717-3.838a.75.75 0 0 1 0-1.044L7.137 5.67a.75.75 0 0 1 1.077 1.045L5.002 10.03l3.212 3.317a.75.75 0 0 1-.017 1.06zm4.305.199a.749.749 0 0 1-.539-1.272l3.212-3.316-3.212-3.316a.75.75 0 1 1 1.078-1.044l3.717 3.838a.75.75 0 0 1 0 1.044l-3.717 3.837a.744.744 0 0 1-.539.229z" fill="none"/><path d="M17.356 16.211a9.52 9.52 0 0 0 2.3-6.206c0-5.275-4.292-9.567-9.567-9.567C4.813.438.521 4.73.521 10.005c0 5.276 4.292 9.568 9.568 9.568 2.369 0 4.535-.87 6.207-2.301l6.007 6.008a.748.748 0 0 0 1.06 0 .75.75 0 0 0 0-1.061l-6.007-6.008zM2.021 10.005c0-4.448 3.619-8.067 8.068-8.067 4.448 0 8.067 3.619 8.067 8.067 0 4.449-3.619 8.068-8.067 8.068-4.449 0-8.068-3.619-8.068-8.068z"/><path d="M16.758 9.497l-3.717-3.838a.75.75 0 1 0-1.078 1.044l3.212 3.316-3.212 3.316a.75.75 0 1 0 1.078 1.043l3.717-3.837a.75.75 0 0 0 0-1.044zm-11.756.533l3.212-3.315A.75.75 0 0 0 7.137 5.67L3.419 9.508a.75.75 0 0 0 0 1.044l3.717 3.838a.748.748 0 0 0 1.061.018.751.751 0 0 0 .017-1.061L5.002 10.03z"/></svg>