<svg xmlns="http://www.w3.org/2000/svg" viewBox="0 0 64 64"><path d="M51.046 63.86H12.972a3.55 3.55 0 0 1-3.547-3.547V8.797a1 1 0 1 1 2 0v51.516c0 .853.694 1.547 1.547 1.547h38.074c.853 0 1.547-.694 1.547-1.547V8.797a1 1 0 1 1 2 0v51.516a3.55 3.55 0 0 1-3.547 3.547z"/><path d="M62.86 9.797H1.14a1 1 0 1 1 0-2h61.72a1 1 0 1 1 0 2z"/><path d="M42.914 9.797a1 1 0 0 1-1-1V3.636c0-.825-.671-1.497-1.496-1.497H23.807c-.825 0-1.496.671-1.496 1.497v5.161a1 1 0 1 1-2 0V3.636A3.5 3.5 0 0 1 23.807.139h16.611a3.5 3.5 0 0 1 3.496 3.497v5.161a1 1 0 0 1-1 1zM21.311 56.031a1 1 0 0 1-1-1V16.626a1 1 0 1 1 2 0v38.405a1 1 0 0 1-1 1zm21.603 0a1 1 0 0 1-1-1V16.626a1 1 0 1 1 2 0v38.405a1 1 0 0 1-1 1zm-10.802 0a1 1 0 0 1-1-1V16.626a1 1 0 1 1 2 0v38.405a1 1 0 0 1-1 1z"/></svg>