<svg xmlns="http://www.w3.org/2000/svg" viewBox="0 0 64 64"><path d="M27.953 53.206a.969.969 0 0 1-.97-.969v-15.22h-15.22a.969.969 0 0 1-.447-1.831l33.728-17.538a.971.971 0 0 1 1.308 1.308L28.813 52.684a.97.97 0 0 1-.86.522zM15.73 35.078h12.223a.97.97 0 0 1 .97.97V48.27l14.292-27.484L15.73 35.078z"/><path d="M32 64C14.355 64 0 49.645 0 32S14.355 0 32 0s32 14.355 32 32-14.355 32-32 32zm0-62.061C15.424 1.939 1.939 15.425 1.939 32c0 16.576 13.485 30.061 30.061 30.061S62.061 48.576 62.061 32C62.061 15.425 48.576 1.939 32 1.939z"/></svg>