<svg xmlns="http://www.w3.org/2000/svg" viewBox="0 0 24 24"><path d="M22.474.269c-.063 0-6.296-.015-7.494-.031h-.061c-1.592 0-2.453.779-2.766 1.138-.915.898-10.744 10.54-11.345 11.157a.94.94 0 0 0-.06.066c-.573.663-.652 1.32-.617 1.755.061.762.49 1.258.706 1.462 1.878 1.893 6.759 6.82 7.19 7.281.063.068.133.129.207.184a2.58 2.58 0 0 0 1.528.521c.891 0 1.476-.482 1.634-.629l.04-.039 11.159-11.216c1.273-1.098 1.351-2.447 1.344-2.844l.03-7.299A1.5 1.5 0 0 0 22.474.269zm-.897 10.546L10.373 22.077s-.242.226-.611.226c-.186 0-.405-.058-.641-.231-.543-.58-7.244-7.336-7.244-7.336s-.576-.484.005-1.155c.613-.63 11.375-11.186 11.375-11.186s.473-.656 1.662-.657h.042c1.219.016 7.509.031 7.509.031l-.03 7.317s.071.952-.863 1.729z"/><path d="M17.259 4.239c-.718-.022-1.355.266-1.851.757a2.594 2.594 0 0 0-.773 1.844 2.616 2.616 0 0 0 2.602 2.623h.012c.693 0 1.346-.269 1.839-.757.496-.492.77-1.146.773-1.844a2.616 2.616 0 0 0-2.602-2.623zm.773 3.402c-.211.209-.479.282-.788.323a1.114 1.114 0 0 1 .004-2.225h.005a1.113 1.113 0 0 1 .779 1.902z"/></svg>