<svg xmlns="http://www.w3.org/2000/svg" viewBox="0 0 64 64"><path d="M32 10.019c-13.995 0-25.382 11.386-25.382 25.381S18.005 60.781 32 60.781s25.381-11.387 25.381-25.382S45.995 10.019 32 10.019zm11.107 27.769H32a1 1 0 0 1-1-1V20.126a1 1 0 1 1 2 0v15.662h10.107a1 1 0 1 1 0 2z" fill="none"/><path d="M59.381 35.399c0-15.097-12.283-27.38-27.381-27.38-15.099 0-27.382 12.283-27.382 27.381 0 8.957 4.323 16.922 10.991 21.921l-3.756 3.754a.999.999 0 1 0 1.414 1.414l4.017-4.015a27.213 27.213 0 0 0 14.715 4.308 27.209 27.209 0 0 0 14.716-4.309l4.016 4.016a.997.997 0 0 0 1.414 0 .999.999 0 0 0 0-1.414L48.39 57.32c6.669-4.999 10.991-12.964 10.991-21.921zM32 60.781c-13.995 0-25.382-11.387-25.382-25.382S18.005 10.019 32 10.019 57.381 21.405 57.381 35.4 45.995 60.781 32 60.781z"/><path d="M43.107 35.788H33V20.126a1 1 0 1 0-2 0v16.662a1 1 0 0 0 1 1h11.107a1 1 0 1 0 0-2zM59.788 5.141c-2.286-2.287-5.249-3.546-8.344-3.546-3.094 0-6.058 1.259-8.344 3.546a.999.999 0 1 0 1.414 1.414c1.909-1.909 4.37-2.96 6.93-2.96 2.561 0 5.021 1.051 6.93 2.96 3.949 3.951 3.949 9.909 0 13.859a.999.999 0 1 0 1.414 1.414c4.755-4.756 4.755-11.93 0-16.687zM5.626 21.829a.999.999 0 0 0 0-1.414c-3.949-3.95-3.949-9.909 0-13.859 1.909-1.909 4.37-2.96 6.93-2.96 2.561 0 5.021 1.051 6.93 2.96A.999.999 0 1 0 20.9 5.142c-2.286-2.287-5.249-3.546-8.344-3.546-3.094 0-6.058 1.259-8.344 3.546-4.755 4.757-4.755 11.931 0 16.688a.997.997 0 0 0 1.414-.001z"/></svg>