<svg viewBox="0 0 64 64" xmlns="http://www.w3.org/2000/svg"><path d="M15.979 52.304c-1.82 0-3.063-.339-3.696-1.002-1.014-1.071-.889-3.486-.757-6.044.214-4.107.508-9.921-4.767-13.256 5.275-3.338 4.981-9.152 4.767-13.255-.132-2.559-.257-4.978.757-6.048.633-.667 1.876-1.002 3.696-1.002a1.885 1.885 0 0 0 0-3.768c-2.935 0-5.037.712-6.428 2.174-1.04 1.097-1.53 2.457-1.741 3.941-.218 1.553-.131 3.241-.048 4.899.267 5.105.497 9.514-6.365 11.232-.071.019-.124.068-.192.09-.143.057-.279.11-.403.192-.094.064-.166.144-.245.223-.09.086-.181.173-.252.279-.076.113-.121.233-.17.357-.03.08-.086.144-.105.23-.008.027 0 .053-.004.079-.026.125-.019.249-.019.377s-.007.253.019.377c.004.026-.004.053.004.079.007.034.045.053.056.087.11.362.305.686.603.923.008.008.015.019.023.026.199.155.429.272.685.336 6.862 1.714 6.632 6.126 6.365 11.228-.166 3.244-.34 6.594 1.789 8.84 1.391 1.465 3.493 2.174 6.428 2.174a1.885 1.885 0 0 0 0-3.768M63.974 31.625c-.004-.027.004-.053-.004-.079-.019-.083-.075-.147-.105-.223-.053-.128-.098-.256-.177-.369-.064-.098-.147-.173-.23-.256-.087-.087-.17-.177-.275-.245-.109-.075-.234-.121-.358-.173-.079-.031-.143-.083-.226-.106-6.858-1.718-6.632-6.127-6.364-11.232.169-3.241.343-6.594-1.79-8.84-1.387-1.462-3.493-2.174-6.428-2.174a1.885 1.885 0 0 0 0 3.768c1.824 0 3.067.339 3.696 1.002 1.018 1.071.889 3.49.758 6.048-.211 4.103-.509 9.917 4.77 13.256-5.279 3.338-4.981 9.148-4.77 13.255.131 2.558.26 4.974-.758 6.044-.629.663-1.872 1.002-3.696 1.002a1.885 1.885 0 0 0 0 3.768c2.935 0 5.041-.708 6.428-2.174 2.133-2.246 1.959-5.595 1.79-8.84-.268-5.101-.494-9.514 6.364-11.228.26-.064.49-.181.686-.332.011-.011.015-.022.026-.03.298-.237.49-.561.603-.923.011-.034.049-.049.056-.087.008-.026 0-.052.004-.079.026-.124.019-.248.019-.376 0-.129.007-.253-.019-.377"/><path d="M20.459 28.975A3.027 3.027 0 0 0 17.433 32a3.028 3.028 0 0 0 3.026 3.026A3.027 3.027 0 0 0 23.484 32a3.027 3.027 0 0 0-3.025-3.025M43.539 28.975A3.028 3.028 0 0 0 40.513 32a3.028 3.028 0 0 0 3.026 3.026A3.028 3.028 0 0 0 46.565 32a3.028 3.028 0 0 0-3.026-3.025M32 28.975A3.028 3.028 0 0 0 28.974 32 3.028 3.028 0 0 0 32 35.026 3.027 3.027 0 0 0 35.025 32 3.027 3.027 0 0 0 32 28.975"/></svg>