<svg xmlns="http://www.w3.org/2000/svg" viewBox="0 0 64 64"><path d="M62.833 29.488L34.511 1.167c-1.342-1.341-3.683-1.341-5.022 0L1.167 29.488a3.525 3.525 0 0 0-1.04 2.511v28.322a3.557 3.557 0 0 0 3.552 3.552l10.492-.001.005.001.005-.001h13.364l.003.001.003-.001 32.77.001a3.557 3.557 0 0 0 3.552-3.552V32c0-.949-.369-1.841-1.04-2.512zM26.548 61.872H15.176V44.848a4.065 4.065 0 0 1 4.06-4.061h3.253a4.065 4.065 0 0 1 4.06 4.061v17.024zm35.325-1.551c0 .855-.696 1.552-1.552 1.552l-31.773-.001V44.848a6.068 6.068 0 0 0-6.06-6.061h-3.253a6.068 6.068 0 0 0-6.06 6.061v17.025l-9.497.001a1.554 1.554 0 0 1-1.552-1.552V32c0-.415.161-.804.454-1.097L30.902 2.582c.586-.587 1.608-.585 2.194 0l28.322 28.321c.293.293.454.683.454 1.097v28.321z"/></svg>