<svg xmlns="http://www.w3.org/2000/svg" viewBox="0 0 16 16"><g fill="#231f20"><path d="M8.561 1.086v.584c0 .667.4 1.263 1.02 1.518l.679.28a1.658 1.658 0 0 0 1.797-.351l.437-.431.782.77-.414.408a1.63 1.63 0 0 0-.364 1.796l.279.671a1.65 1.65 0 0 0 1.527 1.015h.611v1.311h-.608a1.65 1.65 0 0 0-1.523 1.004l-.284.668a1.629 1.629 0 0 0 .359 1.806l.416.41-.782.77-.436-.429a1.656 1.656 0 0 0-1.786-.355l-.681.275a1.637 1.637 0 0 0-1.031 1.522v.587H7.44v-.585c0-.667-.4-1.263-1.02-1.518l-.679-.28a1.658 1.658 0 0 0-1.797.351l-.437.431-.782-.77.414-.408a1.63 1.63 0 0 0 .364-1.796l-.279-.67a1.65 1.65 0 0 0-1.527-1.015h-.611v-1.31h.608a1.65 1.65 0 0 0 1.523-1.004l.284-.668a1.63 1.63 0 0 0-.359-1.807l-.416-.41.782-.77.435.429a1.656 1.656 0 0 0 1.786.355l.681-.275a1.638 1.638 0 0 0 1.03-1.522v-.587h1.121m4.172 1.363h.005-.005m-8.986.001h.005-.005M8.908.086H7.093a.648.648 0 0 0-.653.643v.944c0 .261-.16.496-.405.595l-.681.275a.667.667 0 0 1-.71-.14l-.675-.666a.66.66 0 0 0-.924 0L1.762 3.001a.637.637 0 0 0 0 .91l.678.667a.635.635 0 0 1 .14.703l-.283.669a.655.655 0 0 1-.603.395H.739a.648.648 0 0 0-.653.643v2.024c0 .355.292.643.653.643h.958c.265 0 .504.158.604.399l.279.67c.1.24.044.516-.142.699l-.675.665a.637.637 0 0 0 0 .91l1.283 1.264a.66.66 0 0 0 .924 0l.677-.667a.658.658 0 0 1 .714-.138l.679.28c.243.1.401.334.401.593v.941c0 .355.292.643.653.643h1.815a.648.648 0 0 0 .653-.643v-.944c0-.261.16-.496.405-.595l.681-.275a.667.667 0 0 1 .71.14l.676.665a.66.66 0 0 0 .924 0l1.283-1.264a.637.637 0 0 0 0-.91l-.678-.667a.637.637 0 0 1-.141-.703l.284-.668a.654.654 0 0 1 .602-.395h.955a.648.648 0 0 0 .653-.643V6.988a.648.648 0 0 0-.653-.643h-.958a.653.653 0 0 1-.604-.399l-.281-.671a.636.636 0 0 1 .142-.699l.675-.665a.637.637 0 0 0 0-.91l-1.283-1.264a.66.66 0 0 0-.924 0l-.677.667a.658.658 0 0 1-.714.138l-.679-.28a.643.643 0 0 1-.401-.593v-.94a.646.646 0 0 0-.651-.643z"/><path d="M8 5.805c1.237 0 2.244.985 2.244 2.195S9.238 10.195 8 10.195 5.756 9.21 5.756 8 6.763 5.805 8 5.805m0-1c-1.791 0-3.244 1.43-3.244 3.195S6.208 11.195 8 11.195 11.244 9.765 11.244 8 9.791 4.805 8 4.805z"/></g></svg>