<svg xmlns="http://www.w3.org/2000/svg" viewBox="0 0 64 64"><path d="M57.979 6.818l-4.6-4.028C49.16-.904 42.723-.479 39.027 3.74l-10.07 11.497a7.065 7.065 0 0 0-1.747 5.157 7.067 7.067 0 0 0 2.41 4.882 1 1 0 1 0 1.318-1.505 5.12 5.12 0 0 1-.478-7.216L40.53 5.058c2.969-3.389 8.142-3.731 11.529-.762l4.6 4.028c3.389 2.968 3.73 8.14.763 11.529L47.354 31.35a5.121 5.121 0 0 1-7.217.477 1 1 0 1 0-1.318 1.505 7.084 7.084 0 0 0 4.684 1.76c1.98 0 3.951-.82 5.355-2.424l10.07-11.498c3.695-4.219 3.269-10.657-.949-14.352zM34.095 38.726a1 1 0 1 0-1.318 1.504 5.12 5.12 0 0 1 .478 7.216l-10.07 11.497a8.114 8.114 0 0 1-5.607 2.759 8.088 8.088 0 0 1-5.922-1.995l-4.6-4.028a8.11 8.11 0 0 1-2.76-5.609 8.108 8.108 0 0 1 1.996-5.923l10.07-11.498a5.076 5.076 0 0 1 3.51-1.732 5.073 5.073 0 0 1 3.706 1.255 1 1 0 1 0 1.318-1.504 7.065 7.065 0 0 0-5.156-1.747 7.064 7.064 0 0 0-4.882 2.411L4.788 42.829a10.096 10.096 0 0 0-2.487 7.373 10.092 10.092 0 0 0 3.436 6.979l4.6 4.028a10.076 10.076 0 0 0 6.68 2.51c.23 0 .461-.007.692-.022 2.717-.18 5.196-1.4 6.979-3.437l10.07-11.497c2.585-2.951 2.287-7.453-.663-10.037z"/><path d="M20.121 45.398a.999.999 0 0 0 1.411-.093l22.155-25.294a1 1 0 1 0-1.504-1.317L20.028 43.987a1 1 0 0 0 .093 1.411z"/></svg>