<svg xmlns="http://www.w3.org/2000/svg" viewBox="0 0 24 24"><path d="M12.053 8.62c5.215 0 9.112-1.794 9.123-3.401v-.006l.001-.003c-.005-1.608-3.904-3.405-9.124-3.405-5.222 0-9.124 1.799-9.124 3.408S6.831 8.62 12.053 8.62z" fill="none"/><path d="M2.928 7.789V9.37c0 1.608 3.902 3.407 9.124 3.407s9.124-1.799 9.124-3.407V7.79c-1.821 1.417-5.146 2.33-9.123 2.33-3.978 0-7.304-.914-9.125-2.331z" fill="none"/><path d="M2.928 11.947v2.101c0 1.608 3.902 3.407 9.124 3.407s9.124-1.799 9.124-3.407v-2.101c-1.821 1.417-5.146 2.331-9.124 2.331s-7.303-.914-9.124-2.331z" fill="none"/><path d="M12.052 18.955c-3.978 0-7.303-.913-9.124-2.331v2.1c0 1.608 3.902 3.407 9.124 3.407s9.124-1.799 9.124-3.407v-2.1c-1.821 1.418-5.146 2.331-9.124 2.331z" fill="none"/><path d="M12.053.305C6.004.305 1.441 2.41 1.43 5.203l-.002.01v13.512c0 2.798 4.567 4.907 10.624 4.907s10.624-2.109 10.624-4.907V5.222l.001-.01c0-2.797-4.567-4.907-10.624-4.907zm9.123 13.743c0 1.608-3.902 3.407-9.124 3.407s-9.124-1.799-9.124-3.407v-2.101c1.821 1.417 5.146 2.331 9.124 2.331s7.303-.914 9.124-2.331v2.101zm0-4.678c0 1.608-3.902 3.407-9.124 3.407S2.928 10.979 2.928 9.37V7.789c1.821 1.418 5.146 2.332 9.125 2.332 3.977 0 7.302-.913 9.123-2.33V9.37zm-9.123-7.565c5.219 0 9.119 1.797 9.124 3.405l-.001.003v.007c-.011 1.607-3.908 3.401-9.123 3.401-5.222 0-9.124-1.799-9.124-3.407s3.902-3.409 9.124-3.409zm-.001 20.327c-5.222 0-9.124-1.799-9.124-3.407v-2.1c1.821 1.417 5.146 2.331 9.124 2.331s7.303-.913 9.124-2.331v2.1c0 1.608-3.902 3.407-9.124 3.407z"/></svg>