<svg xmlns="http://www.w3.org/2000/svg" viewBox="0 0 24 24"><path d="M21.325.925A2.614 2.614 0 0 0 18.71 3.54c0 .743.313 1.41.81 1.886-.003.005-.008.007-.01.012l-3.902 6.904a2.604 2.604 0 0 0-.59-.073 2.6 2.6 0 0 0-1.306.361l-2.451-2.167a2.59 2.59 0 0 0 .332-1.252 2.615 2.615 0 1 0-5.23 0 2.6 2.6 0 0 0 .811 1.886l-.01.012-3.902 6.904a2.611 2.611 0 0 0-.59-.073 2.614 2.614 0 1 0 0 5.23 2.615 2.615 0 0 0 2.615-2.615c0-.756-.326-1.432-.839-1.91l3.886-6.875c.006-.01.005-.021.01-.031.204.051.415.086.635.086.499 0 .96-.147 1.356-.389l2.426 2.145a2.59 2.59 0 0 0-.359 1.301 2.614 2.614 0 1 0 5.23 0c0-.756-.326-1.432-.839-1.91l3.886-6.875c.006-.01.005-.021.01-.031.204.051.415.087.635.087a2.615 2.615 0 0 0 .001-5.228zM2.675 21.826a1.272 1.272 0 0 1 0-2.542 1.272 1.272 0 0 1 0 2.542zM7.71 9.211a1.272 1.272 0 0 1 2.542 0c0 .346-.141.66-.367.889-.007.008-.018.011-.025.019l-.003.005c-.229.22-.536.358-.877.358-.7.001-1.27-.57-1.27-1.271zm7.309 6.944a1.272 1.272 0 0 1 0-2.542 1.272 1.272 0 0 1 0 2.542zm6.306-11.344a1.272 1.272 0 0 1 0-2.542 1.272 1.272 0 0 1 0 2.542z"/></svg>