<svg xmlns="http://www.w3.org/2000/svg" viewBox="0 0 24 24"><path d="M10.3 19.3c2.9 0 5.3-2.4 5.3-5.2 0-2.9-2.4-5.2-5.3-5.2S5 11.1 5 14c0 2.9 2.3 5.3 5.3 5.3zm0-9c2.1 0 3.8 1.7 3.8 3.7 0 2.1-1.7 3.7-3.8 3.7S6.5 16.1 6.5 14c0-2 1.7-3.7 3.8-3.7z"/><path d="M23.3 3.8L19.9.5c-.3-.3-.8-.3-1 0l-3.4 3.3c-.3.3-.3.8 0 1.1.1.1.3.2.5.2s.4-.1.5-.2l2.1-2v11c0 4.6-3.7 8.3-8.3 8.3S2 18.5 2 13.9c0-2.5 1.1-4.8 3-6.4.2-.3.3-.7 0-1.1-.3-.3-.8-.3-1.1 0C1.7 8.2.4 11 .4 13.9c0 5.4 4.4 9.8 9.8 9.8s9.8-4.4 9.8-9.8V2.8l2.2 2.1c.3.3.8.3 1.1 0 .4-.3.3-.8 0-1.1z"/></svg>