<svg xmlns="http://www.w3.org/2000/svg" viewBox="0 0 24 24"><path d="M14.733 8.096V4.643a2.908 2.908 0 0 0-5.819 0v3.454a8.063 8.063 0 0 1 2.91-.549c1.026 0 2.004.199 2.909.548zm-2.909.952c-3.645 0-6.61 2.965-6.61 6.609s2.965 6.609 6.61 6.609 6.609-2.965 6.609-6.609-2.965-6.609-6.609-6.609zm.574 7.204v2.505a.549.549 0 1 1-1.098 0v-2.505a1.453 1.453 0 0 1 .549-2.799c.803 0 1.455.651 1.455 1.454a1.456 1.456 0 0 1-.906 1.345z" fill="none"/><path d="M16.233 8.861V4.643a4.409 4.409 0 0 0-4.409-4.41 4.409 4.409 0 0 0-3.655 1.946 4.378 4.378 0 0 0-.755 2.464v4.218c-2.224 1.448-3.7 3.951-3.7 6.796 0 4.472 3.638 8.109 8.11 8.109s8.109-3.638 8.109-8.109a8.103 8.103 0 0 0-3.7-6.796zM8.914 4.643a2.908 2.908 0 0 1 5.82 0v3.453a8.058 8.058 0 0 0-2.909-.549 8.046 8.046 0 0 0-2.91.549V4.643zm2.91 17.624c-3.645 0-6.61-2.965-6.61-6.609s2.965-6.609 6.61-6.609 6.609 2.965 6.609 6.609-2.965 6.609-6.609 6.609z"/><path d="M11.848 13.453a1.454 1.454 0 0 0-.549 2.799v2.505a.549.549 0 1 0 1.098 0v-2.505a1.453 1.453 0 0 0-.549-2.799z"/></svg>