<svg xmlns="http://www.w3.org/2000/svg" viewBox="0 0 64 64"><path d="M25.605 31.517V27.92a1 1 0 0 1 1-1h10.789a1 1 0 0 1 1 1v3.597h23.354V20.524a2.807 2.807 0 0 0-2.804-2.804H5.054a2.807 2.807 0 0 0-2.804 2.804v10.993h23.355z" fill="none"/><path fill="none" d="M27.605 28.92h8.789v8.79h-8.789z"/><path d="M38.395 38.71a1 1 0 0 1-1 1h-10.79a1 1 0 0 1-1-1v-5.192H2.25V54.17c0 1.93 1.883 3.5 4.196 3.5h51.107c2.313 0 4.196-1.57 4.196-3.5V33.518H38.395v5.192zM20.556 5.46h22.889v10.26H20.556z" fill="none"/><path d="M63.749 32.512V20.524a4.81 4.81 0 0 0-4.804-4.804H45.444V4.46a1 1 0 0 0-1-1H19.556a1 1 0 0 0-1 1v11.26H5.054A4.81 4.81 0 0 0 .25 20.524v11.58c0 .073.027.138.042.207-.015.069-.042.133-.042.207V54.17c0 3.032 2.779 5.5 6.196 5.5h51.107c3.417 0 6.196-2.468 6.196-5.5V32.512zM20.556 5.46h22.889v10.26H20.556V5.46zM5.054 17.72h53.892a2.807 2.807 0 0 1 2.804 2.804v10.993H38.395V27.92a1 1 0 0 0-1-1h-10.79a1 1 0 0 0-1 1v3.597H2.25V20.524a2.807 2.807 0 0 1 2.804-2.804zm22.551 11.2h8.789v8.79h-8.789v-8.79zM61.75 54.17c0 1.93-1.883 3.5-4.196 3.5H6.446c-2.313 0-4.196-1.57-4.196-3.5V33.518h23.355v5.192a1 1 0 0 0 1 1h10.789a1 1 0 0 0 1-1v-5.192H61.75V54.17z"/></svg>