<svg xmlns="http://www.w3.org/2000/svg" viewBox="0 0 16 16"><path d="M14.943.243S10.769.233 9.96.223h-.041c-1.059 0-1.632.518-1.841.758C7.471 1.577.935 7.989.536 8.399l-.04.044c-.382.442-.435.879-.412 1.169.04.507.326.837.471.973 1.248 1.259 4.494 4.535 4.781 4.841.042.045.089.086.138.123.31.227.662.347 1.018.347.593 0 .983-.321 1.088-.419l7.446-7.484c.847-.73.899-1.628.895-1.893l.02-4.853a1.003 1.003 0 0 0-.998-1.004zm-.596 7.016l-7.45 7.488s-.161.15-.406.15a.708.708 0 0 1-.426-.154c-.361-.386-4.817-4.878-4.817-4.878s-.382-.322.004-.768c.407-.418 7.563-7.438 7.563-7.438s.315-.436 1.105-.436h.028c.811.01 4.993.021 4.993.021l-.02 4.865s.047.633-.574 1.15z"/><path d="M11.445 2.686c-.946-.02-1.741.772-1.745 1.73a1.74 1.74 0 0 0 1.73 1.744h.007c.955 0 1.733-.774 1.737-1.73a1.738 1.738 0 0 0-1.729-1.744zm-.008 2.475h-.003a.735.735 0 0 1-.734-.741.738.738 0 0 1 .737-.734h.003a.739.739 0 0 1-.003 1.475z"/></svg>