<svg xmlns="http://www.w3.org/2000/svg" viewBox="0 0 64 64"><path d="M63.03 56.541H.97a.97.97 0 0 1-.97-.97V8.429a.97.97 0 0 1 .97-.97h62.06a.97.97 0 0 1 .97.97v47.142a.97.97 0 0 1-.97.97zm-61.091-1.94H62.06V19.22H1.939v35.381zm0-37.32H62.06V9.399H1.939v7.882z"/><path d="M55.559 49.258H42.642a.97.97 0 0 1-.97-.97V25.555a.97.97 0 0 1 .97-.97h12.917a.97.97 0 0 1 .97.97v22.733a.97.97 0 0 1-.97.97zm-11.947-1.94h10.977V26.525H43.612v20.793zm-11.271 1.9h-23.9a.97.97 0 0 1-.97-.97V25.555a.97.97 0 0 1 .97-.97h23.9a.97.97 0 0 1 .97.97v22.693a.97.97 0 0 1-.97.97zm-22.93-1.94h21.96V26.525H9.411v20.753z"/><path d="M8.441 49.218a.97.97 0 0 1-.668-1.673l23.9-22.693a.97.97 0 0 1 1.335 1.407l-23.9 22.693a.964.964 0 0 1-.667.266z"/><path d="M32.341 49.218a.968.968 0 0 1-.668-.266l-23.9-22.693a.97.97 0 0 1 1.335-1.407l23.9 22.693a.97.97 0 0 1-.667 1.673z"/></svg>