<svg xmlns="http://www.w3.org/2000/svg" viewBox="0 0 64 64"><path d="M32.25.271c-12.233 0-22.147 9.917-22.147 22.147 0 12.236 22.147 41.31 22.147 41.31s22.147-29.074 22.147-41.31C54.397 10.189 44.48.271 32.25.271zM12.103 22.419c0-11.109 9.038-20.147 20.147-20.147s20.147 9.038 20.147 20.147c0 8.735-13.324 28.678-20.147 37.968-6.824-9.291-20.147-29.234-20.147-37.968z"/><path d="M32.25 13.56a8.86 8.86 0 0 0-8.859 8.859 8.857 8.857 0 0 0 8.859 8.859 8.86 8.86 0 0 0 0-17.718zm0 15.718c-3.782 0-6.859-3.077-6.859-6.859s3.077-6.859 6.859-6.859 6.859 3.077 6.859 6.859-3.077 6.859-6.859 6.859z"/></svg>