<svg xmlns="http://www.w3.org/2000/svg" viewBox="0 0 64 64"><path d="M37.939 55.22L33 60.159V41.305a1 1 0 1 0-2 0v18.854l-4.939-4.939a.999.999 0 1 0-1.414 1.414l6.645 6.645a.99.99 0 0 0 .326.217.991.991 0 0 0 1.09-.217l6.645-6.645a.999.999 0 1 0-1.414-1.414zM32.708.721a1.001 1.001 0 0 0-1.416 0l-6.646 6.646a.999.999 0 1 0 1.414 1.414L31 3.841v18.854a1 1 0 1 0 2 0V3.841l4.939 4.939a.997.997 0 0 0 1.414 0 .999.999 0 0 0 0-1.414L32.708.721zm30.788 31.661a1.001 1.001 0 0 0-.217-1.09l-6.646-6.646a.999.999 0 1 0-1.414 1.414l4.94 4.94H41.305a1 1 0 1 0 0 2h18.854l-4.939 4.939a.999.999 0 1 0 1.414 1.414l6.646-6.646a.999.999 0 0 0 .216-.325zM22.695 31H3.841l4.939-4.939a.999.999 0 1 0-1.414-1.414L.72 31.292a1.001 1.001 0 0 0 0 1.416l6.646 6.646a.997.997 0 0 0 1.414 0 .999.999 0 0 0 0-1.414L3.841 33h18.854a1 1 0 1 0 0-2z"/></svg>