<svg xmlns="http://www.w3.org/2000/svg" viewBox="0 0 64 64"><path d="M33.27 22.764c-10.671 0-19.352 8.68-19.352 19.349s8.681 19.349 19.352 19.349c10.669 0 19.349-8.68 19.349-19.349S43.938 22.764 33.27 22.764zm1.419 20.79v6.172a1.354 1.354 0 1 1-2.707 0v-6.172a3.58 3.58 0 0 1 1.353-6.897 3.583 3.583 0 0 1 3.583 3.583 3.578 3.578 0 0 1-2.229 3.314z" fill="none"/><path d="M42.387 22.838v-11.18c0-.314-.016-.625-.047-.931-.468-4.593-4.357-8.188-9.071-8.188-3.772 0-7.015 2.301-8.401 5.573a9.072 9.072 0 0 0-.718 3.546v11.181a21.189 21.189 0 0 1 9.12-2.074 21.164 21.164 0 0 1 9.117 2.073z" fill="none"/><path d="M44.387 23.922V11.658c0-.383-.019-.762-.057-1.135-.57-5.6-5.313-9.984-11.06-9.984h-.002c-5.748 0-10.491 4.384-11.061 9.984-.038.373-.057.752-.057 1.135v12.265c-6.124 3.757-10.231 10.495-10.231 18.19 0 11.771 9.578 21.349 21.352 21.349 11.771 0 21.349-9.577 21.349-21.349-.002-7.696-4.109-14.434-10.233-18.191zM24.149 11.658c0-1.257.256-2.456.718-3.546 1.386-3.272 4.63-5.573 8.401-5.573 4.714 0 8.603 3.596 9.071 8.188.031.306.047.617.047.931v11.18a21.175 21.175 0 0 0-9.117-2.074c-3.266 0-6.35.758-9.12 2.074v-11.18zm9.121 49.804c-10.671 0-19.352-8.68-19.352-19.349s8.681-19.349 19.352-19.349c10.669 0 19.349 8.68 19.349 19.349S43.938 61.462 33.27 61.462z"/><path d="M33.336 36.657a3.58 3.58 0 1 0-1.353 6.897v6.172a1.354 1.354 0 1 0 2.707 0v-6.172a3.58 3.58 0 0 0-1.354-6.897z"/></svg>