<svg xmlns="http://www.w3.org/2000/svg" viewBox="0 0 64 64"><path d="M35.923 45.161h-7.014c-.683 0-.735.849-.735 1.108v15.079h8.772V46.27c0-.612-.459-1.109-1.023-1.109z" fill="none"/><path d="M53.854 3.034h-42.64c-2.189 0-3.971 1.875-3.971 4.179v54.136h18.93V46.27c0-1.83 1.125-3.108 2.735-3.108h7.014c1.667 0 3.023 1.395 3.023 3.108v15.079h18.88V7.212c.001-2.304-1.78-4.178-3.971-4.178zm-29.573 30.81h-9.054a1 1 0 1 1 0-2h9.054a1 1 0 1 1 0 2zm3.752-9.054H14.451a1 1 0 1 1 0-2h13.582a1 1 0 1 1 0 2zm4.528-9.055h-18.11a1 1 0 1 1 0-2H32.56a1 1 0 0 1 .001 2z" fill="none"/><path d="M32.561 13.735h-18.11a1 1 0 1 0 0 2H32.56a1 1 0 0 0 .001-2zm-4.528 9.055H14.451a1 1 0 1 0 0 2h13.582a1 1 0 1 0 0-2zm-3.752 9.054h-9.054a1 1 0 1 0 0 2h9.054a1 1 0 1 0 0-2z"/><path d="M53.854 1.034h-42.64c-3.292 0-5.971 2.772-5.971 6.179v55.136a1 1 0 0 0 1 1h52.582a1 1 0 0 0 1-1V7.212c.001-3.406-2.678-6.178-5.971-6.178zM36.946 61.349h-8.772V46.27c0-.26.053-1.108.735-1.108h7.014c.564 0 1.023.497 1.023 1.108v15.079zm20.88 0h-18.88V46.27c0-1.714-1.356-3.108-3.023-3.108h-7.014c-1.61 0-2.735 1.278-2.735 3.108v15.079H7.244V7.212c0-2.304 1.781-4.179 3.971-4.179h42.64c2.19 0 3.972 1.875 3.972 4.179v54.137z"/></svg>