<svg xmlns="http://www.w3.org/2000/svg" viewBox="0 0 16 16"><path d="M4.143 15.614c-2.281 0-4.136-1.855-4.136-4.136s1.855-4.137 4.136-4.137S8.28 9.197 8.28 11.478s-1.856 4.136-4.137 4.136zm0-7.332c-1.762 0-3.195 1.434-3.195 3.196s1.433 3.195 3.195 3.195 3.196-1.433 3.196-3.195-1.434-3.196-3.196-3.196zm3.695-3.675c-1.27 0-2.303-1.033-2.303-2.303S6.568 0 7.838 0s2.304 1.033 2.304 2.303-1.034 2.304-2.304 2.304zm0-3.666c-.751 0-1.362.611-1.362 1.362a1.364 1.364 0 0 0 2.725 0c0-.751-.612-1.362-1.363-1.362z"/><path d="M5.201 8.402a.47.47 0 0 1-.192-.041.471.471 0 0 1-.237-.622l1.79-4.003a.47.47 0 0 1 .621-.237.471.471 0 0 1 .237.622L5.63 8.124a.469.469 0 0 1-.429.278zm8.424-.858a.47.47 0 0 1-.304-.112l-4.32-3.671a.47.47 0 1 1 .609-.717l4.32 3.671a.47.47 0 0 1-.305.829z"/><path d="M14.418 9.387c-.872 0-1.582-.71-1.582-1.582 0-.872.71-1.582 1.582-1.582.872.001 1.582.71 1.582 1.583 0 .871-.71 1.581-1.582 1.581zm0-2.223a.642.642 0 1 0 .001 1.283.642.642 0 0 0-.001-1.283z"/></svg>