<svg xmlns="http://www.w3.org/2000/svg" viewBox="0 0 64 64"><circle cx="10.185" cy="53.684" r="7.65" fill="none"/><path d="M48.317 18.821c0-8.942-7.275-16.218-16.218-16.218S15.882 9.879 15.882 18.821 23.157 35.039 32.1 35.039s16.217-7.275 16.217-16.218z" fill="none"/><circle cx="53.815" cy="53.684" r="7.65" fill="none"/><path d="M53.815 44.034a9.57 9.57 0 0 0-4.043.9l-6.841-11.499c4.471-3.323 7.386-8.628 7.386-14.614C50.317 8.776 42.144.603 32.099.603S13.882 8.776 13.882 18.821c0 5.958 2.888 11.241 7.324 14.567L14.263 44.95a9.572 9.572 0 0 0-4.078-.916c-5.32 0-9.649 4.329-9.649 9.65 0 5.32 4.329 9.649 9.649 9.649 5.321 0 9.65-4.329 9.65-9.649 0-3.147-1.521-5.939-3.86-7.702L22.87 34.5a18.079 18.079 0 0 0 9.229 2.538c3.342 0 6.467-.92 9.162-2.498l6.793 11.419c-2.356 1.761-3.89 4.564-3.89 7.725 0 5.32 4.329 9.649 9.65 9.649 5.32 0 9.649-4.329 9.649-9.649.002-5.321-4.327-9.65-9.648-9.65zm-35.98 9.651c0 4.218-3.432 7.649-7.65 7.649s-7.649-3.432-7.649-7.649c0-4.219 3.432-7.65 7.649-7.65 4.218-.001 7.65 3.431 7.65 7.65zm-1.953-34.864c0-8.942 7.275-16.218 16.218-16.218s16.218 7.275 16.218 16.218S41.042 35.039 32.1 35.039s-16.218-7.275-16.218-16.218zm37.933 42.513c-4.219 0-7.65-3.432-7.65-7.649 0-4.219 3.432-7.65 7.65-7.65s7.649 3.432 7.649 7.65c.001 4.217-3.431 7.649-7.649 7.649z"/></svg>