<svg xmlns="http://www.w3.org/2000/svg" viewBox="0 0 64 64"><path d="M35.505 63.562h-7.008c-1.942 0-3.522-1.563-3.522-3.484v-3.634a1.48 1.48 0 0 0-.929-1.367l-2.621-1.079a1.54 1.54 0 0 0-1.673.322l-2.616 2.578a3.557 3.557 0 0 1-4.971-.001L7.21 52.016a3.44 3.44 0 0 1-1.036-2.467c0-.934.368-1.811 1.036-2.47l2.608-2.57a1.455 1.455 0 0 0 .329-1.602l-1.078-2.589a1.517 1.517 0 0 0-1.41-.926h-3.7c-1.941 0-3.521-1.562-3.521-3.483v-7.818c0-1.921 1.58-3.484 3.521-3.484h3.689c.618 0 1.17-.359 1.405-.916l1.098-2.583a1.454 1.454 0 0 0-.324-1.611L7.21 16.92c-.668-.659-1.036-1.536-1.036-2.469s.368-1.81 1.036-2.469l4.955-4.881a3.558 3.558 0 0 1 4.97 0l2.609 2.569c.436.43 1.09.56 1.663.327l2.628-1.062c.571-.23.939-.769.939-1.371V3.921c0-1.921 1.58-3.484 3.522-3.484h7.008c1.941 0 3.521 1.563 3.521 3.484v3.634c0 .598.365 1.134.93 1.367l2.62 1.08c.579.238 1.234.11 1.673-.322l2.616-2.578a3.558 3.558 0 0 1 4.971 0l4.956 4.881c.668.658 1.036 1.535 1.036 2.468s-.368 1.81-1.036 2.469l-2.608 2.569a1.456 1.456 0 0 0-.33 1.603l1.078 2.589c.234.562.788.926 1.411.926h3.698c1.941 0 3.521 1.563 3.521 3.484v7.818c0 1.921-1.58 3.483-3.521 3.483h-3.688c-.618 0-1.17.359-1.405.916L53.85 42.89a1.455 1.455 0 0 0 .324 1.611l2.617 2.577c.669.66 1.037 1.536 1.037 2.47s-.368 1.81-1.036 2.469l-4.956 4.882a3.558 3.558 0 0 1-4.97 0l-2.609-2.571a1.54 1.54 0 0 0-1.663-.326l-2.628 1.062c-.571.23-.939.769-.939 1.371v3.645c-.001 1.919-1.581 3.482-3.522 3.482zM20.829 51.879c.457 0 .917.089 1.357.27l2.621 1.079a3.477 3.477 0 0 1 2.167 3.217v3.634c0 .818.683 1.484 1.522 1.484h7.008c.839 0 1.521-.666 1.521-1.484v-3.645c0-1.422.859-2.688 2.19-3.226l2.627-1.061a3.54 3.54 0 0 1 3.817.755l2.608 2.571a1.55 1.55 0 0 0 2.162 0l4.956-4.882a1.458 1.458 0 0 0 0-2.089l-2.616-2.576a3.444 3.444 0 0 1-.763-3.818l1.098-2.581a3.51 3.51 0 0 1 3.246-2.135h3.688c.839 0 1.521-.665 1.521-1.483v-7.818c0-.818-.683-1.484-1.521-1.484H56.34a3.512 3.512 0 0 1-3.257-2.157l-1.078-2.59a3.447 3.447 0 0 1 .772-3.796l2.607-2.569a1.456 1.456 0 0 0 0-2.087l-4.956-4.881a1.549 1.549 0 0 0-2.163 0l-2.615 2.577a3.541 3.541 0 0 1-3.839.748l-2.62-1.08a3.475 3.475 0 0 1-2.168-3.216V3.921c0-.818-.683-1.484-1.521-1.484h-7.008c-.84 0-1.522.666-1.522 1.484v3.645a3.47 3.47 0 0 1-2.189 3.225l-2.628 1.062a3.543 3.543 0 0 1-3.817-.756L15.73 8.528a1.547 1.547 0 0 0-2.162 0l-4.955 4.881a1.456 1.456 0 0 0 0 2.088l2.616 2.578a3.442 3.442 0 0 1 .761 3.819l-1.097 2.581a3.511 3.511 0 0 1-3.246 2.134H3.959c-.839 0-1.521.666-1.521 1.484v7.818c0 .818.683 1.483 1.521 1.483h3.7a3.51 3.51 0 0 1 3.256 2.157l1.078 2.589a3.446 3.446 0 0 1-.771 3.796l-2.608 2.569a1.456 1.456 0 0 0 0 2.088l4.955 4.882a1.549 1.549 0 0 0 2.163-.001l2.615-2.577a3.53 3.53 0 0 1 2.482-1.018z"/><path d="M32 45.338c-7.458 0-13.525-5.983-13.525-13.338 0-7.355 6.067-13.338 13.525-13.338S45.525 24.645 45.525 32c0 7.354-6.067 13.338-13.525 13.338zm0-24.676c-6.355 0-11.525 5.086-11.525 11.338S25.645 43.338 32 43.338 43.525 38.252 43.525 32 38.355 20.662 32 20.662z"/></svg>