<svg xmlns="http://www.w3.org/2000/svg" viewBox="0 0 64 64"><path d="M38.834 44.454a.999.999 0 0 1-.709-1.706L48.83 32 38.125 21.25a1 1 0 1 1 1.418-1.411L50.95 31.294a1 1 0 0 1 0 1.411L39.543 44.16a1.001 1.001 0 0 1-.709.294zm-13.319 0a.999.999 0 0 1-.709-.294L13.397 32.706a1 1 0 0 1 0-1.411L24.805 19.84a1 1 0 1 1 1.418 1.411L15.518 32l10.706 10.748a1.001 1.001 0 0 1-.709 1.706zm36.957 18.185a1 1 0 0 1-1-1V2.362a1 1 0 1 1 2 0v59.277a1 1 0 0 1-1 1zm-60.944 0a1 1 0 0 1-1-1V2.362a1 1 0 1 1 2 0v59.277a1 1 0 0 1-1 1z"/></svg>