<svg xmlns="http://www.w3.org/2000/svg" viewBox="0 0 64 64"><path d="M32.125 2.771c-16.1 0-29.197 13.098-29.197 29.198s13.098 29.197 29.197 29.197 29.197-13.098 29.197-29.197S48.225 2.771 32.125 2.771zm-9.174 37.893a.997.997 0 0 1-1.413.053l-8.963-8.297a.999.999 0 0 1 .027-1.491l8.963-7.733a1 1 0 1 1 1.306 1.515l-8.116 7.002 8.143 7.538a1 1 0 0 1 .053 1.413zm13.547-19.992L29.67 43.831a1 1 0 1 1-1.918-.566l6.828-23.158a.997.997 0 0 1 1.242-.676c.53.155.832.712.676 1.241zM51.675 32.42l-8.963 8.297a.995.995 0 0 1-.68.267.998.998 0 0 1-.679-1.733l8.143-7.538-8.116-7.002a1 1 0 0 1 1.306-1.515l8.963 7.733a1 1 0 0 1 .026 1.491z" fill="none"/><path d="M35.822 19.431a.998.998 0 0 0-1.242.676l-6.828 23.158a1 1 0 1 0 1.918.566l6.828-23.159a.998.998 0 0 0-.676-1.241z"/><path d="M32.125.771C14.923.771.928 14.766.928 31.969c0 17.202 13.995 31.197 31.197 31.197s31.197-13.995 31.197-31.197C63.322 14.766 49.327.771 32.125.771zm0 60.395c-16.1 0-29.197-13.098-29.197-29.197S16.025 2.771 32.125 2.771s29.197 13.098 29.197 29.198-13.097 29.197-29.197 29.197z"/><path d="M14.755 31.713l8.116-7.002a1 1 0 0 0-1.306-1.515l-8.963 7.733a1 1 0 0 0-.027 1.491l8.963 8.297a.995.995 0 0 0 .68.267.998.998 0 0 0 .679-1.733l-8.142-7.538zm27.931-8.517a1 1 0 1 0-1.306 1.515l8.116 7.002-8.143 7.538a1 1 0 1 0 1.359 1.466l8.963-8.297a.999.999 0 0 0-.027-1.491l-8.962-7.733z"/></svg>