<svg xmlns="http://www.w3.org/2000/svg" viewBox="0 0 64 64"><path d="M50.484 26.421c0-13.181-10.724-23.904-23.905-23.904-13.181 0-23.904 10.723-23.904 23.904s10.724 23.905 23.904 23.905c13.182 0 23.905-10.723 23.905-23.905zM20.48 36.635a.999.999 0 1 1-1.435 1.39l-10.5-10.839a1 1 0 0 1 0-1.392l10.5-10.839a.999.999 0 1 1 1.435 1.392L10.655 26.49l9.825 10.145zm12.916 1.664a1 1 0 0 1-.718-1.695l9.825-10.144-9.825-10.143a1 1 0 0 1 1.437-1.392l10.499 10.839a1.002 1.002 0 0 1 0 1.392L34.115 37.994a.997.997 0 0 1-.719.305z" fill="none"/><path d="M63.282 61.709L45.579 44.006c4.282-4.623 6.905-10.802 6.905-17.584C52.484 12.139 40.863.518 26.579.518 12.296.518.675 12.139.675 26.422c0 14.284 11.621 25.905 25.904 25.905 6.783 0 12.963-2.624 17.586-6.906l17.703 17.703a.997.997 0 0 0 1.414 0 1 1 0 0 0 0-1.415zM2.675 26.421c0-13.181 10.724-23.904 23.904-23.904 13.182 0 23.905 10.723 23.905 23.904S39.76 50.326 26.579 50.326c-13.181 0-23.904-10.723-23.904-23.905z"/><path d="M44.614 25.764L34.115 14.925a1 1 0 0 0-1.437 1.392l9.825 10.143-9.825 10.144a1 1 0 1 0 1.437 1.39l10.499-10.839a1 1 0 0 0 0-1.391zm-24.156-10.83a1 1 0 0 0-1.413.022l-10.5 10.839a1 1 0 0 0 0 1.392l10.5 10.839a.996.996 0 0 0 1.413.024.999.999 0 0 0 .022-1.414l-9.825-10.144 9.825-10.143a1 1 0 0 0-.022-1.415z"/></svg>