<svg xmlns="http://www.w3.org/2000/svg" viewBox="0 0 24 24"><path d="M6.224 23.499C2.792 23.499 0 20.707 0 17.275s2.792-6.224 6.224-6.224 6.224 2.792 6.224 6.224-2.792 6.224-6.224 6.224zm0-11.037c-2.653 0-4.812 2.159-4.812 4.812s2.159 4.812 4.812 4.812 4.812-2.159 4.812-4.812-2.158-4.812-4.812-4.812zm5.562-5.532c-1.911 0-3.465-1.554-3.465-3.465S9.875 0 11.786 0s3.465 1.554 3.465 3.465-1.554 3.465-3.465 3.465zm0-5.518c-1.132 0-2.053.921-2.053 2.053s.921 2.053 2.053 2.053 2.053-.921 2.053-2.053-.92-2.053-2.053-2.053z"/><path d="M7.816 12.643a.705.705 0 0 1-.644-.994l2.694-6.026a.705.705 0 1 1 1.288.576L8.46 12.225a.702.702 0 0 1-.644.418zm12.258-1.653a.7.7 0 0 1-.456-.168l-6.08-5.165a.706.706 0 0 1 .914-1.076l6.08 5.165a.706.706 0 0 1-.458 1.244z"/><path d="M21.691 13.979a2.312 2.312 0 0 1-2.309-2.309c0-1.192.993-2.091 2.309-2.091 1.317 0 2.309.899 2.309 2.091a2.312 2.312 0 0 1-2.309 2.309zm0-2.989c-.361 0-.898.181-.898.679a.9.9 0 0 0 1.796 0c-.001-.498-.538-.679-.898-.679z"/></svg>