<svg xmlns="http://www.w3.org/2000/svg" viewBox="0 0 64 64"><path d="M32.333 15.543c4.254 0 7.715-3.46 7.715-7.714 0-4.253-3.461-7.714-7.715-7.714s-7.714 3.46-7.714 7.714c0 4.254 3.46 7.714 7.714 7.714zm0-13.428c3.151 0 5.715 2.563 5.715 5.714s-2.563 5.714-5.715 5.714c-3.15 0-5.714-2.563-5.714-5.714s2.564-5.714 5.714-5.714zm0 22.171c-4.254 0-7.714 3.46-7.714 7.714 0 4.254 3.46 7.714 7.714 7.714s7.715-3.46 7.715-7.714c0-4.253-3.461-7.714-7.715-7.714zm0 13.428A5.72 5.72 0 0 1 26.619 32a5.72 5.72 0 0 1 5.714-5.714A5.721 5.721 0 0 1 38.048 32a5.722 5.722 0 0 1-5.715 5.714zm0 10.743c-4.254 0-7.714 3.46-7.714 7.714s3.46 7.714 7.714 7.714 7.715-3.46 7.715-7.714-3.461-7.714-7.715-7.714zm0 13.428c-3.15 0-5.714-2.563-5.714-5.714s2.563-5.714 5.714-5.714c3.151 0 5.715 2.563 5.715 5.714s-2.564 5.714-5.715 5.714z"/></svg>