<svg xmlns="http://www.w3.org/2000/svg" viewBox="0 0 24 24"><path d="M2.019 11.547l7.544-6.212a.748.748 0 0 0 .102-1.051.748.748 0 0 0-1.051-.101L.37 10.971a.746.746 0 0 0 0 1.152l8.244 6.789a.746.746 0 0 0 .949-1.152l-7.544-6.213z"/><path d="M18.598 10.754h-10.1l6.58-5.419a.748.748 0 0 0 .102-1.051.749.749 0 0 0-1.051-.102l-8.243 6.789a.746.746 0 0 0 0 1.152l8.243 6.789a.746.746 0 0 0 .949-1.152l-6.695-5.514h10.215a3.746 3.746 0 0 1 3.741 3.741.746.746 0 0 0 1.492 0 5.24 5.24 0 0 0-5.233-5.233z"/></svg>