<svg xmlns="http://www.w3.org/2000/svg" viewBox="0 0 24 24"><path d="M12 22.392a.744.744 0 0 1-.53-.22l-9.415-9.415A6.322 6.322 0 0 1 .19 8.255c0-1.701.663-3.3 1.865-4.502a6.376 6.376 0 0 1 9.005 0l.94.939.94-.94a6.376 6.376 0 0 1 9.005 0 6.325 6.325 0 0 1 1.865 4.502c0 1.701-.663 3.3-1.865 4.502l-9.415 9.415a.745.745 0 0 1-.53.221zM6.557 3.387c-1.3 0-2.522.506-3.442 1.426S1.689 6.954 1.689 8.254s.506 2.522 1.426 3.442L12 20.581l8.885-8.885c.919-.919 1.426-2.142 1.426-3.442s-.506-2.522-1.426-3.442-2.142-1.426-3.442-1.426-2.522.506-3.442 1.426L12.53 6.283a.75.75 0 0 1-1.061 0l-1.47-1.471a4.836 4.836 0 0 0-3.442-1.425z"/></svg>