<svg xmlns="http://www.w3.org/2000/svg" viewBox="0 0 64 64"><path d="M16.45 63.844C7.38 63.844 0 56.465 0 47.393c0-9.07 7.38-16.45 16.45-16.45 9.071 0 16.451 7.38 16.451 16.45 0 9.072-7.38 16.451-16.451 16.451zm0-30.904c-7.97 0-14.453 6.483-14.453 14.453S8.48 61.848 16.45 61.848s14.454-6.484 14.454-14.454S24.42 32.94 16.45 32.94zm15.575-15.492c-4.81 0-8.724-3.914-8.724-8.724S27.215 0 32.025 0c4.811 0 8.725 3.913 8.725 8.724s-3.914 8.724-8.725 8.724zm0-15.452c-3.71 0-6.727 3.018-6.727 6.728s3.017 6.728 6.727 6.728 6.728-3.019 6.728-6.728-3.018-6.728-6.728-6.728z"/><path d="M20.909 33.445a.997.997 0 0 1-.911-1.406l7.544-16.872a.999.999 0 1 1 1.823.816l-7.544 16.872a.998.998 0 0 1-.912.59zm36.626-2.67a.994.994 0 0 1-.646-.238l-19.327-16.42a.998.998 0 0 1 1.293-1.521l19.327 16.42a.998.998 0 0 1-.647 1.759z"/><path d="M59.76 36.001c-2.252 0-4.084-1.833-4.084-4.085s1.833-4.085 4.084-4.085c2.253 0 4.085 1.833 4.085 4.085s-1.833 4.085-4.085 4.085zm0-6.174c-1.151 0-2.088.937-2.088 2.088s.936 2.088 2.088 2.088c1.151 0 2.088-.937 2.088-2.088s-.937-2.088-2.088-2.088z"/></svg>