<svg xmlns="http://www.w3.org/2000/svg" viewBox="0 0 16 16"><path d="M13.959 5.942a.5.5 0 0 0-.5-.5h-9.23L5.932 3.77a.5.5 0 0 0-.7-.714L2.656 5.585l-.001.002a.495.495 0 0 0 .001.712l2.576 2.529a.5.5 0 0 0 .7-.714L4.229 6.442h9.23a.5.5 0 0 0 .5-.5z"/><path d="M11.79.191H4.21C1.918.191.054 2.025.054 4.28v3.754c0 2.255 1.864 4.089 4.156 4.089h3.316a.5.5 0 0 0 0-1H4.21c-1.74 0-3.156-1.386-3.156-3.089V4.28c0-1.703 1.416-3.089 3.156-3.089h7.58c1.74 0 3.156 1.386 3.156 3.089v3.754c0 1.703-1.416 3.089-3.156 3.089h-1.7a.501.501 0 0 0-.436.255l-2.077 3.687a.5.5 0 1 0 .871.49l1.934-3.432h1.408c2.292 0 4.156-1.834 4.156-4.089V4.28c0-2.255-1.864-4.089-4.156-4.089z"/></svg>