<svg xmlns="http://www.w3.org/2000/svg" viewBox="0 0 24 24"><path d="M8.754 14.014H6.546v.109l3.074 3.269c.019.02.026.046.042.067h2.375l-3.283-3.445zm5.209-3.284v1.422c0 .273-.062.531-.169.765l3.614 3.726v-2.297l-3.445-3.616zm-1.861 1.909a.487.487 0 0 0 .486-.486v-9.89a.487.487 0 0 0-.486-.486H2.213a.487.487 0 0 0-.487.486v9.89c0 .268.218.486.487.486h9.889zm.705 1.234a1.859 1.859 0 0 1-.705.141h-1.448l3.284 3.445h2.347l-3.478-3.586zm4.602-1.52V10.13l-3.323-3.533h-.123v2.141zm0-4.231V6.79a.193.193 0 0 0-.193-.193h-1.241l1.434 1.525zM6.546 16.129v1.136c0 .106.086.193.193.193h1.058l-1.251-1.329z" fill="none"/><path d="M22.036 10.042h-1.629a.688.688 0 1 0 0 1.376h1.629c.106 0 .193.086.193.193v10.476a.193.193 0 0 1-.193.193H11.56a.194.194 0 0 1-.193-.193v-1.543a.688.688 0 1 0-1.376 0v1.543a1.57 1.57 0 0 0 1.568 1.568h10.476a1.57 1.57 0 0 0 1.568-1.568V11.61a1.568 1.568 0 0 0-1.567-1.568z"/><path d="M17.216 18.834a1.57 1.57 0 0 0 1.568-1.568v-3.144a.683.683 0 0 0 0-.064V6.79a1.57 1.57 0 0 0-1.568-1.568h-3.252V2.263A1.863 1.863 0 0 0 12.103.402h-9.89A1.864 1.864 0 0 0 .351 2.263v9.89c0 1.026.835 1.861 1.862 1.861h2.958v3.252a1.57 1.57 0 0 0 1.568 1.568h10.477zm-7.595-1.442l-3.074-3.269v-.109h2.208l3.284 3.445H9.662c-.016-.022-.023-.047-.041-.067zm1.033-3.378h1.448c.25 0 .487-.051.705-.141l3.478 3.586h-2.347l-3.284-3.445zm3.432-7.417l3.322 3.533v2.223l-3.445-3.615V6.597h.123zm-.291 6.32c.106-.234.169-.491.169-.765V10.73l3.445 3.615v2.297l-3.614-3.725zm3.614-6.127v1.332l-1.434-1.525h1.241c.106 0 .193.086.193.193zM1.726 12.152v-9.89c0-.268.218-.486.487-.486h9.889c.268 0 .486.218.486.486v9.89a.487.487 0 0 1-.486.486H2.213a.486.486 0 0 1-.487-.486zm4.82 5.114V16.13l1.25 1.33H6.739a.195.195 0 0 1-.193-.194z"/></svg>