<svg xmlns="http://www.w3.org/2000/svg" viewBox="0 0 64 64"><path fill="none" d="M49.775 35.964l4.505-4.505 5.986 5.986-4.505 4.505zM32.572 54.156l-1.999 6.993 6.995-1.997zm.919-1.911l14.87-14.87 5.985 5.985-14.87 14.87zm2.386-38.056c0 .992.807 1.799 1.799 1.799h9.585L35.877 4.605v9.584z"/><path d="M62.681 37.445a.996.996 0 0 0-.293-.707l-7.399-7.4a.999.999 0 0 0-1.414 0L31.37 51.54a.986.986 0 0 0-.195.294c-.011.025-.022.048-.031.073-.008.022-.021.042-.028.065l-2.96 10.358a.997.997 0 0 0 .962 1.274c.092 0 .185-.013.274-.038l10.359-2.959c.023-.007.043-.02.065-.028.025-.009.048-.02.073-.031a.986.986 0 0 0 .294-.195l16.283-16.281.002-.002.002-.002 5.917-5.917a.993.993 0 0 0 .294-.706zM39.477 58.232l-5.985-5.985 14.87-14.869 5.985 5.985-14.87 14.869zm-6.905-4.076l4.996 4.996-6.994 1.998 1.998-6.994zM55.761 41.95l-5.985-5.985 4.505-4.505 5.985 5.986-4.505 4.504z"/><path d="M23.999 58.646H5.119c-.992 0-1.8-.808-1.8-1.8V4.99c0-.992.808-1.8 1.8-1.8h28.598c.054 0 .107.011.16.016v10.983a3.803 3.803 0 0 0 3.799 3.799h10.687c.101 0 .194-.03.286-.058.009.073.021.146.021.22l-.049 9.445a1 1 0 0 0 .995 1.005h.005a1 1 0 0 0 1-.995l.049-9.445a3.823 3.823 0 0 0-1.112-2.706L36.404 2.304a3.825 3.825 0 0 0-2.688-1.114H5.119a3.804 3.804 0 0 0-3.8 3.8v51.857c0 2.096 1.704 3.8 3.8 3.8h18.88a1 1 0 1 0 0-2.001zm23.262-42.657h-9.585a1.801 1.801 0 0 1-1.799-1.799V4.605l11.384 11.384z"/></svg>