<svg width="24" height="24" viewBox="0 0 24 24" xmlns="http://www.w3.org/2000/svg"><title>Configure_24</title><g fill-rule="evenodd"><path d="M22.161.5a.75.75 0 0 0-.958-.085l-3.398 2.361a.75.75 0 0 0-.102 1.146l.707.708-9.482 9.482-1.506-1.507a.75.75 0 1 0-1.061 1.061l.481.481-5.099 5.371a2.179 2.179 0 0 0-.641 1.548c0 .584.228 1.134.64 1.546.413.414.962.643 1.547.644h.001c.586 0 1.136-.229 1.55-.643l.013-.014 5.084-5.354.492.493a.748.748 0 0 0 1.28-.53.75.75 0 0 0-.22-.531l-1.503-1.503 9.482-9.482.606.605c.14.14.331.22.53.219.018 0 .036 0 .054-.002a.752.752 0 0 0 .547-.299l2.463-3.294a.75.75 0 0 0-.07-.979L22.161.5zM3.773 21.557a.686.686 0 0 1-.968-.006.684.684 0 0 1-.202-.486c0-.183.072-.357.215-.501l5.065-5.335.975.975-5.085 5.353zM20.524 4.622l-1.127-1.126 2.146-1.491.537.537-1.556 2.08z"/><path d="M6.104 9.292l2.581 2.574a.747.747 0 0 0 1.061-.001.751.751 0 0 0-.001-1.061L6.828 7.895a.75.75 0 0 0-.823-.159 3.071 3.071 0 0 1-3.388-.641 3.05 3.05 0 0 1-.901-2.207l1.023.948c.139.129.321.2.51.2h1.919a.75.75 0 0 0 .75-.75V3.367a.752.752 0 0 0-.189-.498l-.956-1.078a3.06 3.06 0 0 1 2.211.902 3.074 3.074 0 0 1 .658 3.389.752.752 0 0 0 .161.823l2.743 2.742a.75.75 0 1 0 1.061-1.061L9.199 6.18a4.566 4.566 0 0 0-1.154-4.548C6.709.299 4.809-.077 3.083.652a.752.752 0 0 0-.27 1.188l1.605 1.811v.885h-.876L1.777 2.899a.75.75 0 0 0-1.201.258 4.54 4.54 0 0 0 .979 4.998 4.555 4.555 0 0 0 4.549 1.137zm11.65 5.441l-2.398-2.399a.75.75 0 0 0-1.061 1.06l2.733 2.735a.751.751 0 0 0 .823.16 3.075 3.075 0 0 1 3.389.659c.61.61.924 1.424.904 2.25L21.03 18.17a.75.75 0 0 0-.509-.199h-1.919a.75.75 0 0 0-.75.75v1.919a.75.75 0 0 0 .21.521l1.022 1.061c-.803-.014-1.611-.304-2.212-.904a3.078 3.078 0 0 1-.659-3.39.75.75 0 0 0-.161-.822l-2.933-2.934a.75.75 0 1 0-1.061 1.061l2.597 2.598a4.567 4.567 0 0 0 1.155 4.548 4.565 4.565 0 0 0 3.236 1.345c.604 0 1.215-.12 1.798-.365a.75.75 0 0 0 .248-1.212l-1.742-1.808v-.866h.876l1.852 1.709a.75.75 0 0 0 1.2-.258 4.57 4.57 0 0 0-.979-5.033 4.563 4.563 0 0 0-4.545-1.158z"/></g></svg>