<svg xmlns="http://www.w3.org/2000/svg" viewBox="0 0 16 16"><circle cx="8.024" cy="4.833" r="3.616" fill="none"/><circle cx="13.215" cy="13.168" r="1.568" fill="none"/><circle cx="2.785" cy="13.168" r="1.568" fill="none"/><path d="M13.215 10.601c-.3 0-.584.061-.852.157l-1.417-2.381c1.025-.847 1.694-2.112 1.694-3.543 0-2.545-2.071-4.616-4.616-4.616s-4.616 2.07-4.616 4.615c0 1.424.662 2.683 1.679 3.531l-1.44 2.396a2.546 2.546 0 0 0-.862-.16c-1.416 0-2.568 1.151-2.568 2.567s1.152 2.568 2.568 2.568 2.568-1.152 2.568-2.568c0-.752-.331-1.423-.848-1.893L5.92 8.918a4.557 4.557 0 0 0 2.104.531c.755 0 1.457-.199 2.086-.522l1.393 2.341a2.554 2.554 0 0 0-.856 1.9c0 1.416 1.152 2.568 2.568 2.568s2.568-1.152 2.568-2.568-1.152-2.567-2.568-2.567zm-10.43 4.135a1.57 1.57 0 0 1-1.568-1.568 1.569 1.569 0 0 1 3.136 0 1.57 1.57 0 0 1-1.568 1.568zm1.623-9.903c0-1.994 1.622-3.616 3.616-3.616s3.616 1.622 3.616 3.616S10.018 8.45 8.024 8.45 4.408 6.828 4.408 4.833zm8.807 9.903a1.57 1.57 0 0 1-1.568-1.568 1.569 1.569 0 0 1 3.136 0 1.57 1.57 0 0 1-1.568 1.568z"/></svg>