<svg xmlns="http://www.w3.org/2000/svg" viewBox="0 0 24 24"><circle cx="13.956" cy="5.028" r=".589" fill="none"/><circle cx="9.485" cy="12.807" r="1.224" fill="none"/><circle cx="17.53" cy="8.092" r=".589" fill="none"/><path d="M12.084 12.807c0 1.433-1.166 2.598-2.599 2.598s-2.599-1.165-2.599-2.598 1.166-2.599 2.599-2.599c.223 0 .436.037.642.09l1.349-2.276a6.105 6.105 0 0 0-3.709-1.256 6.155 6.155 0 0 0-6.148 6.148c0 3.391 2.758 6.148 6.148 6.148s6.148-2.758 6.148-6.148a6.116 6.116 0 0 0-1.417-3.92l-1.174 1.98c.47.47.76 1.118.76 1.833z" fill="none"/><circle cx="20.849" cy="2.219" r=".589" fill="none"/><path d="M20.849.255a1.966 1.966 0 0 0-1.964 1.964c0 .479.179.913.465 1.254l-1.517 2.685a1.886 1.886 0 0 0-.303-.031c-.343 0-.661.096-.942.252l-.794-.681c.077-.21.126-.434.126-.671 0-1.083-.881-1.964-1.964-1.964s-1.964.881-1.964 1.964c0 .496.191.944.495 1.29l-.307.518a7.471 7.471 0 0 0-4.413-1.444c-4.148 0-7.523 3.375-7.523 7.523s3.375 7.523 7.523 7.523a7.49 7.49 0 0 0 4.807-1.742l4.585 4.585a.687.687 0 1 0 .972-.973l-4.585-4.585a7.49 7.49 0 0 0-.317-9.964l.47-.792c.084.011.168.026.255.026.343 0 .661-.096.942-.251l.794.681a1.94 1.94 0 0 0-.125.67c0 1.083.881 1.964 1.964 1.964s1.964-.881 1.964-1.964c0-.479-.179-.913-.465-1.254l1.517-2.685c.099.016.199.031.303.031 1.083 0 1.964-.881 1.964-1.964S21.932.255 20.849.255zm-6.933 12.659c0 3.391-2.758 6.148-6.148 6.148S1.62 16.304 1.62 12.914a6.155 6.155 0 0 1 6.148-6.148c1.394 0 2.677.472 3.709 1.256l-1.349 2.276a2.564 2.564 0 0 0-.642-.09c-1.433 0-2.599 1.166-2.599 2.599s1.166 2.598 2.599 2.598 2.599-1.165 2.599-2.598c0-.715-.29-1.363-.759-1.833l1.174-1.98a6.123 6.123 0 0 1 1.416 3.92zm-3.207-.107a1.225 1.225 0 0 1-2.448 0c0-.675.549-1.224 1.224-1.224s1.224.549 1.224 1.224zm2.658-7.779a.59.59 0 1 1 1.179 0 .59.59 0 0 1-1.179 0zm4.163 3.653a.59.59 0 1 1 0-1.179.59.59 0 0 1 0 1.179zm3.319-5.872a.59.59 0 1 1 0-1.179.59.59 0 0 1 0 1.179z"/></svg>