<svg xmlns="http://www.w3.org/2000/svg" viewBox="0 0 24 24"><path d="M14.38.365a11.932 11.932 0 0 0-2.415-.247C5.405.118.085 5.437.085 11.998s5.32 11.88 11.88 11.88c.418 0 .831-.023 1.238-.065 5.985-.604 10.672-5.671 10.672-11.813 0-5.733-4.084-10.53-9.495-11.635zM12 22.375C6.279 22.375 1.625 17.721 1.625 12S6.279 1.625 12 1.625c.708 0 1.399.072 2.067.208 4.719.975 8.278 5.162 8.278 10.166 0 5.359-4.082 9.781-9.299 10.323-.344.035-.693.053-1.046.053z"/><circle cx="11.965" cy="6.302" r=".797"/><path d="M11.965 8.788a.75.75 0 0 0-.75.75v9.302a.75.75 0 0 0 1.5 0V9.538a.75.75 0 0 0-.75-.75z"/></svg>