<svg xmlns="http://www.w3.org/2000/svg" viewBox="0 0 24 24"><path fill="none" d="M10.842 21.99h2.335v-4.976h-2.325z"/><path d="M19.593 2.009H4.407c-.562 0-1.021.491-1.021 1.095V21.99H9.34v-4.977c0-.869.575-1.5 1.368-1.5h2.498c.811 0 1.471.673 1.471 1.5v4.977h5.937V3.104c0-.604-.458-1.095-1.021-1.095zM9.061 12.982H5.836a.75.75 0 0 1 0-1.5h3.225a.75.75 0 0 1 0 1.5zm1.335-3.224H5.56a.75.75 0 0 1 0-1.5h4.837a.75.75 0 1 1-.001 1.5zm1.613-3.225H5.56a.75.75 0 0 1 0-1.5h6.449a.75.75 0 0 1 0 1.5z" fill="none"/><path d="M12.009 5.033H5.56a.75.75 0 0 0 0 1.5h6.449a.75.75 0 0 0 0-1.5zm-1.613 3.225H5.56a.75.75 0 0 0 0 1.5h4.837a.75.75 0 1 0-.001-1.5zm-1.335 3.224H5.836a.75.75 0 0 0 0 1.5h3.225a.75.75 0 0 0 0-1.5z"/><path d="M19.593.509H4.407c-1.39 0-2.521 1.164-2.521 2.595V22.74c0 .414.336.75.75.75h18.728a.75.75 0 0 0 .75-.75V3.104c0-1.431-1.131-2.595-2.521-2.595zM13.177 21.99h-2.336l.01-4.977h2.325v4.977zm7.437 0h-5.937v-4.977c0-.827-.66-1.5-1.471-1.5h-2.498c-.793 0-1.368.631-1.368 1.5v4.977H3.386V3.104c0-.604.458-1.095 1.021-1.095h15.187c.562 0 1.021.491 1.021 1.095V21.99z"/></svg>