<svg xmlns="http://www.w3.org/2000/svg" viewBox="0 0 24 24"><circle cx="4.284" cy="19.735" r="2.343" fill="none"/><circle cx="12.121" cy="7.267" r="5.408" fill="none"/><circle cx="19.888" cy="19.735" r="2.343" fill="none"/><path d="M19.888 15.892c-.449 0-.874.092-1.275.234l-2.1-3.53a6.897 6.897 0 0 0 2.516-5.329c0-3.809-3.099-6.908-6.907-6.908a6.916 6.916 0 0 0-6.908 6.908 6.9 6.9 0 0 0 2.494 5.309L5.573 16.13a3.786 3.786 0 0 0-1.29-.239c-2.119 0-3.843 1.725-3.843 3.844s1.724 3.843 3.843 3.843a3.848 3.848 0 0 0 3.844-3.843 3.823 3.823 0 0 0-1.268-2.833l2.102-3.5a6.851 6.851 0 0 0 6.293.012l2.069 3.478a3.82 3.82 0 0 0-1.28 2.842 3.848 3.848 0 0 0 3.844 3.843c2.119 0 3.843-1.724 3.843-3.843s-1.723-3.842-3.842-3.842zM4.284 22.078c-1.292 0-2.343-1.051-2.343-2.343s1.051-2.344 2.343-2.344 2.344 1.052 2.344 2.344-1.052 2.343-2.344 2.343zm2.43-14.811a5.414 5.414 0 0 1 5.408-5.408c2.981 0 5.407 2.426 5.407 5.408s-2.426 5.408-5.407 5.408a5.414 5.414 0 0 1-5.408-5.408zm13.174 14.811c-1.292 0-2.344-1.051-2.344-2.343s1.051-2.344 2.344-2.344c1.292 0 2.343 1.052 2.343 2.344s-1.051 2.343-2.343 2.343z"/></svg>