<svg xmlns="http://www.w3.org/2000/svg" viewBox="0 0 24 24"><path d="M9.485 24H.522a.55.55 0 0 1-.549-.549v-8.963a.55.55 0 0 1 .549-.549h8.963a.55.55 0 0 1 .549.549v8.963a.55.55 0 0 1-.549.549zm-8.414-1.098h7.865v-7.865H1.071v7.865zM23.503 24H14.54a.55.55 0 0 1-.549-.549v-8.963a.55.55 0 0 1 .549-.549h8.963a.55.55 0 0 1 .549.549v8.963a.55.55 0 0 1-.549.549zm-8.414-1.098h7.865v-7.865h-7.865v7.865zm1.417-12.844H7.543a.55.55 0 0 1-.549-.549V.545a.55.55 0 0 1 .549-.549h8.963a.55.55 0 0 1 .549.549v8.963a.55.55 0 0 1-.549.55zM8.092 8.96h7.865V1.094H8.092V8.96z"/><path d="M19.05 15.037a.55.55 0 0 1-.549-.549v-1.891H5.548v1.891a.55.55 0 0 1-1.098 0v-2.44a.55.55 0 0 1 .549-.549H19.05a.55.55 0 0 1 .549.549v2.44a.55.55 0 0 1-.549.549z"/><path d="M12.025 12.458a.55.55 0 0 1-.549-.549v-2.4a.55.55 0 0 1 1.098 0v2.4a.55.55 0 0 1-.549.549zm2.515-8.905H9.56a.55.55 0 0 1 0-1.098h4.98a.55.55 0 0 1 0 1.098zm7 13.942h-4.979a.55.55 0 0 1 0-1.098h4.979a.55.55 0 0 1 0 1.098zm-14.047 0H2.514a.55.55 0 0 1 0-1.098h4.979a.55.55 0 0 1 0 1.098z"/></svg>