<svg xmlns="http://www.w3.org/2000/svg" viewBox="0 0 16 16"><path d="M7.972 10.558a.494.494 0 0 1-.378-.174L4.396 6.677a.5.5 0 1 1 .757-.653l2.803 3.25L14.984.44a.501.501 0 0 1 .783.623l-7.403 9.306a.498.498 0 0 1-.381.188l-.011.001z"/><path d="M14.086 15.929H1.865A1.617 1.617 0 0 1 .25 14.314V1.603C.25.753.941.062 1.791.062h7.935a.5.5 0 0 1 0 1H1.791a.542.542 0 0 0-.541.541v12.71c0 .339.276.615.615.615h12.221a.616.616 0 0 0 .615-.615V6.147a.5.5 0 0 1 1 0v8.166a1.616 1.616 0 0 1-1.615 1.616z"/></svg>