<svg xmlns="http://www.w3.org/2000/svg" viewBox="0 0 24 24"><path fill="none" d="M8.366 3.201h7.269V6.02H8.366zm.983 8.384v-.87a.75.75 0 0 1 .75-.75H13.9a.75.75 0 0 1 .75.75v.87h7.433V8.11a.59.59 0 0 0-.59-.59H2.506a.59.59 0 0 0-.59.59v3.475h7.433z"/><path fill="none" d="M10.849 11.466h2.301v2.302h-2.301z"/><path d="M14.65 14.518a.75.75 0 0 1-.75.75h-3.801a.75.75 0 0 1-.75-.75v-1.432H1.916v6.878c0 .452.495.835 1.081.835h18.005c.586 0 1.081-.383 1.081-.835v-6.878H14.65v1.432z" fill="none"/><path d="M23.583 8.11c0-1.153-.938-2.09-2.09-2.09h-4.359V2.451a.75.75 0 0 0-.75-.75H7.616a.75.75 0 0 0-.75.75V6.02h-4.36c-1.153 0-2.09.938-2.09 2.09v4.08c0 .026.012.048.015.073-.003.025-.015.047-.015.073v7.628c0 1.287 1.158 2.335 2.581 2.335h18.005c1.423 0 2.581-1.048 2.581-2.335V8.11zM8.366 3.201h7.269V6.02H8.366V3.201zM2.506 7.52h18.987c.325 0 .59.265.59.59v3.475H14.65v-.87a.75.75 0 0 0-.75-.75h-3.801a.75.75 0 0 0-.75.75v.87H1.916V8.11c0-.325.265-.59.59-.59zm8.343 3.946h2.301v2.302h-2.301v-2.302zm11.234 8.498c0 .452-.495.835-1.081.835H2.997c-.586 0-1.081-.383-1.081-.835v-6.878h7.433v1.432c0 .414.336.75.75.75H13.9a.75.75 0 0 0 .75-.75v-1.432h7.433v6.878z"/></svg>