<svg xmlns="http://www.w3.org/2000/svg" viewBox="0 0 64 64"><path d="M62.704 43.288c-.559 0-1.012.453-1.012 1.012v11.417a.949.949 0 0 1-.948.948H3.127a.949.949 0 0 1-.948-.948V44.3a1.012 1.012 0 1 0-2.024 0v11.417a2.975 2.975 0 0 0 2.972 2.972h57.617a2.975 2.975 0 0 0 2.972-2.972V44.3c0-.559-.453-1.012-1.012-1.012z"/><path d="M31.266 45.737a1.01 1.01 0 0 0 1.436 0l15.541-15.541a1.01 1.01 0 1 0-1.43-1.431L32.995 42.582V8.285a1.012 1.012 0 1 0-2.024 0v34.297L17.155 28.765a1.011 1.011 0 1 0-1.43 1.431l15.541 15.541z"/></svg>