<svg xmlns="http://www.w3.org/2000/svg" viewBox="0 0 24 24"><path d="M21.412 15.454v-4.018c0-3.641-2.139-6.964-5.398-8.505A4.263 4.263 0 0 0 12 .163V.162A4.263 4.263 0 0 0 7.986 2.93c-3.259 1.541-5.397 4.864-5.397 8.505v4.018A2.864 2.864 0 0 0 .03 18.297c0 1.522 1.203 2.627 2.86 2.627h5.634a3.545 3.545 0 0 0 3.477 2.89 3.545 3.545 0 0 0 3.477-2.89h5.634c1.657 0 2.86-1.105 2.86-2.627a2.866 2.866 0 0 0-2.56-2.843zM12 22.314a2.039 2.039 0 0 1-1.926-1.39h3.852A2.038 2.038 0 0 1 12 22.314zm9.111-2.889H12v-.001H2.889c-.748 0-1.36-.378-1.36-1.127s.612-1.36 1.36-1.36l1.19.003c.009-.172.009-.172.009-.386v-5.119c0-3.398 2.146-6.288 5.154-7.408A2.792 2.792 0 0 1 12 1.662v.001a2.792 2.792 0 0 1 2.758 2.365c3.008 1.12 5.154 4.01 5.154 7.408v5.119c0 .214 0 .214.009.386l1.19-.003c.748 0 1.36.612 1.36 1.36s-.612 1.127-1.36 1.127z"/></svg>