<svg xmlns="http://www.w3.org/2000/svg" viewBox="0 0 64 64"><path d="M32.124 37.294c-12.138 0-22.264-3.201-26.396-7.836v8.278c0 5.711 12.088 10.535 26.396 10.535s26.395-4.824 26.395-10.535v-8.278c-4.132 4.635-14.258 7.836-26.395 7.836z" fill="none"/><path d="M32.124 50.271c-12.138 0-22.264-3.201-26.396-7.836v8.278c0 5.711 12.088 10.535 26.396 10.535s26.395-4.824 26.395-10.535v-8.278c-4.132 4.635-14.258 7.836-26.395 7.836zm.002-24.512c-12.14 0-22.268-3.203-26.397-7.839v6.839c0 5.71 12.088 10.535 26.396 10.535S58.52 30.47 58.52 24.759v-6.833c-4.135 4.634-14.259 7.833-26.394 7.833z" fill="none"/><path d="M32.126 23.759c14.27 0 26.33-4.799 26.393-10.49v-.044l.002-.011C58.505 7.508 46.424 2.69 32.126 2.69c-14.308 0-26.395 4.824-26.395 10.535s12.087 10.534 26.395 10.534z" fill="none"/><path d="M60.521 13.225C60.521 6.196 48.048.69 32.125.69 16.218.69 3.755 6.185 3.732 13.205c0 .007-.004.013-.004.02v37.488c0 7.029 12.473 12.535 28.396 12.535 15.922 0 28.395-5.506 28.395-12.535V13.277l.002-.052zM32.126 2.69c14.298 0 26.379 4.818 26.395 10.524l-.002.011v.044c-.063 5.691-12.122 10.49-26.393 10.49-14.308 0-26.395-4.824-26.395-10.535S17.818 2.69 32.126 2.69zm26.393 48.023c0 5.711-12.087 10.535-26.395 10.535S5.729 56.424 5.729 50.713v-8.278c4.131 4.635 14.257 7.836 26.396 7.836 12.137 0 22.263-3.201 26.395-7.836v8.278zm0-12.977c0 5.711-12.087 10.535-26.395 10.535S5.729 43.447 5.729 37.736v-8.278c4.131 4.635 14.257 7.836 26.396 7.836 12.137 0 22.263-3.201 26.395-7.836v8.278zm0-12.977c0 5.71-12.087 10.535-26.395 10.535S5.729 30.47 5.729 24.759V17.92c4.129 4.636 14.257 7.839 26.397 7.839 12.135 0 22.259-3.2 26.393-7.833v6.833z"/></svg>