<svg xmlns="http://www.w3.org/2000/svg" viewBox="0 0 64 64"><path d="M58.93 8.068H5.016c-2.626 0-4.757 2.153-4.757 4.799v38.315c0 2.648 2.131 4.799 4.757 4.799H58.93c2.626 0 4.757-2.151 4.757-4.799V12.867c0-2.646-2.13-4.799-4.757-4.799zm.215 2.022l-26.17 27.112L5.178 10.068H58.93c.074 0 .143.016.215.022zm2.542 41.092c0 1.543-1.237 2.799-2.757 2.799H5.016c-1.52 0-2.757-1.256-2.757-2.799V12.867c0-.794.331-1.508.856-2.018l29.183 28.487a.998.998 0 0 0 .698.284h.015a.998.998 0 0 0 .705-.306l27.289-28.271c.42.491.683 1.124.683 1.824v38.315z"/></svg>