<svg xmlns="http://www.w3.org/2000/svg" viewBox="0 0 24 24"><path d="M22.203 7.75l-6.213.006-2.604-6.51C12.976.221 12.345.065 12.005.064L12 1.189 11.996.064c-.34.001-.971.157-1.381 1.182L8.019 7.75H1.797c-1.161 0-1.538.544-1.66.868-.122.324-.195.982.678 1.747l5.12 4.474-1.902 6.973c-.317 1.163.048 1.695.41 1.937.158.105.368.19.634.19.342 0 .776-.141 1.312-.557L12 19.018l5.611 4.364c.536.416.97.557 1.312.557.266 0 .476-.085.634-.19.362-.241.727-.773.41-1.937l-1.905-6.964 5.124-4.482c.873-.765.799-1.422.678-1.747-.123-.325-.501-.869-1.661-.869zm-5.131 5.97a1.503 1.503 0 0 0-.455 1.514l1.896 6.95-5.596-4.353a1.495 1.495 0 0 0-1.833-.001l-5.597 4.354 1.896-6.95a1.502 1.502 0 0 0-.457-1.515L1.819 9.25h6.2c.614 0 1.157-.368 1.384-.938L12 1.822l2.597 6.491c.227.569.771.938 1.384.938h6.2l-5.109 4.469z"/></svg>