<svg xmlns="http://www.w3.org/2000/svg" viewBox="0 0 16 16"><path d="M14.199.606a1.737 1.737 0 0 0-1.236 2.959l-.014.016-2.6 4.6a1.713 1.713 0 0 0-1.164.18L7.539 6.894c.119-.235.192-.497.192-.779a1.738 1.738 0 1 0-2.974 1.221l-.014.016-2.6 4.6a1.737 1.737 0 1 0 .876.466L5.607 7.84c.005-.01.005-.021.01-.031.121.027.246.043.376.043.316 0 .609-.091.864-.238l1.627 1.45a1.719 1.719 0 0 0-.215.821 1.737 1.737 0 1 0 2.957-1.237l2.588-4.578c.005-.01.005-.021.01-.03a1.738 1.738 0 1 0 .375-3.434zM1.801 14.402c-.411 0-.746-.335-.746-.746s.335-.746.746-.746.746.335.746.746-.335.746-.746.746zm3.446-8.287c0-.411.335-.746.746-.746s.746.335.746.746-.335.746-.746.746-.746-.335-.746-.746zm4.76 4.516c-.411 0-.746-.335-.746-.746s.335-.746.746-.746.746.335.746.746-.335.746-.746.746zm4.192-7.541c-.411 0-.746-.335-.746-.746s.335-.746.746-.746.746.335.746.746-.334.746-.746.746z"/></svg>