<svg xmlns="http://www.w3.org/2000/svg" viewBox="0 0 16 16"><path d="M15.907 7.809a.477.477 0 0 0-.109-.163l-2.695-2.695a.5.5 0 0 0-.707.707L14.239 7.5H5.336a.5.5 0 0 0 0 1h8.902l-1.842 1.843a.5.5 0 0 0 .708.707l2.695-2.696a.5.5 0 0 0 .108-.545z"/><path d="M9.214 12.086a5.054 5.054 0 0 1-3.057 1.017c-2.813 0-5.103-2.289-5.103-5.103s2.289-5.103 5.103-5.103a5.06 5.06 0 0 1 3.059 1.018.5.5 0 1 0 .6-.8 6.06 6.06 0 0 0-3.659-1.218A6.11 6.11 0 0 0 .054 8a6.11 6.11 0 0 0 6.103 6.103 6.044 6.044 0 0 0 3.658-1.218.5.5 0 1 0-.601-.799z"/></svg>