<svg xmlns="http://www.w3.org/2000/svg" viewBox="0 0 24 24"><path d="M17.616.217H6.385A6.174 6.174 0 0 0 .218 6.384v5.667a6.175 6.175 0 0 0 6.167 6.168h4.914a.75.75 0 0 0 0-1.5H6.385a4.672 4.672 0 0 1-4.667-4.668V6.384a4.672 4.672 0 0 1 4.667-4.667h11.231a4.673 4.673 0 0 1 4.667 4.667v5.667a4.673 4.673 0 0 1-4.667 4.668h-2.519a.749.749 0 0 0-.656.387l-3.077 5.563a.75.75 0 0 0 1.312.727l2.863-5.177h2.076c3.4 0 6.167-2.767 6.167-6.168V6.384A6.172 6.172 0 0 0 17.616.217z"/><circle cx="7.417" cy="9.224" r="1.117"/><circle cx="12" cy="9.224" r="1.117"/><circle cx="16.583" cy="9.224" r="1.117"/></svg>