<svg xmlns="http://www.w3.org/2000/svg" viewBox="0 0 16 16"><path d="M16 13.964H0V2.983h16v10.981zM.941 13.023h14.118V3.925H.941v9.098z"/><path d="M13.522 7.47H9.004V5.462h4.518V7.47z"/><path d="M13.757 7.705H8.769V5.227h4.988v2.478zm-4.518-.471h4.047V5.697H9.239v1.537zm-2.243 4.252H2.478V9.478h4.518v2.008z"/><path d="M7.231 11.721H2.243V9.243h4.988v2.478zm-4.517-.471h4.047V9.713H2.714v1.537zM13.522 11.486H9.004V9.478h4.518v2.008z"/><path d="M13.757 11.721H8.769V9.243h4.988v2.478zm-4.518-.471h4.047V9.713H9.239v1.537z"/><g><path d="M6.996 7.47H2.478V5.462h4.518V7.47z"/><path d="M7.231 7.705H2.243V5.227h4.988v2.478zm-4.517-.471h4.047V5.697H2.714v1.537z"/></g></svg>