<svg xmlns="http://www.w3.org/2000/svg" viewBox="0 0 16 16"><path d="M8.765 6.416a.5.5 0 0 1-.523-.5V4.594L4.468 7.702l3.774 3.108V9.488c0-.211.133-.399.332-.471.039-.015 3.444-1.181 6.018 1.587-.248-1.059-.726-1.93-1.429-2.603-1.765-1.685-4.374-1.585-4.398-1.585z" fill="none"/><path d="M9.242 5.425v-1.89a.5.5 0 0 0-.818-.386L3.363 7.316a.502.502 0 0 0 0 .772l5.061 4.168a.501.501 0 0 0 .818-.386V9.865c.969-.224 3.807-.543 5.608 2.836a.5.5 0 0 0 .941-.235c0-2.213-.652-3.958-1.938-5.187-1.574-1.505-3.652-1.801-4.611-1.854zm-.668 3.593a.5.5 0 0 0-.332.471v1.322L4.468 7.702l3.774-3.108v1.322a.497.497 0 0 0 .523.499c.023 0 2.633-.099 4.397 1.586.704.673 1.182 1.544 1.429 2.603-2.572-2.768-5.978-1.601-6.017-1.586z"/><path d="M1.495 7.702L6.087 3.92a.499.499 0 1 0-.636-.771L.39 7.316a.502.502 0 0 0 0 .772l5.061 4.168a.496.496 0 0 0 .703-.069.498.498 0 0 0-.068-.703L1.495 7.702z"/></svg>