<svg xmlns="http://www.w3.org/2000/svg" viewBox="0 0 24 24"><path d="M23.775 11.711a.765.765 0 0 0-.161-.242l-4.007-4.007a.75.75 0 1 0-1.061 1.061l2.727 2.727H8.058a.75.75 0 0 0 0 1.5h13.215l-2.727 2.727a.75.75 0 0 0 1.06 1.061l4.007-4.007a.748.748 0 0 0 .219-.531c0-.1-.019-.198-.057-.289z"/><path d="M13.883 18.018a7.504 7.504 0 0 1-4.606 1.56c-4.178 0-7.578-3.399-7.578-7.577s3.399-7.578 7.578-7.578c1.703 0 3.312.552 4.652 1.597a.75.75 0 0 0 .922-1.184 8.99 8.99 0 0 0-5.574-1.913c-5.005 0-9.078 4.072-9.078 9.078 0 5.005 4.072 9.077 9.078 9.077a8.992 8.992 0 0 0 5.52-1.87.75.75 0 1 0-.914-1.19z"/></svg>