<svg xmlns="http://www.w3.org/2000/svg" viewBox="0 0 16 16"><path fill="none" d="M12.557 8.963l.702-.703 1.055 1.055-.702.702zm-4.269 4.595l-.291 1.018 1.019-.291zm.962-9.94a.16.16 0 0 0 .159.159h1.616L9.25 2.003v1.615zm-.418 9.069l3.018-3.018 1.054 1.054-3.018 3.018z"/><path d="M13.613 7.2a.5.5 0 0 0-.707 0L7.62 12.485a.5.5 0 0 0-.127.216l-.705 2.466a.5.5 0 0 0 .618.617l2.466-.705a.485.485 0 0 0 .216-.127l3.876-3.876 1.409-1.409a.5.5 0 0 0 0-.708L13.613 7.2zm-3.727 6.541l-1.054-1.054L11.85 9.67l1.054 1.054-3.018 3.017zm-1.598-.183l.728.727-1.019.291.291-1.018zm5.324-3.541l-1.054-1.054.702-.703 1.054 1.054-.702.703z"/><path d="M5.61 13.811H1.75a.16.16 0 0 1-.159-.158V1.454c0-.087.071-.158.159-.158h6.5v2.322c0 .639.52 1.159 1.159 1.159h2.32l-.01 1.345a.5.5 0 0 0 .496.504c.296-.033.501-.221.504-.496l.012-1.575a1.174 1.174 0 0 0-.339-.826L9.297.636C9.264.603 9.219.588 9.182.559A.494.494 0 0 0 8.75.296c-.048 0-.092.015-.136.027-.046-.006-.09-.027-.137-.027H1.75A1.16 1.16 0 0 0 .591 1.454v12.198c0 .639.52 1.158 1.159 1.158h3.86a.5.5 0 0 0 0-.999zm5.414-10.034H9.409a.16.16 0 0 1-.159-.159V2.003l1.774 1.774z"/></svg>