<svg xmlns="http://www.w3.org/2000/svg" viewBox="0 0 64 64"><path d="M41.469 32.435a1 1 0 0 0-1 1v22.24H2.3V8.325h38.169v9.643a1 1 0 1 0 2 0V7.325a1 1 0 0 0-1-1H1.3a1 1 0 0 0-1 1v49.35a1 1 0 0 0 1 1h40.169a1 1 0 0 0 1-1v-23.24a1 1 0 0 0-1-1z"/><path d="M63.631 26.317c.041-.111.068-.225.069-.341l.001-.004-.001-.004a1.011 1.011 0 0 0-.117-.442c-.018-.036-.028-.074-.051-.108L54.701 12.17a1 1 0 1 0-1.664 1.11l7.794 11.693H30.866c-7.855 0-14.247 6.392-14.247 14.248a1 1 0 1 0 2 0c0-6.753 5.494-12.248 12.247-12.248h29.965l-7.794 11.693a1 1 0 1 0 1.664 1.11l8.831-13.248c.023-.034.033-.072.051-.108.017-.035.034-.067.048-.103z"/></svg>