<svg xmlns="http://www.w3.org/2000/svg" viewBox="0 0 24 24"><path fill="none" d="M21.981 11.346L19.775 6.18l-2.199 5.166zm-15.452 0L4.33 6.18l-2.207 5.166z"/><circle cx="12.052" cy="4.689" r=".83" fill="none"/><path d="M4.331 14.925c1.239 0 2.222-.854 2.509-2.079H1.822c.286 1.225 1.27 2.079 2.509 2.079zm15.443 0c1.239 0 2.222-.854 2.508-2.079h-5.017c.287 1.225 1.27 2.079 2.509 2.079z" fill="none"/><path d="M23.846 11.991c-.01-.064-.014-.131-.039-.189l-.001-.003-3.337-7.813c-.018-.047-.049-.086-.076-.129-.018-.027-.033-.057-.055-.081a.741.741 0 0 0-.125-.112l-.052-.035a.67.67 0 0 0-.167-.078l-.011-.002c-.068-.02-.135-.042-.209-.042h-5.725a2.324 2.324 0 0 0-1.997-1.147c-.851 0-1.589.464-1.996 1.147H4.331c-.074 0-.141.022-.209.042l-.011.002a.71.71 0 0 0-.219.114.736.736 0 0 0-.125.111c-.022.025-.037.054-.055.081-.028.043-.058.082-.077.129L.298 11.799l-.001.003c-.025.058-.03.124-.039.189-.005.034-.02.067-.02.101l-.001.005c0 2.427 1.798 4.329 4.093 4.329s4.094-1.901 4.094-4.329a.724.724 0 0 0-.091-.339L5.46 5.007h4.294c.122.879.73 1.596 1.548 1.877v13.41h-2.14a.75.75 0 0 0 0 1.5h5.779a.75.75 0 0 0 0-1.5h-2.14V6.884a2.323 2.323 0 0 0 1.548-1.877h4.294l-2.874 6.751a.736.736 0 0 0-.091.339c0 2.427 1.798 4.329 4.094 4.329s4.093-1.901 4.093-4.329l-.001-.005c.002-.034-.013-.067-.018-.101zm-1.865-.645h-4.406l2.199-5.166 2.207 5.166zM4.33 6.18l2.199 5.166H2.123L4.33 6.18zm.001 8.745c-1.239 0-2.222-.854-2.508-2.079H6.84c-.287 1.225-1.271 2.079-2.509 2.079zm7.721-9.406a.83.83 0 1 1 .001-1.661.83.83 0 0 1-.001 1.661zm7.722 9.406c-1.239 0-2.222-.854-2.509-2.079h5.017c-.286 1.225-1.269 2.079-2.508 2.079z"/></svg>