<svg xmlns="http://www.w3.org/2000/svg" viewBox="0 0 64 64"><path d="M32.171 45.962c8.678 0 15.738-6.969 15.738-15.535V15.893c0-8.566-7.061-15.535-15.738-15.535-8.679 0-15.739 6.969-15.739 15.535v14.535c0 8.565 7.06 15.534 15.739 15.534zM18.432 15.893c0-7.463 6.163-13.535 13.739-13.535 7.575 0 13.738 6.072 13.738 13.535v14.535c0 7.463-6.163 13.535-13.738 13.535-7.576 0-13.739-6.071-13.739-13.535V15.893z"/><path d="M54.006 24.852a1 1 0 0 0-1 1v5.383c0 11.514-9.151 20.533-20.835 20.533s-20.836-9.02-20.836-20.533v-5.383a1 1 0 1 0-2 0v5.383c0 12.305 9.512 22.009 21.836 22.509v7.899h-9.96a1 1 0 1 0 0 2h22.056a1 1 0 1 0 0-2H33.171v-7.899c12.323-.501 21.835-10.205 21.835-22.509v-5.383a1 1 0 0 0-1-1z"/></svg>