<svg xmlns="http://www.w3.org/2000/svg" viewBox="0 0 16 16"><path d="M8 3.388C3.696 3.388.306 7.606.163 7.785a.5.5 0 0 0 0 .621c.143.18 3.533 4.398 7.837 4.398s7.694-4.218 7.837-4.397a.5.5 0 0 0 0-.621C15.694 7.605 12.304 3.388 8 3.388zm0 8.416c-3.182 0-5.938-2.766-6.786-3.708C2.06 7.152 4.811 4.388 8 4.388c3.182 0 5.938 2.766 6.786 3.708-.846.943-3.597 3.708-6.786 3.708z"/><path d="M8 5.395c-1.489 0-2.701 1.212-2.701 2.701S6.511 10.797 8 10.797s2.701-1.212 2.701-2.701S9.489 5.395 8 5.395zm0 4.402a1.703 1.703 0 0 1-1.701-1.701c0-.938.763-1.701 1.701-1.701s1.701.763 1.701 1.701c0 .938-.763 1.701-1.701 1.701z"/></svg>