<svg xmlns="http://www.w3.org/2000/svg" viewBox="0 0 16 16"><path d="M13.044 5.14a4.083 4.083 0 0 0-4.035-3.457 4.102 4.102 0 0 0-3.485 1.959 4.093 4.093 0 0 0-5.212 3.93c0 2.253 1.833 4.086 4.111 4.086h.778a.5.5 0 0 0 0-1l-.801.002a3.09 3.09 0 0 1-3.088-3.087 3.091 3.091 0 0 1 4.259-2.857c.247.1.529-.009.643-.25a3.097 3.097 0 0 1 2.794-1.782 3.083 3.083 0 0 1 3.079 2.925.5.5 0 0 0 .465.473 2.297 2.297 0 0 1 2.135 2.285 2.295 2.295 0 0 1-2.293 2.293l-1.754-.002a.5.5 0 0 0 0 1l1.754.002a3.297 3.297 0 0 0 3.293-3.293 3.3 3.3 0 0 0-2.643-3.227z"/><path d="M9.945 12.44L8.5 13.691V7.536a.5.5 0 0 0-1 0v6.156L6.055 12.44a.5.5 0 1 0-.654.756l2.272 1.967c.023.02.051.03.077.045.023.014.043.03.068.04.059.023.12.037.183.037s.124-.014.183-.037c.025-.01.045-.026.068-.04.026-.015.053-.025.077-.045l2.272-1.967a.5.5 0 1 0-.656-.756z"/></svg>