<svg xmlns="http://www.w3.org/2000/svg" viewBox="0 0 16 16"><path d="M9.645 11.257a.502.502 0 0 1-.355-.853L11.685 8 9.29 5.596a.5.5 0 1 1 .709-.706l2.746 2.757a.501.501 0 0 1 0 .706l-2.746 2.756a.496.496 0 0 1-.354.148zm-3.206 0a.5.5 0 0 1-.354-.147L3.339 8.353a.501.501 0 0 1 0-.706L6.085 4.89a.501.501 0 0 1 .709.706L4.399 8l2.395 2.404a.5.5 0 0 1-.355.853zm8.894 4.376a.5.5 0 0 1-.5-.5V.867a.5.5 0 0 1 1 0v14.266a.5.5 0 0 1-.5.5zm-14.666 0a.5.5 0 0 1-.5-.5V.867a.5.5 0 0 1 1 0v14.266a.5.5 0 0 1-.5.5z"/></svg>