<svg xmlns="http://www.w3.org/2000/svg" viewBox="0 0 16 16"><path d="M13.314 8.7c0-2.93-2.384-5.313-5.314-5.313S2.686 5.77 2.686 8.7c0 2.93 2.384 5.314 5.314 5.314s5.314-2.384 5.314-5.314zm-2.866.806H8a.5.5 0 0 1-.5-.5V5.334a.5.5 0 0 1 1 0v3.172h1.948a.5.5 0 0 1 0 1z" fill="none"/><path d="M14.314 8.7c0-3.481-2.833-6.313-6.314-6.313S1.686 5.218 1.686 8.7c0 1.95.889 3.696 2.283 4.855l-.966.965a.5.5 0 0 0 .708.707l1.092-1.092a6.264 6.264 0 0 0 6.396 0l1.092 1.092a.498.498 0 0 0 .708 0 .5.5 0 0 0 0-.707l-.965-.965a6.31 6.31 0 0 0 2.28-4.855zm-11.628 0C2.686 5.77 5.07 3.386 8 3.386S13.314 5.77 13.314 8.7 10.93 14.014 8 14.014 2.686 11.63 2.686 8.7z"/><path d="M10.448 8.506H8.5V5.334a.5.5 0 0 0-1 0v3.672a.5.5 0 0 0 .5.5h2.448a.5.5 0 0 0 0-1zm.541-7.036a.5.5 0 0 0 .707.707 1.81 1.81 0 0 1 2.563 0c.73.731.73 1.833 0 2.563a.5.5 0 0 0 .708.707 2.784 2.784 0 0 0 0-3.978C13.878.382 12.075.383 10.989 1.47zM1.741 4.74c-.73-.731-.73-1.833 0-2.563a1.811 1.811 0 0 1 2.563 0 .5.5 0 0 0 .707-.707 2.834 2.834 0 0 0-3.977 0 2.784 2.784 0 0 0 0 3.978.502.502 0 0 0 .708 0 .5.5 0 0 0-.001-.708z"/></svg>