<svg xmlns="http://www.w3.org/2000/svg" viewBox="0 0 24 24"><path d="M21.996 2.224H1.965a1.847 1.847 0 0 0-1.316.547c-.351.352-.544.82-.543 1.316l.007 3.857A1.862 1.862 0 0 0 1.588 9.76c0 .01-.006.019-.006.03L1.6 20.313c0 .478.228.936.625 1.256.356.288.819.446 1.304.446h16.954c.487-.001.95-.159 1.306-.446a1.62 1.62 0 0 0 .623-1.258l-.018-10.552v-.002c.347-.074.666-.243.923-.499.353-.352.547-.82.546-1.319l-.007-3.857a1.864 1.864 0 0 0-1.86-1.858zM1.965 3.725h20.03a.36.36 0 0 1 .36.361l.007 3.856a.359.359 0 0 1-.359.359H1.972a.36.36 0 0 1-.36-.359l-.006-3.857a.358.358 0 0 1 .359-.36zm18.892 16.693a.609.609 0 0 1-.376.117H3.53a.608.608 0 0 1-.375-.117c-.046-.036-.075-.078-.075-.106L3.063 9.801h17.851l.017 10.513c-.001.028-.029.068-.074.104z"/><path d="M14.956 10.718l-5.929.013A1.124 1.124 0 0 0 7.9 11.859l.002 2.505a1.13 1.13 0 0 0 1.13 1.125l5.931-.013h.002a1.132 1.132 0 0 0 1.124-1.13l-.002-2.503a1.133 1.133 0 0 0-1.131-1.125zm-5.575 3.29L9.38 12.21l5.225-.012.001 1.798-5.225.012z"/></svg>