<svg xmlns="http://www.w3.org/2000/svg" viewBox="0 0 24 24"><circle cx="16.776" cy="15.002" r="3.38" fill="none"/><path d="M12.913 20.021H2.471a.676.676 0 0 1-.676-.676V3.718c0-.373.303-.676.676-.676h16.158c.373 0 .675.303.675.676v5.595a.75.75 0 0 0 1.5 0V3.718c0-1.2-.976-2.176-2.175-2.176H2.471c-1.2 0-2.176.976-2.176 2.176v15.627c0 1.2.976 2.176 2.176 2.176h10.442a.75.75 0 0 0 0-1.5z"/><path d="M20.704 17.87a4.836 4.836 0 0 0 .951-2.868c0-2.69-2.189-4.879-4.88-4.879s-4.88 2.189-4.88 4.879 2.189 4.88 4.88 4.88c1.075 0 2.061-.36 2.868-.951l2.781 2.781a.748.748 0 0 0 1.06 0 .75.75 0 0 0 0-1.061l-2.78-2.781zm-7.308-2.868c0-1.863 1.516-3.379 3.38-3.379s3.38 1.516 3.38 3.379-1.516 3.38-3.38 3.38-3.38-1.517-3.38-3.38z"/></svg>