<svg xmlns="http://www.w3.org/2000/svg" viewBox="0 0 64 64"><path d="M2.821 31.691L24.68 13.689a1 1 0 1 0-1.271-1.544L.612 30.919a1.002 1.002 0 0 0 0 1.544l22.797 18.773a.995.995 0 0 0 1.407-.135.998.998 0 0 0-.136-1.407L2.821 31.691z"/><path d="M50.341 30.56H19.447l20.485-16.87a1 1 0 1 0-1.271-1.544L15.863 30.919a1.002 1.002 0 0 0 0 1.544L38.66 51.236a.995.995 0 0 0 1.407-.135.998.998 0 0 0-.136-1.407L19.126 32.56H50.34c6.291 0 11.409 5.118 11.409 11.409a1 1 0 1 0 2 0c.001-7.394-6.015-13.409-13.408-13.409z"/></svg>