<svg xmlns="http://www.w3.org/2000/svg" viewBox="0 0 24 24"><path d="M19.291 13.698a.75.75 0 0 0-.75.75v7.219a.637.637 0 0 1-.637.637H2.7a.637.637 0 0 1-.637-.637V5.947c0-.352.286-.637.637-.637h6.889a.75.75 0 0 0 0-1.5H2.7A2.14 2.14 0 0 0 .563 5.947v15.72A2.14 2.14 0 0 0 2.7 23.804h15.204a2.14 2.14 0 0 0 2.137-2.137v-7.219a.75.75 0 0 0-.75-.75z"/><path d="M23.107.254a.75.75 0 0 0-.287-.058h-8.543a.75.75 0 0 0 0 1.5h6.733L10.811 11.895a.75.75 0 0 0 1.06 1.061l10.2-10.2v6.733a.75.75 0 0 0 1.5 0V.946a.75.75 0 0 0-.464-.692z"/></svg>