<svg xmlns="http://www.w3.org/2000/svg" viewBox="0 0 64 64"><path fill="none" d="M47.799 33.45v-9.971l-6.881-7.318h-4.411v5.441zm0-12.891v-2.97a1.43 1.43 0 0 0-1.428-1.428h-2.708l4.136 4.398zM15.054 34.612l.005.001h18.935a.988.988 0 0 1 .177-.258.997.997 0 0 1 .337-.215V3.083a.214.214 0 0 0-.214-.214H2.976a.214.214 0 0 0-.214.214V34.4c0 .118.096.214.214.214h12.073l.005-.002zm1 8.895v2.97a1.43 1.43 0 0 0 1.428 1.429h2.708l-4.136-4.399zm20.453-9.108c0 .274-.056.534-.148.776l11.37 11.722c.042-.134.07-.273.07-.421v-10.13L36.507 24.501v9.898zM22.934 47.906h9.598L21.769 36.613h-5.715v3.975zm12.36 0H45.92L34.88 36.524a2.193 2.193 0 0 1-.587.089h-9.762l10.763 11.293z"/><path d="M59.664 27.453h-4.492a1 1 0 1 0 0 2h4.492a1.43 1.43 0 0 1 1.428 1.428v28.89a1.43 1.43 0 0 1-1.428 1.428h-28.89a1.43 1.43 0 0 1-1.428-1.428v-4.257a1 1 0 1 0-2 0v4.257a3.432 3.432 0 0 0 3.428 3.428h28.89a3.432 3.432 0 0 0 3.428-3.428v-28.89a3.432 3.432 0 0 0-3.428-3.428z"/><path d="M46.371 49.906a3.432 3.432 0 0 0 3.428-3.429V36.069a.962.962 0 0 0 0-.178V17.589a3.432 3.432 0 0 0-3.428-3.428h-9.864V3.083A2.216 2.216 0 0 0 34.293.869H2.976A2.216 2.216 0 0 0 .762 3.083V34.4c0 1.221.993 2.214 2.214 2.214h11.078v9.864a3.432 3.432 0 0 0 3.428 3.429h28.889zM34.293 36.613c.205 0 .399-.037.587-.089l11.04 11.382H35.294L24.531 36.613h9.762zm13.506 9.865c0 .147-.029.287-.07.421l-11.37-11.722c.091-.242.148-.502.148-.776v-9.899l11.292 11.847v10.129zm0-28.889v2.97l-4.135-4.398h2.708c.786 0 1.427.64 1.427 1.428zm-6.881-1.428l6.881 7.318v9.972L36.507 21.602V16.16h4.411zM2.762 34.399V3.083c0-.118.096-.214.214-.214h31.317c.118 0 .214.096.214.214v31.058a.997.997 0 0 0-.337.215.988.988 0 0 0-.177.258H15.059l-.005-.001-.005.001H2.976a.214.214 0 0 1-.214-.215zm19.007 2.214l10.763 11.293h-9.599l-6.88-7.318v-3.975h5.716zm-5.715 9.865v-2.97l4.136 4.399h-2.708a1.43 1.43 0 0 1-1.428-1.429z"/></svg>