<svg xmlns="http://www.w3.org/2000/svg" viewBox="0 0 24 24"><path d="M19.561 7.395a6.092 6.092 0 0 0-6.02-5.155 6.125 6.125 0 0 0-5.199 2.92A6.106 6.106 0 0 0 .57 11.025c0 3.362 2.734 6.097 6.133 6.097h1.161a.75.75 0 0 0 0-1.5l-1.195.002a4.604 4.604 0 0 1-4.599-4.599 4.604 4.604 0 0 1 4.599-4.599c.6 0 1.187.116 1.745.345a.751.751 0 0 0 .964-.376 4.617 4.617 0 0 1 4.163-2.655 4.592 4.592 0 0 1 4.586 4.357.75.75 0 0 0 .698.709 3.42 3.42 0 0 1 3.178 3.402 3.418 3.418 0 0 1-3.414 3.414l-2.603-.004c-.424-.04-.749.316-.761.727a.75.75 0 0 0 .726.773l2.639.004a4.92 4.92 0 0 0 4.914-4.914 4.928 4.928 0 0 0-3.943-4.813z"/><path d="M15.423 13.91a.75.75 0 0 0 .491-1.317L12.527 9.66c-.036-.031-.079-.047-.119-.071-.033-.019-.061-.043-.096-.057a.746.746 0 0 0-.275-.056h-.001a.74.74 0 0 0-.274.055c-.035.014-.063.037-.095.056-.041.023-.084.04-.121.071l-3.387 2.933a.75.75 0 0 0 .982 1.134l2.146-1.859v9.166a.75.75 0 0 0 1.5 0v-9.166l2.146 1.859a.739.739 0 0 0 .49.185z"/></svg>