<svg xmlns="http://www.w3.org/2000/svg" viewBox="0 0 64 64"><path d="M31.99.118C14.415.118.116 14.417.116 31.993S14.415 63.867 31.99 63.867s31.874-14.299 31.874-31.875S49.565.118 31.99.118zm0 61.739c-16.467 0-29.864-13.397-29.864-29.865S15.523 2.128 31.99 2.128s29.864 13.397 29.864 29.865S48.457 61.857 31.99 61.857z"/><path d="M46.539 30.988H32.996V17.444a1.005 1.005 0 0 0-2.01 0v13.543H17.442a1.005 1.005 0 0 0 0 2.01h13.544V46.54a1.005 1.005 0 0 0 2.01 0V32.998h13.543a1.005 1.005 0 0 0 0-2.01z"/></svg>