<svg xmlns="http://www.w3.org/2000/svg" viewBox="0 0 24 24"><circle cx="4.004" cy="4.13" r="2.249" fill="none"/><path fill="none" d="M18.69 10.8h2.256L18.69 8.435z"/><path d="M23.397 11.303c-.007-.021-.012-.042-.021-.062a.74.74 0 0 0-.136-.208l-4.757-4.989-.009-.007c-.01-.01-.023-.016-.034-.026a.738.738 0 0 0-.18-.121c-.025-.012-.051-.02-.077-.029a.752.752 0 0 0-.193-.039c-.017-.001-.032-.01-.05-.01H9.284a.75.75 0 0 0-.75.75v5.229a.75.75 0 0 0 1.5 0v-4.48h7.156v4.239c0 .414.336.75.75.75h4.007v9.756H10.034v-4.673a.75.75 0 0 0-1.5 0v5.423c0 .414.336.75.75.75h13.413a.75.75 0 0 0 .75-.75V11.55c0-.015-.008-.028-.009-.043a.718.718 0 0 0-.041-.204zM18.69 10.8V8.435l2.255 2.366H18.69z"/><path d="M14.449 14.684a.75.75 0 0 0-.75-.75H6.905a2.154 2.154 0 0 1-2.151-2.151v-3.98A3.755 3.755 0 0 0 7.753 4.13 3.754 3.754 0 0 0 4.004.381 3.754 3.754 0 0 0 .255 4.13a3.754 3.754 0 0 0 2.999 3.673v3.98a3.655 3.655 0 0 0 3.651 3.651h6.793a.75.75 0 0 0 .751-.75zM1.755 4.13a2.252 2.252 0 0 1 2.249-2.249A2.252 2.252 0 0 1 6.253 4.13a2.252 2.252 0 0 1-2.249 2.249A2.252 2.252 0 0 1 1.755 4.13z"/></svg>