<svg xmlns="http://www.w3.org/2000/svg" viewBox="0 0 16 16"><path d="M13.172.707A2.72 2.72 0 0 0 9.339.96L6.906 3.738c-.348.398-.521.907-.486 1.434s.273 1.009.67 1.357a.501.501 0 0 0 .659-.754.973.973 0 0 1-.091-1.378l2.434-2.778a1.718 1.718 0 0 1 2.421-.161l1.111.974c.712.624.784 1.71.161 2.421l-2.434 2.778a.977.977 0 0 1-1.379.092.5.5 0 0 0-.66.753 1.97 1.97 0 0 0 1.302.489c.55 0 1.099-.228 1.489-.674l2.434-2.778a2.7 2.7 0 0 0 .665-1.969 2.697 2.697 0 0 0-.918-1.864L13.172.707zM7.806 9.438a.499.499 0 0 0 .047.705.975.975 0 0 1 .091 1.38L5.51 14.3a1.7 1.7 0 0 1-1.177.579c-.456.034-.9-.117-1.244-.419l-1.111-.973a1.72 1.72 0 0 1-.16-2.423L4.25 8.287a.98.98 0 0 1 1.38-.092.501.501 0 0 0 .66-.752 1.971 1.971 0 0 0-1.435-.485 1.966 1.966 0 0 0-1.357.67l-2.433 2.778a2.72 2.72 0 0 0 .253 3.833l1.111.973a2.688 2.688 0 0 0 1.969.665 2.692 2.692 0 0 0 1.864-.919l2.434-2.777c.348-.397.52-.906.485-1.434s-.273-1.009-.67-1.356a.498.498 0 0 0-.705.047z"/><path d="M4.794 11.392a.499.499 0 0 0 .706-.047l5.354-6.112a.501.501 0 0 0-.752-.66l-5.354 6.113a.501.501 0 0 0 .046.706z"/></svg>