<svg xmlns="http://www.w3.org/2000/svg" viewBox="0 0 24 24"><path d="M18.728.583a1.495 1.495 0 0 0-1.061-.439c-.384 0-.768.146-1.061.439L2.433 14.756c-.18.18-.312.403-.382.649l-1.89 6.614a1.498 1.498 0 0 0 1.855 1.854l6.614-1.89a1.49 1.49 0 0 0 .648-.382L23.452 7.429a1.5 1.5 0 0 0 0-2.122L18.728.583zM1.604 22.43l1.654-5.788 4.135 4.134-5.789 1.654zm7.144-2.419l-4.724-4.724 9.369-9.368c.01.011.013.025.023.035l4.695 4.695-9.363 9.362zM19.171 9.588l-4.695-4.695c-.01-.01-.024-.014-.035-.023l3.226-3.226 4.724 4.724-3.22 3.22z"/></svg>