<svg viewBox="0 0 16 16" xmlns="http://www.w3.org/2000/svg"><path d="M3.994 13.076c-.454 0-.765-.085-.924-.25-.254-.267-.223-.871-.19-1.511.054-1.027.128-2.48-1.191-3.313 1.319-.837 1.245-2.29 1.191-3.316-.033-.64-.064-1.245.19-1.513.159-.166.47-.25.924-.25a.47.47 0 1 0 0-.942c-.733 0-1.259.178-1.606.544-.533.561-.489 1.4-.448 2.21.067 1.276.124 2.379-1.592 2.809-.018.004-.031.016-.048.022-.036.014-.07.027-.101.048-.023.016-.041.036-.061.056a.461.461 0 0 0-.063.069c-.019.028-.03.058-.042.089-.008.021-.022.037-.026.059-.002.006 0 .013-.001.02-.007.031-.005.062-.005.095 0 .031-.002.062.005.093.001.006-.001.013.001.02.001.008.011.013.014.021.027.09.076.171.15.23l.006.007c.05.039.107.068.171.084 1.716.429 1.659 1.533 1.592 2.809-.041.809-.085 1.647.448 2.21.347.366.873.542 1.606.542a.47.47 0 1 0 0-.942M15.995 7.907v-.02c-.005-.021-.019-.037-.027-.056-.013-.033-.024-.065-.044-.093-.016-.024-.037-.043-.057-.064-.022-.021-.043-.044-.069-.061-.027-.019-.059-.03-.09-.043-.02-.008-.036-.021-.057-.026-1.714-.43-1.657-1.533-1.59-2.809.042-.81.086-1.649-.449-2.21-.346-.366-.872-.544-1.607-.544a.47.47 0 0 0 0 .942c.456 0 .768.085.925.25.255.268.223.873.19 1.513-.053 1.026-.128 2.479 1.192 3.316-1.32.835-1.245 2.286-1.192 3.313.033.64.065 1.244-.19 1.511-.157.165-.469.25-.925.25a.472.472 0 0 0 0 .942c.735 0 1.261-.176 1.607-.542.535-.563.491-1.401.449-2.21-.067-1.276-.124-2.38 1.59-2.809a.46.46 0 0 0 .172-.083l.007-.008a.464.464 0 0 0 .15-.23c.003-.008.013-.012.015-.021v-.02c.006-.031.005-.062.005-.093 0-.033.001-.064-.005-.095"/><path d="M5.115 7.243a.758.758 0 0 0 0 1.516.758.758 0 0 0 0-1.516M10.885 7.243a.759.759 0 0 0 0 1.516.759.759 0 0 0 0-1.516M8.001 7.243a.757.757 0 1 0 0 1.514.757.757 0 0 0 0-1.514"/></svg>