<svg xmlns="http://www.w3.org/2000/svg" viewBox="0 0 24 24"><path fill="none" d="M13.23 19.467l4.713-4.711 1.61 1.61-4.711 4.712zm-.633 1.313l-.372 1.302 1.302-.372zm6.317-6.997l1.094-1.094 1.61 1.611-1.093 1.094zm-4.936-8.414c0 .169.138.307.307.307h2.603l-2.911-2.91v2.603z"/><path d="M20.494 11.231a.687.687 0 0 0-.973 0l-2.066 2.066-5.684 5.683a.677.677 0 0 0-.159.271c-.003.01-.013.016-.016.026l-1.033 3.616a.687.687 0 0 0 .85.85l3.616-1.033c.01-.003.017-.012.027-.016a.682.682 0 0 0 .271-.159l5.684-5.683h.001v-.001l2.066-2.066a.687.687 0 0 0 0-.972l-2.584-2.582zm-5.654 9.846l-1.61-1.61 4.712-4.711 1.611 1.611-4.713 4.71zm-2.243-.297l.93.93-1.302.372.372-1.302zm7.928-5.386l-1.611-1.611 1.094-1.094 1.611 1.61-1.094 1.095zM8.546 20.831H2.718a.308.308 0 0 1-.307-.307V2.101c0-.169.138-.307.307-.307h9.885V5.37c0 .928.754 1.682 1.682 1.682h3.571l-.015 2.236c-.002.38.303.69.683.692h.005a.689.689 0 0 0 .688-.683l.017-2.514a1.702 1.702 0 0 0-.492-1.199L14.069.911a1.678 1.678 0 0 0-.213-.175.674.674 0 0 0-.564-.317c-.048 0-.089.018-.134.027a1.7 1.7 0 0 0-.278-.027H2.718c-.928 0-1.682.754-1.682 1.682v18.424c0 .928.754 1.682 1.682 1.682h5.829a.688.688 0 1 0-.001-1.376zm8.342-15.155h-2.603a.308.308 0 0 1-.307-.307V2.766l2.91 2.91z"/></svg>