<svg xmlns="http://www.w3.org/2000/svg" viewBox="0 0 24 24"><path d="M14.402 16.776a.751.751 0 0 1-.531-1.28L17.353 12l-3.482-3.497a.75.75 0 1 1 1.063-1.059l4.009 4.026a.75.75 0 0 1 0 1.059l-4.009 4.026a.747.747 0 0 1-.532.221zm-4.681 0a.743.743 0 0 1-.531-.221l-4.01-4.026a.75.75 0 0 1 0-1.059l4.01-4.026a.749.749 0 1 1 1.062 1.06L6.77 12l3.482 3.497a.75.75 0 0 1-.531 1.279zm12.989 6.391a.75.75 0 0 1-.75-.75V1.583a.75.75 0 0 1 1.5 0v20.834a.75.75 0 0 1-.75.75zm-21.42 0a.75.75 0 0 1-.75-.75V1.583a.75.75 0 0 1 1.5 0v20.834a.75.75 0 0 1-.75.75z"/></svg>