<svg xmlns="http://www.w3.org/2000/svg" viewBox="0 0 24 24"><path d="M23.294 21.285H.706A.706.706 0 0 1 0 20.579V3.421c0-.39.316-.706.706-.706h22.588c.39 0 .706.316.706.706v17.158c0 .39-.316.706-.706.706zM1.412 19.873h21.176V7.701H1.412v12.172zm0-13.583l21.176-.009V4.127H1.412V6.29z"/><path d="M21.281 18.634h-6.114V8.948h6.114v9.686zm-4.702-1.412h3.29V10.36h-3.29v6.862zm-3.749 1.397H2.719V8.948H12.83v9.671zm-8.699-1.411h7.287V10.36H4.131v6.848z"/><path d="M3.425 18.619a.705.705 0 0 1-.486-1.218l8.699-8.26a.706.706 0 0 1 .972 1.024l-8.699 8.26a.7.7 0 0 1-.486.194z"/><path d="M12.124 18.619a.702.702 0 0 1-.486-.194l-8.699-8.26a.705.705 0 1 1 .972-1.023l8.699 8.26a.706.706 0 0 1-.486 1.217z"/></svg>