<svg xmlns="http://www.w3.org/2000/svg" viewBox="0 0 64 64"><path d="M62.704 22.673a1.012 1.012 0 0 1-1.012-1.012V10.245a.949.949 0 0 0-.948-.948H3.127a.949.949 0 0 0-.948.948v11.417a1.012 1.012 0 1 1-2.024 0V10.245a2.975 2.975 0 0 1 2.972-2.972h57.617a2.975 2.975 0 0 1 2.972 2.972v11.417c0 .558-.453 1.011-1.012 1.011z"/><path d="M31.266 20.225a1.01 1.01 0 0 1 1.436 0l15.541 15.541a1.01 1.01 0 1 1-1.43 1.431L32.995 23.379v34.297a1.012 1.012 0 1 1-2.024 0V23.379L17.155 37.196a1.011 1.011 0 1 1-1.43-1.431l15.541-15.54z"/></svg>