<svg xmlns="http://www.w3.org/2000/svg" viewBox="0 0 16 16"><path d="M13.179 9.99c.833 0 1.495-.575 1.687-1.4h-3.373c.191.825.852 1.4 1.686 1.4zM4.3 7.59L2.82 4.115 1.336 7.59zm10.364 0L13.18 4.115 11.7 7.59z" fill="none"/><circle cx="8" cy="3.122" r=".613" fill="none"/><path d="M2.821 9.99c.833 0 1.495-.575 1.686-1.4H1.135c.191.825.853 1.4 1.686 1.4z" fill="none"/><path d="M15.88 7.892l-2.238-5.239a.479.479 0 0 0-.196-.233.486.486 0 0 0-.267-.088H9.397A1.607 1.607 0 0 0 8 1.51c-.601 0-1.119.334-1.397.822H2.821a.484.484 0 0 0-.281.098.491.491 0 0 0-.182.223L.12 7.892v.001a.48.48 0 0 0-.041.197c0 1.626 1.205 2.9 2.743 2.9 1.538 0 2.742-1.274 2.742-2.9a.494.494 0 0 0-.06-.226l-1.93-4.532h2.834c.082.62.513 1.125 1.092 1.315v8.945H6.062a.5.5 0 0 0 0 1h3.876a.5.5 0 0 0 0-1H8.5V4.647a1.605 1.605 0 0 0 1.092-1.315h2.834l-1.929 4.532a.482.482 0 0 0-.06.226c0 1.626 1.205 2.9 2.742 2.9 1.538 0 2.743-1.274 2.743-2.9a.5.5 0 0 0-.041-.197l-.001-.001zm-1.216-.302H11.7l1.479-3.475 1.485 3.475zM2.82 4.115L4.3 7.59H1.336L2.82 4.115zm.001 5.875c-.833 0-1.495-.575-1.687-1.4h3.373c-.191.825-.852 1.4-1.686 1.4zM8 3.734a.613.613 0 1 1 .001-1.223A.613.613 0 0 1 8 3.734zm5.179 6.256c-.833 0-1.495-.575-1.686-1.4h3.373c-.192.825-.854 1.4-1.687 1.4z"/></svg>