<svg xmlns="http://www.w3.org/2000/svg" viewBox="0 0 24 24"><path d="M16.353 12.804a7.068 7.068 0 0 0 2.716-5.56C19.069 3.35 15.898.182 12 .182c-3.897 0-7.067 3.168-7.067 7.062a7.067 7.067 0 0 0 2.715 5.56C3.466 14.468.482 18.463.186 23.027a.743.743 0 0 0 1.482.096c.291-4.486 3.554-8.345 7.937-9.383a.742.742 0 0 0 .13-1.401 5.584 5.584 0 0 1-3.317-5.094A5.585 5.585 0 0 1 12 1.669c3.079 0 5.584 2.501 5.584 5.576a5.585 5.585 0 0 1-3.317 5.094.744.744 0 0 0 .13 1.401c4.382 1.038 7.646 4.896 7.937 9.382a.741.741 0 1 0 1.481-.096c-.297-4.564-3.281-8.559-7.462-10.222z"/></svg>