<svg xmlns="http://www.w3.org/2000/svg" viewBox="0 0 24 24"><path d="M11.25.089c-1.751 0-3.176 1.425-3.176 3.176s1.425 3.176 3.176 3.176 3.176-1.425 3.176-3.176S13.001.089 11.25.089zm0 4.853c-.924 0-1.676-.752-1.676-1.676s.752-1.676 1.676-1.676 1.676.752 1.676 1.676-.752 1.676-1.676 1.676zm0 3.882A3.18 3.18 0 0 0 8.074 12c0 1.751 1.425 3.176 3.176 3.176s3.176-1.425 3.176-3.176a3.18 3.18 0 0 0-3.176-3.176zm0 4.852A1.678 1.678 0 0 1 9.574 12c0-.924.752-1.676 1.676-1.676s1.676.752 1.676 1.676c0 .924-.752 1.676-1.676 1.676zm0 3.883a3.18 3.18 0 0 0-3.176 3.176c0 1.752 1.425 3.177 3.176 3.177s3.176-1.425 3.176-3.177a3.18 3.18 0 0 0-3.176-3.176zm0 4.852a1.678 1.678 0 0 1-1.676-1.677c0-.924.752-1.676 1.676-1.676s1.676.752 1.676 1.676c0 .925-.752 1.677-1.676 1.677z"/></svg>