<svg xmlns="http://www.w3.org/2000/svg" viewBox="0 0 64 64"><path d="M33.448 22.693a1 1 0 0 1-1.045-.999v-8.491L12.429 29.652l19.975 16.449V37.61c0-.423.266-.8.664-.941.076-.027 3.138-1.077 7.484-1.077 5.993 0 14.429 1.993 20.858 11.408-.651-7.106-3.154-12.779-7.465-16.898-8.236-7.872-20.37-7.414-20.497-7.409z" fill="none"/><path d="M55.327 28.655c-7.485-7.153-17.65-7.917-20.924-7.969v-9.603a1 1 0 0 0-1.635-.772L10.22 28.88a1.002 1.002 0 0 0 0 1.544l22.548 18.567a.998.998 0 0 0 1.635-.771v-9.869c1.442-.396 5.088-1.189 9.473-.579 7.586 1.054 13.583 5.62 17.823 13.572a1.002 1.002 0 0 0 1.883-.471c0-9.509-2.777-16.984-8.255-22.218zm-14.775 6.936c-4.347 0-7.408 1.05-7.484 1.077a1 1 0 0 0-.664.941V46.1L12.429 29.652l19.975-16.449v8.491c0 .273.111.534.31.723.196.188.457.281.735.276.127-.004 12.261-.462 20.497 7.408 4.311 4.119 6.813 9.792 7.465 16.898-6.431-9.415-14.866-11.408-20.859-11.408z"/><path d="M3.145 29.652l21.61-17.796a1 1 0 1 0-1.271-1.544L.936 28.88a1.002 1.002 0 0 0 0 1.544l22.548 18.567a.995.995 0 0 0 1.407-.135.998.998 0 0 0-.136-1.407L3.145 29.652z"/></svg>