<svg xmlns="http://www.w3.org/2000/svg" viewBox="0 0 64 64"><path d="M63.743 23.042c-.238-.636-1.021-1.703-3.58-1.703H42.988c-.43 0-.811-.258-.97-.657L34.83 2.713C33.932.465 32.676.126 32.008.124l-.008 2c.145 0 .571.327.973 1.332l7.188 17.97a3.031 3.031 0 0 0 2.827 1.914h17.175c1.278 0 1.678.326 1.708.406s-.056.588-1.018 1.43L46.711 37.551a3.064 3.064 0 0 0-.934 3.093l5.25 19.248c.37 1.358.188 1.915.138 1.978-.103.036-.684-.013-1.792-.874L33.87 48.938c-.532-.414-1.196-.642-1.87-.642s-1.338.228-1.87.642L14.627 60.995c-1.113.865-1.698.906-1.772.887-.069-.075-.252-.632.118-1.99l5.25-19.247a3.063 3.063 0 0 0-.934-3.094L3.146 25.176c-.962-.842-1.048-1.35-1.018-1.43s.43-.406 1.708-.406h17.175a3.031 3.031 0 0 0 2.827-1.914l7.188-17.971c.403-1.005.829-1.331.974-1.331l-.008-2c-.668.002-1.924.342-2.822 2.589l-7.188 17.97c-.159.399-.54.657-.97.657H3.837c-2.559 0-3.342 1.067-3.58 1.703-.239.636-.353 1.954 1.573 3.639l14.143 12.375c.299.262.425.678.32 1.062l-5.25 19.248c-.707 2.595-.014 3.701.693 4.173.286.19.667.339 1.16.339.726 0 1.694-.321 2.959-1.305l15.503-12.058c.185-.144.406-.22.642-.22s.457.076.642.22l15.503 12.058c1.265.983 2.233 1.305 2.959 1.305.493 0 .874-.148 1.16-.339.707-.472 1.4-1.578.693-4.173l-5.25-19.249a1.052 1.052 0 0 1 .32-1.061L62.17 26.681c1.926-1.684 1.812-3.002 1.573-3.639z"/></svg>