<svg xmlns="http://www.w3.org/2000/svg" viewBox="0 0 16 16"><path d="M13.374 4.867a2.83 2.83 0 0 0 .812-1.98A2.83 2.83 0 0 0 11.358.06a2.824 2.824 0 0 0-2.781 2.374 2.756 2.756 0 0 0-1.153 0A2.825 2.825 0 0 0 4.642.059a2.824 2.824 0 1 0-2.015 4.807A4.565 4.565 0 0 0 .06 8.985v2.742a.5.5 0 0 0 1 0V8.985a3.568 3.568 0 0 1 2.754-3.486.5.5 0 0 0 .089-.943 1.831 1.831 0 0 1-1.086-1.67 1.83 1.83 0 0 1 1.827-1.827c.99 0 1.794.792 1.823 1.774a2.821 2.821 0 0 0-1.295 2.368c0 .753.301 1.461.811 1.98A4.567 4.567 0 0 0 3.417 11.3v4.141a.5.5 0 0 0 1 0V11.3a3.568 3.568 0 0 1 2.754-3.486.5.5 0 0 0 .087-.944 1.828 1.828 0 1 1 1.484 0 .5.5 0 0 0 .088.944 3.569 3.569 0 0 1 2.754 3.486v4.141a.5.5 0 0 0 1 0V11.3a4.566 4.566 0 0 0-2.567-4.119c.51-.52.811-1.227.811-1.98 0-.993-.517-1.864-1.292-2.368a1.827 1.827 0 0 1 1.822-1.774 1.83 1.83 0 0 1 1.828 1.827c0 .72-.426 1.375-1.086 1.67a.5.5 0 0 0 .089.943 3.569 3.569 0 0 1 2.754 3.486v2.742a.5.5 0 0 0 1 0V8.985a4.57 4.57 0 0 0-2.569-4.118z"/></svg>