<svg xmlns="http://www.w3.org/2000/svg" viewBox="0 0 16 16"><circle cx="7.966" cy="12.074" r=".54"/><path d="M8.021 3.467c-1.575 0-2.811 1.181-2.875 2.748a.458.458 0 0 0 .439.476c.242-.012.465-.187.476-.439.043-1.065.886-1.869 1.96-1.869 1.072 0 1.85.773 1.85 1.839 0 .637-.362 1.219-1.107 1.777-.849.634-1.015 1.2-1.015 1.964a.458.458 0 1 0 .916 0c0-.508.063-.795.647-1.23.979-.733 1.475-1.578 1.475-2.51 0-1.571-1.189-2.756-2.766-2.756z"/><path d="M8 .138C3.665.138.138 3.665.138 8S3.665 15.862 8 15.862 15.862 12.335 15.862 8 12.335.138 8 .138zm0 14.724A6.87 6.87 0 0 1 1.138 8c0-3.784 3.079-6.862 6.862-6.862S14.862 4.216 14.862 8A6.87 6.87 0 0 1 8 14.862z"/></svg>