<svg xmlns="http://www.w3.org/2000/svg" viewBox="0 0 24 24"><path d="M20.224 13.161c0-4.535-3.689-8.224-8.224-8.224s-8.224 3.689-8.224 8.224c0 4.534 3.689 8.224 8.224 8.224s8.224-3.69 8.224-8.224zm-4.208 1.252H12a.75.75 0 0 1-.75-.75V7.64a.75.75 0 0 1 1.5 0v5.273h3.266a.75.75 0 0 1 0 1.5z" fill="none"/><path d="M21.724 13.161c0-5.362-4.362-9.724-9.724-9.724s-9.724 4.362-9.724 9.724a9.707 9.707 0 0 0 3.617 7.556l-1.451 1.45a.75.75 0 0 0 1.06 1.061l1.651-1.65a9.651 9.651 0 0 0 9.693-.001l1.65 1.65a.748.748 0 0 0 1.06 0 .75.75 0 0 0 0-1.061l-1.451-1.451a9.695 9.695 0 0 0 3.619-7.554zm-17.948 0c0-4.535 3.689-8.224 8.224-8.224s8.224 3.689 8.224 8.224c0 4.534-3.689 8.224-8.224 8.224s-8.224-3.69-8.224-8.224z"/><path d="M16.016 12.913H12.75V7.64a.75.75 0 0 0-1.5 0v6.023c0 .414.336.75.75.75h4.016a.75.75 0 0 0 0-1.5zM19.029.552c-1.222 0-2.391.496-3.291 1.396a.75.75 0 1 0 1.061 1.061 3.152 3.152 0 0 1 4.461 0c1.271 1.272 1.271 3.189 0 4.461a.75.75 0 0 0 1.06 1.061c1.876-1.876 1.876-4.706 0-6.582-.899-.902-2.068-1.397-3.291-1.397zM2.74 7.469c-1.271-1.271-1.271-3.189 0-4.461 1.271-1.272 3.19-1.271 4.461 0a.75.75 0 1 0 1.061-1.061C6.416.102 3.525.102 1.679 1.947c-1.875 1.876-1.875 4.706 0 6.582a.748.748 0 0 0 1.06 0 .748.748 0 0 0 .001-1.06z"/></svg>