<svg xmlns="http://www.w3.org/2000/svg" viewBox="0 0 64 64"><path d="M32 61.085a.997.997 0 0 1-.707-.293L5.167 34.666c-6.467-6.467-6.467-16.991 0-23.458 6.467-6.468 16.992-6.468 23.459 0L32 14.582l3.374-3.374c6.467-6.468 16.992-6.468 23.459 0 6.467 6.467 6.467 16.991 0 23.458L32.707 60.792a.997.997 0 0 1-.707.293zM6.581 33.252L32 58.671l25.419-25.419c5.688-5.688 5.688-14.942 0-20.63-5.688-5.687-14.941-5.686-20.631 0l-4.081 4.081a.999.999 0 0 1-1.414 0l-4.081-4.081c-5.688-5.687-14.941-5.686-20.631 0-5.687 5.688-5.687 14.942 0 20.63z"/></svg>