<svg xmlns="http://www.w3.org/2000/svg" viewBox="0 0 64 64"><path d="M41.718 34.504c5.324-3.323 8.649-9.189 8.649-15.562 0-10.117-8.24-18.348-18.369-18.348-10.127 0-18.365 8.231-18.365 18.348 0 6.374 3.324 12.24 8.647 15.562C10.205 38.437 1.428 49.548.599 62.341a1 1 0 0 0 1.996.128C3.422 49.7 12.71 38.719 25.181 35.765a1 1 0 0 0 .176-1.887c-5.907-2.627-9.724-8.49-9.724-14.936 0-9.014 7.342-16.348 16.365-16.348 9.026 0 16.369 7.333 16.369 16.348 0 6.444-3.817 12.307-9.725 14.936a1 1 0 0 0 .176 1.887c12.47 2.954 21.758 13.934 22.587 26.701.036.552.525.96 1.062.934a1 1 0 0 0 .934-1.062c-.831-12.791-9.608-23.901-21.683-27.834z"/></svg>