<svg xmlns="http://www.w3.org/2000/svg" viewBox="0 0 64 64"><path d="M61.3 39.232V7.91c0-1.755-1.324-3.184-2.952-3.184H5.652C4.024 4.726 2.7 6.154 2.7 7.91v31.323h58.6zm-58.6 2v5.735c0 1.756 1.324 3.185 2.952 3.185h52.695c1.628 0 2.952-1.429 2.952-3.185v-5.735H2.7zm29.3 6.39a1.824 1.824 0 1 1 0-3.649 1.824 1.824 0 0 1 0 3.649z" fill="none"/><path d="M58.348 2.726H5.652C2.922 2.726.7 5.051.7 7.91v39.058c0 2.858 2.222 5.185 4.952 5.185H31v7.122H13.557a1 1 0 1 0 0 2h36.887a1 1 0 1 0 0-2H33v-7.122h25.348c2.73 0 4.952-2.326 4.952-5.185V7.91c0-2.859-2.222-5.184-4.952-5.184zm-52.696 2h52.695c1.628 0 2.952 1.428 2.952 3.184v31.323H2.7V7.91c0-1.756 1.324-3.184 2.952-3.184zm52.696 45.426H5.652c-1.628 0-2.952-1.429-2.952-3.185v-5.735h58.6v5.735c0 1.757-1.324 3.185-2.952 3.185z"/><circle cx="32" cy="45.798" r="1.824"/></svg>