<svg xmlns="http://www.w3.org/2000/svg" viewBox="0 0 64 64"><circle cx="48.746" cy="21.71" r="2.442" fill="none"/><circle cx="27.053" cy="34.426" r="4.154" fill="none"/><circle cx="57.696" cy="5.876" r="2.442" fill="none"/><circle cx="39.108" cy="13.449" r="2.442" fill="none"/><path d="M33.207 34.426a6.16 6.16 0 0 1-6.153 6.153 6.16 6.16 0 0 1-6.154-6.153 6.16 6.16 0 0 1 6.154-6.154c.75 0 1.466.142 2.131.388l4.288-7.234a17.897 17.897 0 0 0-11.626-4.286c-9.917 0-17.985 8.068-17.985 17.986 0 9.918 8.068 17.986 17.985 17.986 9.918 0 17.986-8.068 17.986-17.986 0-4.748-1.863-9.059-4.879-12.277l-4.03 6.799a6.143 6.143 0 0 1 2.283 4.778z" fill="none"/><path d="M57.696 1.434a4.447 4.447 0 0 0-4.442 4.442c0 1.294.565 2.449 1.45 3.262l-4.709 8.331a4.382 4.382 0 0 0-1.249-.201c-.985 0-1.887.333-2.624.877l-3.093-2.651a4.39 4.39 0 0 0 .522-2.045c0-2.449-1.993-4.442-4.442-4.442S34.666 11 34.666 13.449c0 1.341.61 2.53 1.552 3.346l-1.709 2.883a19.89 19.89 0 0 0-12.662-4.537c-11.02 0-19.985 8.966-19.985 19.986 0 11.021 8.966 19.986 19.985 19.986 5.151 0 9.838-1.975 13.385-5.187l13.347 13.348a.997.997 0 0 0 1.414 0 .999.999 0 0 0 0-1.414L36.646 48.511c3.212-3.548 5.187-8.234 5.187-13.385 0-5.485-2.224-10.459-5.814-14.074l1.969-3.322c.36.094.731.161 1.12.161a4.4 4.4 0 0 0 2.623-.876l3.094 2.652a4.385 4.385 0 0 0-.521 2.043c0 2.449 1.993 4.442 4.442 4.442s4.442-1.993 4.442-4.442a4.418 4.418 0 0 0-1.45-3.262l4.709-8.331c.399.118.813.201 1.249.201 2.449 0 4.442-1.993 4.442-4.442s-1.992-4.442-4.442-4.442zM39.833 35.126c0 9.918-8.068 17.986-17.986 17.986-9.917 0-17.985-8.068-17.985-17.986 0-9.917 8.068-17.986 17.985-17.986 4.432 0 8.487 1.619 11.626 4.286l-4.288 7.234a6.104 6.104 0 0 0-2.131-.388 6.16 6.16 0 0 0-6.154 6.154 6.16 6.16 0 0 0 6.154 6.153 6.16 6.16 0 0 0 6.153-6.153 6.143 6.143 0 0 0-2.283-4.778l4.03-6.799c3.016 3.218 4.879 7.529 4.879 12.277zm-8.626-.7a4.158 4.158 0 0 1-4.153 4.153 4.158 4.158 0 0 1-4.154-4.153 4.158 4.158 0 0 1 4.154-4.154 4.157 4.157 0 0 1 4.153 4.154zm5.459-20.977c0-1.347 1.096-2.442 2.442-2.442s2.442 1.095 2.442 2.442-1.096 2.442-2.442 2.442-2.442-1.096-2.442-2.442zm12.08 10.703c-1.347 0-2.442-1.095-2.442-2.442s1.096-2.442 2.442-2.442 2.442 1.096 2.442 2.442-1.095 2.442-2.442 2.442zm8.95-15.834c-1.347 0-2.442-1.096-2.442-2.442s1.096-2.442 2.442-2.442 2.442 1.096 2.442 2.442-1.095 2.442-2.442 2.442z"/></svg>