<svg xmlns="http://www.w3.org/2000/svg" viewBox="0 0 16 16"><path d="M11.761.111H4.24A4.133 4.133 0 0 0 .112 4.239v3.795a4.132 4.132 0 0 0 4.128 4.128h3.29a.5.5 0 0 0 0-1H4.24a3.131 3.131 0 0 1-3.128-3.128V4.239A3.131 3.131 0 0 1 4.24 1.111h7.521a3.131 3.131 0 0 1 3.128 3.128v3.795a3.131 3.131 0 0 1-3.128 3.128h-1.687a.501.501 0 0 0-.438.258l-2.061 3.726a.5.5 0 1 0 .875.484l1.918-3.468h1.392a4.133 4.133 0 0 0 4.128-4.128V4.239A4.131 4.131 0 0 0 11.761.111z"/><circle cx="4.624" cy="6.141" r=".823"/><circle cx="8" cy="6.141" r=".823"/><circle cx="11.376" cy="6.141" r=".823"/></svg>