<svg xmlns="http://www.w3.org/2000/svg" viewBox="0 0 64 64"><path d="M1.474 17.183l14.312.138c7.402 0 10.976 4.765 13.495 9.425a1 1 0 0 0 1.76-.951c-2.637-4.876-6.752-10.474-15.245-10.474l-14.303-.138c-.569-.023-1.005.438-1.01.99a1.003 1.003 0 0 0 .991 1.01zm61.815 31.758a.997.997 0 0 0 .035-.345c-.002-.038-.013-.073-.02-.111-.009-.052-.01-.104-.028-.155-.009-.027-.028-.048-.039-.074a.985.985 0 0 0-.222-.313c-.018-.017-.026-.04-.045-.056l-11.187-9.32a.999.999 0 1 0-1.279 1.537l9.044 7.535-8.903-.052c-5.55 0-9.52-2.476-12.871-8.025a1 1 0 0 0-1.713 1.033c2.528 4.187 6.471 8.992 14.578 8.992l8.829.052-8.944 7.056a1 1 0 1 0 1.238 1.57L62.95 49.44c.039-.031.066-.072.1-.107.015-.016.036-.021.05-.038.009-.011.011-.026.02-.037a.977.977 0 0 0 .156-.289c.003-.01.01-.018.013-.028z"/><path d="M50.641 17.183l8.829.052-8.944 7.055a1 1 0 1 0 1.238 1.57l11.187-8.824c.018-.014.028-.033.045-.048a.782.782 0 0 0 .07-.071c.01-.011.025-.015.034-.026.01-.012.012-.027.021-.039a.974.974 0 0 0 .09-.148c.019-.036.036-.07.051-.108.003-.009.009-.017.012-.026.004-.012.012-.022.016-.034a.997.997 0 0 0 .032-.231c.001-.017.01-.031.01-.049l-.002-.011c0-.018-.004-.036-.005-.054-.002-.039-.013-.074-.02-.112-.009-.052-.01-.104-.028-.155-.004-.011-.012-.02-.016-.031-.008-.022-.018-.041-.028-.062-.015-.033-.035-.062-.054-.093a.94.94 0 0 0-.177-.219c-.012-.011-.017-.027-.03-.037L51.785 6.161a1.001 1.001 0 0 0-1.281 1.536l9.045 7.538-8.903-.052c-11.151 0-14.916 8.639-18.557 16.994-3.484 7.996-6.774 15.547-16.294 15.547l-14.302-.137h-.01a1 1 0 0 0-.01 2l14.312.138c10.839 0 14.549-8.515 18.138-16.749 3.54-8.122 6.883-15.793 16.718-15.793z"/></svg>