<svg xmlns="http://www.w3.org/2000/svg" viewBox="0 0 16 16"><path d="M8 11.622c2.233 0 4.05-1.795 4.05-4.001v-3.5c0-2.206-1.817-4-4.05-4s-4.05 1.794-4.05 4v3.5c0 2.206 1.817 4.001 4.05 4.001zM4.95 4.121c0-1.654 1.368-3 3.05-3s3.05 1.346 3.05 3v3.5c0 1.654-1.368 3.001-3.05 3.001S4.95 9.275 4.95 7.621v-3.5z"/><path d="M13.259 6.019a.5.5 0 0 0-.5.5v1.296c0 2.628-2.09 4.687-4.759 4.687s-4.759-2.059-4.759-4.687V6.519a.5.5 0 0 0-1 0v1.296c0 3.022 2.273 5.419 5.259 5.662v1.402H5.36a.5.5 0 0 0 0 1h5.312a.5.5 0 0 0 0-1H8.5v-1.402c2.986-.243 5.259-2.641 5.259-5.662V6.519a.5.5 0 0 0-.5-.5z"/></svg>