<svg xmlns="http://www.w3.org/2000/svg" viewBox="0 0 24 24"><path d="M13.278 23.895h-2.555c-.92 0-1.669-.743-1.669-1.656v-1.325a.157.157 0 0 0-.1-.142l-.956-.394a.178.178 0 0 0-.193.035l-.954.94a1.684 1.684 0 0 1-2.353 0l-1.807-1.78a1.644 1.644 0 0 1 0-2.35l.951-.937a.147.147 0 0 0 .035-.162l-.393-.943a.167.167 0 0 0-.158-.101h-1.35c-.92 0-1.669-.742-1.669-1.655v-2.851c0-.913.749-1.656 1.669-1.656h1.346c.069 0 .133-.04.158-.099l.4-.942a.148.148 0 0 0-.035-.163l-.955-.938c-.318-.313-.493-.73-.493-1.175s.176-.862.493-1.175l1.807-1.779a1.684 1.684 0 0 1 2.354 0l.951.936a.179.179 0 0 0 .191.037l.959-.387a.157.157 0 0 0 .101-.143V1.761c0-.913.749-1.656 1.669-1.656h2.555c.92 0 1.669.743 1.669 1.656v1.325c0 .061.039.117.1.142l.957.395a.18.18 0 0 0 .192-.036l.954-.94a1.683 1.683 0 0 1 2.353 0l1.807 1.78c.318.313.493.73.493 1.175s-.175.861-.492 1.175l-.952.937a.147.147 0 0 0-.035.162l.393.944c.025.06.089.1.159.1h1.349c.92 0 1.669.743 1.669 1.656v2.851c0 .913-.749 1.655-1.669 1.655H20.88a.172.172 0 0 0-.158.1l-.4.941a.147.147 0 0 0 .034.162l.954.939c.318.314.493.731.493 1.177 0 .443-.175.86-.493 1.173l-1.807 1.78a1.684 1.684 0 0 1-2.353 0l-.951-.938a.178.178 0 0 0-.192-.036l-.958.387a.156.156 0 0 0-.102.143v1.329c0 .912-.749 1.656-1.669 1.656zm-5.353-5.032c.217 0 .436.042.645.128l.954.394a1.649 1.649 0 0 1 1.029 1.528v1.325c0 .086.076.156.169.156h2.555c.093 0 .169-.07.169-.156v-1.329a1.65 1.65 0 0 1 1.04-1.533l.958-.387a1.675 1.675 0 0 1 1.806.357l.952.938a.18.18 0 0 0 .248 0l1.807-1.78a.143.143 0 0 0 .045-.106.15.15 0 0 0-.046-.107l-.954-.938a1.637 1.637 0 0 1-.362-1.817l.4-.941a1.667 1.667 0 0 1 1.539-1.013h1.345c.093 0 .169-.069.169-.155v-2.851c0-.086-.076-.156-.169-.156h-1.349a1.665 1.665 0 0 1-1.543-1.023l-.392-.946a1.641 1.641 0 0 1 .367-1.807l.951-.937a.147.147 0 0 0-.001-.212l-1.807-1.78a.182.182 0 0 0-.248 0l-.954.94a1.676 1.676 0 0 1-1.816.355l-.957-.395a1.65 1.65 0 0 1-1.029-1.529V1.761c0-.086-.076-.156-.169-.156h-2.555c-.093 0-.169.07-.169.156V3.09c0 .676-.408 1.278-1.04 1.533l-.958.388c-.621.25-1.331.11-1.806-.359l-.952-.936a.177.177 0 0 0-.247 0L3.743 5.495a.145.145 0 0 0 0 .213l.954.939c.486.479.628 1.193.362 1.818l-.4.941a1.666 1.666 0 0 1-1.539 1.013H1.775c-.093 0-.169.07-.169.156v2.851c0 .086.076.155.169.155h1.35c.679 0 1.285.402 1.543 1.024l.393.943a1.643 1.643 0 0 1-.367 1.808l-.95.936a.144.144 0 0 0-.001.211l1.807 1.781a.18.18 0 0 0 .248 0l.954-.94a1.671 1.671 0 0 1 1.173-.481z"/><path d="M11.965 17.249c-2.932 0-5.317-2.354-5.317-5.249s2.385-5.249 5.317-5.249S17.282 9.105 17.282 12s-2.385 5.249-5.317 5.249zm0-8.998C9.86 8.251 8.147 9.933 8.147 12s1.712 3.749 3.817 3.749 3.817-1.682 3.817-3.749-1.711-3.749-3.816-3.749z"/></svg>