<svg xmlns="http://www.w3.org/2000/svg" viewBox="0 0 16 16"><path fill="none" d="M7.247 11.305H8.77v3.269H7.247z"/><path d="M13 1.426H3c-.367 0-.666.321-.666.715v12.432h3.909v-3.271c0-.576.381-.994.907-.994h1.646c.538 0 .975.446.975.994v3.271h3.897V2.141c-.001-.394-.3-.715-.668-.715zM6.064 8.653H3.94a.5.5 0 0 1 0-1h2.124a.5.5 0 0 1 0 1zm.88-2.124H3.758a.5.5 0 0 1 0-1h3.186a.5.5 0 0 1 0 1zm1.062-2.123H3.758a.5.5 0 0 1 0-1h4.248a.5.5 0 0 1 0 1z" fill="none"/><path d="M8.006 3.406H3.758a.5.5 0 0 0 0 1h4.248a.5.5 0 0 0 0-1zM6.944 5.529H3.758a.5.5 0 0 0 0 1h3.186a.5.5 0 0 0 0-1zm-.88 2.124H3.94a.5.5 0 0 0 0 1h2.124a.5.5 0 0 0 0-1z"/><path d="M13 .426H3c-.918 0-1.666.769-1.666 1.715v12.932a.5.5 0 0 0 .5.5h12.333a.5.5 0 0 0 .5-.5V2.141c0-.946-.748-1.715-1.667-1.715zM8.77 14.573H7.243l.007-3.266 1.52-.006v3.272zm4.897 0H9.77v-3.271a.986.986 0 0 0-.975-.994H7.149c-.525 0-.907.418-.907.994v3.271H2.333V2.141c0-.394.299-.715.666-.715H13c.367 0 .666.321.666.715v12.432z"/></svg>