<svg xmlns="http://www.w3.org/2000/svg" viewBox="0 0 24 24"><path d="M19.561 7.395a6.092 6.092 0 0 0-6.02-5.155 6.125 6.125 0 0 0-5.199 2.92A6.106 6.106 0 0 0 .57 11.025c0 3.362 2.734 6.097 6.133 6.097h1.161a.75.75 0 0 0 0-1.5l-1.195.002a4.604 4.604 0 0 1-4.599-4.599 4.604 4.604 0 0 1 4.599-4.599c.6 0 1.187.116 1.745.345a.751.751 0 0 0 .964-.376 4.617 4.617 0 0 1 4.163-2.655 4.592 4.592 0 0 1 4.586 4.357.75.75 0 0 0 .698.709 3.42 3.42 0 0 1 3.178 3.402 3.418 3.418 0 0 1-3.414 3.414l-2.603-.004c-.424-.04-.749.316-.761.727a.75.75 0 0 0 .726.773l2.639.004a4.92 4.92 0 0 0 4.914-4.914 4.928 4.928 0 0 0-3.943-4.813z"/><path d="M14.933 18.535l-2.146 1.858v-9.167a.75.75 0 0 0-1.5 0v9.166l-2.146-1.858a.751.751 0 0 0-.982 1.135l3.387 2.933c.037.032.082.049.123.073.031.018.058.041.092.055.089.035.181.056.275.056s.187-.021.275-.056c.034-.013.061-.036.092-.055.041-.024.086-.04.123-.073l3.387-2.933a.75.75 0 0 0-.98-1.134z"/></svg>