<svg xmlns="http://www.w3.org/2000/svg" viewBox="0 0 24 24"><path d="M15.396 11.765a.75.75 0 0 0-.75.75v7.587H1.737V3.899h12.909v3.068a.75.75 0 0 0 1.5 0V3.149a.75.75 0 0 0-.75-.75H.987a.75.75 0 0 0-.75.75v17.703c0 .414.336.75.75.75h14.409a.75.75 0 0 0 .75-.75v-8.337a.75.75 0 0 0-.75-.75z"/><path d="M23.71 9.578a.627.627 0 0 0-.035-.074c-.014-.027-.021-.056-.039-.082L20.468 4.67a.75.75 0 1 0-1.248.832l2.391 3.586H11.593a5.508 5.508 0 0 0-5.502 5.502.75.75 0 0 0 1.5 0 4.006 4.006 0 0 1 4.002-4.002h10.018l-2.391 3.586a.75.75 0 1 0 1.249.832l3.168-4.752c.017-.026.025-.055.039-.082.013-.025.025-.048.035-.074a.744.744 0 0 0-.001-.52z"/></svg>