<svg xmlns="http://www.w3.org/2000/svg" viewBox="0 0 24 24"><path d="M10.466 20.325a.631.631 0 0 1-.632-.632v-5.527H4.307a.632.632 0 0 1-.292-1.193l12.831-6.671a.632.632 0 0 1 .852.852l-6.671 12.831a.632.632 0 0 1-.561.34zm-3.572-7.424h3.572c.349 0 .632.283.632.632v3.572l4.555-8.759-8.759 4.555z"/><path d="M11.945 24C5.359 24 0 18.641 0 12.055S5.359.11 11.945.11 23.89 5.469 23.89 12.055 18.531 24 11.945 24zm0-22.484c-5.811 0-10.54 4.728-10.54 10.54s4.728 10.54 10.54 10.54 10.54-4.728 10.54-10.54-4.729-10.54-10.54-10.54z"/></svg>