<svg xmlns="http://www.w3.org/2000/svg" viewBox="0 0 16 16"><path d="M12.605 15.962H3.399c-.615 0-1.116-.5-1.116-1.115V3.333a.5.5 0 0 1 1 0v11.513c0 .063.052.115.116.115h9.206a.116.116 0 0 0 .116-.115V3.333a.5.5 0 0 1 1 0v11.513c0 .616-.501 1.116-1.116 1.116z"/><path d="M15.461 3.833H.539a.5.5 0 0 1 0-1h14.923a.5.5 0 1 1-.001 1z"/><path d="M10.639 3.833a.5.5 0 0 1-.5-.5v-2.19a.104.104 0 0 0-.104-.104H6.019a.104.104 0 0 0-.104.104v2.191a.5.5 0 0 1-1 0V1.143c0-.608.495-1.104 1.104-1.104h4.016c.608 0 1.104.495 1.104 1.104v2.191a.5.5 0 0 1-.5.499zM5.416 14.069a.5.5 0 0 1-.5-.5V5.226a.5.5 0 0 1 1 0v8.343a.5.5 0 0 1-.5.5zm5.223 0a.5.5 0 0 1-.5-.5V5.226a.5.5 0 0 1 1 0v8.343a.5.5 0 0 1-.5.5zm-2.612 0a.5.5 0 0 1-.5-.5V5.226a.5.5 0 0 1 1 0v8.343c0 .277-.223.5-.5.5z"/></svg>