<svg width="64" height="64" viewBox="0 0 64 64" xmlns="http://www.w3.org/2000/svg"><title>Configure_64</title><g fill-rule="evenodd"><path d="M63.414 4.923L59.431.94a1 1 0 0 0-1.277-.114l-9.402 6.532a1 1 0 0 0-.137 1.528l2.72 2.719-26.942 26.942-4.925-4.927a1 1 0 1 0-1.414 1.414l2.107 2.108L3.419 53.89a4.954 4.954 0 0 0-1.461 3.523c0 1.331.52 2.582 1.459 3.52a4.936 4.936 0 0 0 3.52 1.464h.004c1.332 0 2.584-.52 3.525-1.463L27.207 44.19l2.107 2.108a.997.997 0 0 0 1.414 0 .999.999 0 0 0 0-1.414l-4.921-4.923 26.942-26.942 2.437 2.435a.998.998 0 0 0 1.508-.109l6.814-9.116a1 1 0 0 0-.094-1.306zM9.051 59.521a2.961 2.961 0 0 1-2.11.876h-.002a2.956 2.956 0 0 1-2.106-.877 2.959 2.959 0 0 1-.874-2.106c0-.795.312-1.545.875-2.109l16.74-16.745 2 2c.031.044.049.094.089.134.04.04.09.057.134.089l1.996 1.996L9.051 59.521zm46.732-46.298l-4.908-4.905 7.732-5.373 2.78 2.78-5.604 7.498z"/><path d="M16.055 23.28l8.542 8.522a.996.996 0 0 0 1.414-.002.999.999 0 0 0-.002-1.414l-9.004-8.983a1.002 1.002 0 0 0-1.097-.213c-3.651 1.55-7.797.763-10.557-2.002a9.506 9.506 0 0 1-2.521-9.066l4.35 4.033c.185.171.428.267.68.267h5.311a1 1 0 0 0 1-1V8.111a1 1 0 0 0-.252-.663L9.952 2.972c3.217-.836 6.562.072 9.005 2.513a9.585 9.585 0 0 1 2.053 10.56 1 1 0 0 0 .214 1.097l9.002 9a1 1 0 0 0 1.414-1.414L23.1 16.19a11.569 11.569 0 0 0-2.729-12.119C16.994.698 12.183-.252 7.819 1.591a1 1 0 0 0-.359 1.583l4.711 5.316v3.932H8.253L3.058 7.605a1.002 1.002 0 0 0-1.601.344c-1.837 4.343-.863 9.31 2.479 12.653 3.18 3.185 7.869 4.2 12.119 2.678zm31.65 17.511l-8.541-8.545a1 1 0 1 0-1.414 1.415l9.002 9.007a.997.997 0 0 0 1.097.214 9.584 9.584 0 0 1 10.558 2.055 9.574 9.574 0 0 1 2.521 9.166l-4.59-4.237a1.003 1.003 0 0 0-.679-.266h-5.312a1 1 0 0 0-1 1v5.311c0 .259.101.508.28.694l4.306 4.467a9.592 9.592 0 0 1-9.134-2.527 9.592 9.592 0 0 1-2.053-10.56 1 1 0 0 0-.214-1.097l-9.007-9.01a1 1 0 0 0-1.414 1.414l8.545 8.548a11.575 11.575 0 0 0 2.729 12.118 11.573 11.573 0 0 0 8.197 3.405c1.531 0 3.079-.304 4.556-.928a1 1 0 0 0 .331-1.616l-5.122-5.313v-3.907h3.921l5.433 5.016a1 1 0 0 0 1.6-.345 11.575 11.575 0 0 0-2.48-12.748 11.571 11.571 0 0 0-12.116-2.731z"/></g></svg>