<svg xmlns="http://www.w3.org/2000/svg" viewBox="0 0 64 64"><path d="M63.553 9.932a3.03 3.03 0 0 0-3.027-3.022h-.002L3.4 6.994a3.03 3.03 0 0 0-3.022 3.031l.019 10.998a3.03 3.03 0 0 0 3.027 3.022h.952l.046 30.846c.001 1.003.487 1.971 1.334 2.654.796.644 1.84.997 2.939.997h46.676c2.359-.004 4.276-1.643 4.273-3.653l-.046-30.844h.949a3.028 3.028 0 0 0 3.025-3.028l-.019-11.085zm-5.908 44.96c.001.893-1.042 1.648-2.275 1.65H8.697c-.636 0-1.249-.201-1.684-.553-.221-.178-.591-.558-.592-1.102l-.046-30.842h51.223l.047 30.847zm2.902-32.847H3.423a1.027 1.027 0 0 1-1.027-1.025l-.018-10.998a1.026 1.026 0 0 1 1.025-1.028l57.122-.084h.002c.566 0 1.026.459 1.027 1.025l.019 11.084c0 .567-.459 1.025-1.026 1.026z"/><path d="M23.84 37.906h.003l16.328-.035a2.068 2.068 0 0 0 2.062-2.069l-.006-4.226a2.068 2.068 0 0 0-2.066-2.063h-.003l-16.329.036a2.068 2.068 0 0 0-2.062 2.069l.006 4.226a2.068 2.068 0 0 0 2.067 2.062zm-.007-6.358l16.395.031.006 4.226a.066.066 0 0 1-.066.066l-16.395-.03.06-4.293z"/></svg>