<svg xmlns="http://www.w3.org/2000/svg" viewBox="0 0 16 16"><path d="M14.806 4.554h-1.288V2.92c0-.573-.498-1.039-1.11-1.039H4.859v-.393a.865.865 0 0 0-.864-.864H.948a.865.865 0 0 0-.864.864v12.318c0 .402.166.785.465 1.077.324.315.776.494 1.248.494l.043-.001h12.364c.944 0 1.713-.704 1.713-1.57V5.593c0-.572-.499-1.039-1.111-1.039zM2.51 5.593v8.167c0 .327-.306.603-.683.615h-.048a.785.785 0 0 1-.532-.209.506.506 0 0 1-.163-.361V1.624h2.775v.758a.498.498 0 0 0 .5.5h8.049c.069 0 .106.034.11.039v1.634H3.621c-.613-.001-1.111.466-1.111 1.038zm12.407 8.213c0 .314-.32.57-.713.57H3.378c.084-.19.131-.398.131-.615V5.6c.005-.012.043-.045.112-.045h11.186c.069 0 .106.034.11.039v8.212z"/></svg>