<svg xmlns="http://www.w3.org/2000/svg" viewBox="0 0 16 16"><path d="M8.764.439a1.083 1.083 0 0 0-1.528 0L.439 7.236A1.072 1.072 0 0 0 .123 8v6.797A1.076 1.076 0 0 0 1.2 15.876h2.518l.004.001.004-.001h3.202l.003.001.003-.001 7.862.001c.596 0 1.081-.484 1.081-1.08V8c0-.289-.112-.56-.316-.764L8.764.439zM6.463 14.941H4.191v-3.857c0-.411.334-.746.746-.746h.78c.412 0 .746.335.746.746v3.857zm8.477-.144a.145.145 0 0 1-.144.145L7.4 14.941v-3.858c0-.928-.755-1.682-1.683-1.682h-.78c-.928 0-1.683.754-1.683 1.682v3.857H1.202a.143.143 0 0 1-.142-.144V8c0-.039.015-.075.042-.102l6.796-6.796a.142.142 0 0 1 .204 0l6.797 6.796A.142.142 0 0 1 14.94 8v6.797z"/></svg>