<svg xmlns="http://www.w3.org/2000/svg" viewBox="0 0 16 16"><path d="M8 1.063c.181 0 .361.094.455.281l6.428 12.855a.509.509 0 0 1-.455.736H1.572a.509.509 0 0 1-.455-.736L7.545 1.344A.502.502 0 0 1 8 1.063m0-1a1.5 1.5 0 0 0-1.349.834L.223 13.752a1.498 1.498 0 0 0 .066 1.468 1.5 1.5 0 0 0 1.283.715h12.855c.527 0 1.006-.267 1.283-.715.277-.448.302-.997.066-1.468L9.349.897A1.499 1.499 0 0 0 8 .063z"/><path d="M8 10.442a.5.5 0 0 1-.5-.5V5.68a.5.5 0 0 1 1 0v4.263a.5.5 0 0 1-.5.499zm.338 2.591a.338.338 0 1 1-.676 0 .338.338 0 1 1 .676 0z"/><path d="M8 13.608a.577.577 0 0 1-.576-.575.577.577 0 0 1 1.152 0 .577.577 0 0 1-.576.575zm0-.675a.1.1 0 0 0-.1.101c0 .111.2.111.2 0a.1.1 0 0 0-.1-.101z"/></svg>