<svg xmlns="http://www.w3.org/2000/svg" viewBox="0 0 16 16"><path d="M15.392 14.077H.608a.462.462 0 0 1-.462-.462V2.385c0-.255.207-.462.462-.462h14.784c.255 0 .462.207.462.462v11.229a.462.462 0 0 1-.462.463zM1.07 13.153h13.86V5.187H1.07v7.966zm0-8.89l13.86-.006v-1.41H1.07v1.416z"/><path d="M13.664 12.128H9.933V6.217h3.731v5.911zm-2.87-.862h2.008V7.078h-2.008v4.188zm-2.287.853H2.336V6.217h6.171v5.902zm-5.309-.862h4.447V7.078H3.198v4.179z"/><path d="M2.767 12.119a.43.43 0 0 1-.296-.743L7.78 6.335a.431.431 0 1 1 .592.625L3.063 12a.425.425 0 0 1-.296.119z"/><path d="M8.076 12.119A.425.425 0 0 1 7.78 12L2.471 6.96a.43.43 0 1 1 .593-.625l5.309 5.041a.43.43 0 0 1-.297.743z"/></svg>