<svg xmlns="http://www.w3.org/2000/svg" viewBox="0 0 16 16"><path d="M5.331 8.5a.5.5 0 0 0 0-1H2.969a.5.5 0 0 0 0 1h2.362zm3.97-5.268h2.362a.5.5 0 0 0 0-1H9.301a.5.5 0 0 0 0 1z"/><path d="M15.391.096H6.786a.5.5 0 0 0-.5.5v4.651H.609a.5.5 0 0 0-.5.5v9.658a.5.5 0 0 0 .5.5h14.783a.5.5 0 0 0 .5-.5V.596a.501.501 0 0 0-.501-.5zM1.109 6.247h7.692v8.658H6.582v-2.369a.5.5 0 0 0-.5-.5H4.15a.5.5 0 0 0-.5.5v2.369H1.109V6.247zm3.541 8.657v-1.869h.932v1.869H4.65zm7.082 0v-1.869h.932v1.869h-.932zm3.159 0h-1.227v-2.369a.5.5 0 0 0-.5-.5h-1.932a.5.5 0 0 0-.5.5v2.369h-.931V5.747a.5.5 0 0 0-.5-.5H7.286V1.096h7.605v13.808z"/></svg>