<svg xmlns="http://www.w3.org/2000/svg" viewBox="0 0 64 64"><path d="M60.285 17.394h-6.431v-5.139c0-1.787-1.587-3.24-3.538-3.24H17.867V6.301a2.517 2.517 0 0 0-2.515-2.514H2.691A2.516 2.516 0 0 0 .177 6.301V54.76c0 1.38.571 2.696 1.608 3.706 1.145 1.114 2.753 1.745 4.436 1.745H57.78c3.332 0 6.042-2.445 6.042-5.451V20.634c0-1.787-1.587-3.24-3.537-3.24zm-50.023 37.18c0 1.947-1.756 3.579-3.913 3.636l-.095.002h-.048c-1.159-.004-2.255-.429-3.024-1.179-.647-.63-1.004-1.437-1.004-2.272V6.301c0-.283.23-.514.514-.514h12.661c.284 0 .515.23.515.514v3.714a.997.997 0 0 0 1 1h33.449c.848 0 1.538.556 1.538 1.24v5.139H13.8c-1.951 0-3.538 1.453-3.538 3.24v33.94zm51.56.187c0 1.903-1.813 3.451-4.042 3.451H10.816c.899-.987 1.445-2.262 1.445-3.638v-33.94c0-.684.69-1.24 1.538-1.24h46.485c.848 0 1.537.556 1.537 1.24v34.127z"/></svg>