<svg xmlns="http://www.w3.org/2000/svg" viewBox="0 0 64 64"><path d="M35.628 64.07h-7.115c-1.947 0-3.53-1.566-3.53-3.491v-3.69a1.55 1.55 0 0 0-.972-1.43l-2.661-1.096a1.612 1.612 0 0 0-1.749.338l-2.656 2.616a3.565 3.565 0 0 1-4.981 0l-5.031-4.955a3.45 3.45 0 0 1-1.038-2.474c0-.936.368-1.813 1.038-2.473l2.649-2.61a1.523 1.523 0 0 0 .344-1.676l-1.095-2.628a1.584 1.584 0 0 0-1.474-.971H3.6c-1.947 0-3.53-1.566-3.53-3.491v-7.938c0-1.925 1.583-3.491 3.53-3.491h3.746c.645 0 1.222-.376 1.47-.958l1.112-2.62a1.52 1.52 0 0 0-.338-1.687l-2.657-2.617a3.452 3.452 0 0 1-1.039-2.473 3.45 3.45 0 0 1 1.039-2.475l5.031-4.956a3.568 3.568 0 0 1 4.982 0l2.649 2.609c.455.45 1.139.583 1.738.341l2.669-1.078c.597-.241.982-.804.982-1.434v-3.7c0-1.926 1.583-3.492 3.53-3.492h7.115c1.947 0 3.53 1.566 3.53 3.492v3.689c0 .625.382 1.187.972 1.43l2.661 1.096a1.607 1.607 0 0 0 1.748-.337l2.656-2.617a3.566 3.566 0 0 1 4.983 0l5.031 4.955a3.45 3.45 0 0 1 1.039 2.474 3.45 3.45 0 0 1-1.039 2.474l-2.649 2.609a1.525 1.525 0 0 0-.345 1.677l1.095 2.628c.245.588.824.969 1.474.969h3.755c1.947 0 3.53 1.566 3.53 3.491v7.938c0 1.925-1.583 3.491-3.53 3.491h-3.745c-.645 0-1.222.376-1.47.958l-1.112 2.62a1.524 1.524 0 0 0 .339 1.688l2.656 2.616a3.45 3.45 0 0 1 1.04 2.474c0 .936-.369 1.814-1.039 2.474l-5.031 4.955a3.566 3.566 0 0 1-4.983.001l-2.649-2.611a1.618 1.618 0 0 0-1.738-.341l-2.668 1.078a1.548 1.548 0 0 0-.983 1.435v3.701c.001 1.927-1.582 3.493-3.529 3.493zM20.729 52.299c.457 0 .919.088 1.36.27l2.661 1.096a3.484 3.484 0 0 1 2.172 3.223v3.69c0 .856.714 1.552 1.591 1.552h7.115c.877 0 1.591-.696 1.591-1.552v-3.701c0-1.425.862-2.694 2.195-3.232l2.668-1.078a3.55 3.55 0 0 1 3.826.757l2.65 2.611a1.614 1.614 0 0 0 2.259-.001l5.031-4.955a1.528 1.528 0 0 0 0-2.185l-2.656-2.616a3.452 3.452 0 0 1-.764-3.827l1.113-2.621a3.524 3.524 0 0 1 3.255-2.139h3.745c.877 0 1.591-.696 1.591-1.552v-7.938c0-.856-.714-1.552-1.591-1.552h-3.755a3.518 3.518 0 0 1-3.264-2.162l-1.095-2.629a3.458 3.458 0 0 1 .773-3.804l2.649-2.608a1.526 1.526 0 0 0 0-2.185l-5.031-4.955a1.615 1.615 0 0 0-2.259 0l-2.656 2.616a3.548 3.548 0 0 1-3.848.749l-2.661-1.096a3.481 3.481 0 0 1-2.172-3.223v-3.69c0-.856-.714-1.553-1.591-1.553h-7.115c-.877 0-1.591.696-1.591 1.553v3.7a3.48 3.48 0 0 1-2.194 3.232l-2.669 1.078a3.554 3.554 0 0 1-3.827-.758l-2.649-2.609a1.616 1.616 0 0 0-2.259 0L8.296 13.16a1.526 1.526 0 0 0 0 2.184l2.656 2.617a3.448 3.448 0 0 1 .762 3.827l-1.112 2.62a3.524 3.524 0 0 1-3.255 2.139H3.6c-.877 0-1.591.696-1.591 1.552v7.938c0 .856.714 1.552 1.591 1.552h3.757c1.437 0 2.717.848 3.263 2.163l1.095 2.627a3.454 3.454 0 0 1-.772 3.804l-2.649 2.61a1.525 1.525 0 0 0 0 2.185l5.031 4.955a1.615 1.615 0 0 0 2.259 0l2.657-2.616a3.546 3.546 0 0 1 2.488-1.018z"/><path d="M32.07 45.566c-7.546 0-13.687-6.054-13.687-13.496s6.14-13.496 13.687-13.496 13.687 6.054 13.687 13.496-6.141 13.496-13.687 13.496zm0-25.053c-6.477 0-11.747 5.185-11.747 11.557s5.27 11.557 11.747 11.557 11.747-5.185 11.747-11.557-5.27-11.557-11.747-11.557z"/></svg>