<svg xmlns="http://www.w3.org/2000/svg" viewBox="0 0 24 24"><path d="M12.784 9.363a.65.65 0 0 1-.506-.19.686.686 0 0 1-.212-.497V6.487l-5.988 4.922 5.988 4.922v-2.189c0-.291.183-.55.457-.647.062-.021 5.406-1.85 9.338 2.627-.361-1.762-1.121-3.204-2.271-4.304-2.731-2.609-6.768-2.46-6.806-2.455z" fill="none"/><path d="M13.44 7.998V5.032a.688.688 0 0 0-1.124-.532l-7.758 6.377a.689.689 0 0 0 0 1.062l7.758 6.377a.688.688 0 0 0 1.124-.531v-3.128c1.441-.35 5.919-.927 8.745 4.362a.687.687 0 0 0 1.294-.325c0-3.359-.989-6.008-2.94-7.873-2.439-2.328-5.675-2.754-7.099-2.823zm-.919 5.496a.687.687 0 0 0-.457.647v2.189l-5.988-4.922 5.988-4.922v2.189a.69.69 0 0 0 .212.497.65.65 0 0 0 .506.19c.039-.005 4.075-.154 6.805 2.454 1.151 1.1 1.911 2.542 2.271 4.304-3.93-4.476-9.274-2.646-9.337-2.626z"/><path d="M2.008 11.409L9.12 5.563a.688.688 0 0 0-.873-1.062L.489 10.878a.689.689 0 0 0 0 1.062l7.758 6.377a.686.686 0 0 0 .968-.095.687.687 0 0 0-.095-.968l-7.112-5.845z"/></svg>