<svg id="Layer_1" xmlns="http://www.w3.org/2000/svg" viewBox="0 0 16 16"><style>.st0{fill:#010101}</style><path class="st0" d="M.6 15.9c-.3 0-.5-.3-.5-.5.2-3.1 2.2-5.7 5-6.9-1.2-.8-1.8-2.2-1.8-3.7C3.3 2.2 5.4.1 8 .1s4.7 2.1 4.7 4.7c0 1.5-.7 2.8-1.8 3.7 2.8 1.1 4.8 3.8 5 6.9 0 .3-.2.5-.5.5s-.5-.2-.5-.5c-.2-3-2.4-5.6-5.3-6.3-.2 0-.4-.2-.4-.4s.1-.4.3-.5c1.4-.6 2.2-1.9 2.2-3.4 0-2.1-1.7-3.7-3.7-3.7-2.1 0-3.7 1.7-3.7 3.7 0 1.5.9 2.8 2.2 3.4.2.1.3.3.3.5s-.2.4-.4.4c-2.9.7-5.1 3.3-5.3 6.3 0 .3-.3.5-.5.5z"/></svg>