<svg xmlns="http://www.w3.org/2000/svg" viewBox="0 0 16 16"><path d="M14.681 1.391H1.302A1.242 1.242 0 0 0 .063 2.633l.004 2.576c.001.586.419 1.055.967 1.183l.013 7.086c.001.631.583 1.144 1.298 1.144l11.329-.017c.327-.001.639-.108.877-.302.266-.216.417-.524.417-.846l-.013-7.064c.225-.051.439-.142.606-.309.235-.235.364-.547.364-.879l-.004-2.575a1.242 1.242 0 0 0-1.24-1.239zm-13.377 1h13.377a.24.24 0 0 1 .24.24l.004 2.576a.24.24 0 0 1-.24.24H1.308a.24.24 0 0 1-.24-.24l-.004-2.575a.24.24 0 0 1 .24-.241zm12.369 11.213l-11.328.017c-.185 0-.297-.101-.297-.146l-.013-7.028h11.919l-.033 7.079a.391.391 0 0 1-.248.078z"/><path d="M9.981 7.059l-3.965.008a.76.76 0 0 0-.756.76l.001 1.675a.761.761 0 0 0 .76.757l3.964-.009h.002a.762.762 0 0 0 .755-.76l-.001-1.675a.76.76 0 0 0-.76-.756zm-3.72 2.199l-.002-1.191 3.482-.008.001 1.192-3.481.007z"/></svg>