<svg xmlns="http://www.w3.org/2000/svg" viewBox="0 0 64 64"><path d="M51.679 30.625a1 1 0 0 0-1 1v27.288c0 1.578-1.225 2.861-2.73 2.861H7.058c-1.506 0-2.73-1.283-2.73-2.861V14.891c0-1.436 1.113-2.604 2.481-2.604h24.746a1 1 0 1 0 0-2H6.809c-2.471 0-4.481 2.065-4.481 4.604v44.022c0 2.681 2.122 4.861 4.73 4.861h40.891c2.608 0 4.73-2.181 4.73-4.861V31.625a1 1 0 0 0-1-1z"/><path d="M62.171 1.216a.989.989 0 0 0-.057-.283c-.01-.032-.008-.069-.021-.099-.004-.008-.012-.015-.016-.023a.981.981 0 0 0-.206-.298c-.002-.002-.002-.005-.004-.006-.03-.029-.068-.04-.1-.064-.07-.053-.138-.108-.221-.141-.077-.031-.158-.037-.239-.048-.046-.006-.087-.027-.135-.027H38.195a1 1 0 1 0 0 2h20.622L29.581 32.489a1 1 0 1 0 1.437 1.389L60.173 3.699V25.01a1 1 0 1 0 2 0V1.225l-.002-.009z"/></svg>