<svg xmlns="http://www.w3.org/2000/svg" viewBox="0 0 64 64"><path d="M63.08 1.026a1.988 1.988 0 0 0-1.407-.587c-.179 0-17.98-.044-21.41-.088L40.118.35c-3.789 0-5.69 1.894-6.218 2.524C31.781 4.953 3.204 32.986 1.489 34.747a1.648 1.648 0 0 0-.08.087C.291 36.127.133 37.358.197 38.163c.116 1.459.994 2.4 1.33 2.711.975.983 19.115 19.276 20.595 20.856.084.09.176.171.275.244.945.693 1.956 1.044 3.006 1.044a4.705 4.705 0 0 0 3.1-1.179 2.6 2.6 0 0 0 .053-.051l31.912-32.075c2.602-2.21 3.177-5.047 3.104-6.458l.086-20.817a1.986 1.986 0 0 0-.578-1.412zm-3.96 27.22L27.146 60.384s-.69.644-1.742.644c-.531 0-1.155-.164-1.829-.659-1.55-1.655-20.674-20.936-20.674-20.936s-1.643-1.381.013-3.297C4.662 34.342 35.376 4.214 35.376 4.214s1.35-1.873 4.742-1.874l.12.001c3.48.045 21.431.088 21.431.088l-.086 20.881s.202 2.718-2.463 4.936z"/><path d="M47.997 9.772a6.082 6.082 0 0 0-4.396 1.8c-1.177 1.168-1.829 2.724-1.836 4.382s.633 3.219 1.8 4.396a6.164 6.164 0 0 0 4.383 1.836h.025a6.215 6.215 0 0 0 6.207-6.182 6.169 6.169 0 0 0-1.8-4.397 6.175 6.175 0 0 0-4.383-1.835zm2.939 9.195a4.179 4.179 0 0 1-2.963 1.22h-.018a4.18 4.18 0 0 1-2.971-1.245 4.18 4.18 0 0 1-1.22-2.98 4.18 4.18 0 0 1 1.244-2.97 4.18 4.18 0 0 1 2.962-1.22h.019a4.176 4.176 0 0 1 2.971 1.245 4.18 4.18 0 0 1 1.22 2.98 4.186 4.186 0 0 1-1.244 2.97z"/></svg>