<svg xmlns="http://www.w3.org/2000/svg" viewBox="0 0 16 16"><path d="M15.914 9.012V6.988a.648.648 0 0 0-.653-.643h-.958a.653.653 0 0 1-.604-.399l-.279-.671a.636.636 0 0 1 .142-.699l.675-.665a.637.637 0 0 0 0-.91l-1.283-1.264a.66.66 0 0 0-.923 0l-.677.667a.661.661 0 0 1-.714.139l-.679-.28a.643.643 0 0 1-.401-.593V.729a.648.648 0 0 0-.653-.643H7.093a.648.648 0 0 0-.653.643v.944c0 .261-.16.496-.405.595l-.681.275a.663.663 0 0 1-.71-.14l-.675-.666a.66.66 0 0 0-.923 0L1.762 3.001a.637.637 0 0 0 0 .91l.678.667a.635.635 0 0 1 .14.703l-.283.669a.655.655 0 0 1-.603.395H.739a.648.648 0 0 0-.653.643v2.024c0 .355.292.643.653.643h.958c.265 0 .504.158.604.399l.279.67c.1.24.044.516-.142.699l-.675.665a.637.637 0 0 0 0 .91l1.283 1.264a.661.661 0 0 0 .924 0l.677-.667a.661.661 0 0 1 .714-.139l.679.28c.243.1.401.334.401.593v.941c0 .355.292.643.653.643h1.815a.648.648 0 0 0 .653-.643v-.944c0-.261.16-.496.405-.595l.681-.275a.663.663 0 0 1 .71.14l.676.665a.66.66 0 0 0 .923 0l1.283-1.264a.637.637 0 0 0 0-.91l-.678-.667a.637.637 0 0 1-.141-.703l.284-.668a.654.654 0 0 1 .602-.395h.955a.646.646 0 0 0 .652-.642z"/><ellipse cx="8" cy="8" rx="3.244" ry="3.195"/></svg>