<svg xmlns="http://www.w3.org/2000/svg" viewBox="0 0 16 16"><path d="M8 .095a5.675 5.675 0 0 0-5.669 5.668c0 2.99 5.056 9.662 5.271 9.944a.5.5 0 0 0 .796.001c.215-.282 5.271-6.954 5.271-9.944A5.675 5.675 0 0 0 8 .095zm0 14.474c-1.598-2.181-4.669-6.786-4.669-8.806 0-2.574 2.094-4.668 4.669-4.668s4.669 2.094 4.669 4.668c0 2.02-3.071 6.626-4.669 8.806z"/><path d="M8 3.196a2.57 2.57 0 0 0-2.567 2.567C5.433 7.18 6.584 8.332 8 8.332s2.567-1.152 2.567-2.568A2.57 2.57 0 0 0 8 3.196zm0 4.136a1.569 1.569 0 0 1-1.567-1.568c0-.864.703-1.567 1.567-1.567s1.567.703 1.567 1.567A1.57 1.57 0 0 1 8 7.332z"/></svg>