<svg xmlns="http://www.w3.org/2000/svg" viewBox="0 0 24 24"><path d="M1.676 14.975v2.748c0 .43.312.779.695.779h19.258c.383 0 .695-.35.695-.779v-2.748H1.676zm10.389 2.992a.755.755 0 1 1 0-1.51.755.755 0 0 1 0 1.51zm10.259-4.492V3.449c0-.43-.312-.779-.695-.779H2.371c-.383 0-.695.35-.695.779v10.026h20.648z" fill="none"/><path d="M21.629 1.169H2.371c-1.21 0-2.195 1.022-2.195 2.279v14.274c0 1.257.984 2.279 2.195 2.279h8.879v1.834H5.26a.75.75 0 0 0 0 1.5h13.48a.75.75 0 0 0 0-1.5h-5.99v-1.834h8.879c1.21 0 2.195-1.022 2.195-2.279V3.449c0-1.257-.985-2.28-2.195-2.28zm-19.258 1.5h19.258c.383 0 .695.35.695.779v10.026H1.676V3.449c0-.43.312-.78.695-.78zm19.258 15.833H2.371c-.383 0-.695-.35-.695-.779v-2.748h20.647v2.748c.001.429-.311.779-.694.779z"/><circle cx="12.065" cy="17.212" r=".755"/></svg>