<svg xmlns="http://www.w3.org/2000/svg" viewBox="0 0 64 64"><path d="M15.685 58.73c0 1.211.985 2.196 2.196 2.196h28.068a2.198 2.198 0 0 0 2.196-2.196v-9.218h-32.46v9.218zm16.23-5.391a1.804 1.804 0 1 1 0 3.608 1.804 1.804 0 0 1 0-3.608zM45.949 3.008H17.881a2.198 2.198 0 0 0-2.196 2.196v42.309h32.461V5.204a2.2 2.2 0 0 0-2.197-2.196z" fill="none"/><path d="M50.146 48.508V5.204a4.201 4.201 0 0 0-4.196-4.196H17.881a4.201 4.201 0 0 0-4.196 4.196v43.304l-.001.005.001.005V58.73a4.202 4.202 0 0 0 4.196 4.196h28.068a4.202 4.202 0 0 0 4.196-4.196V48.518l.001-.005v-.005zm-2 10.222a2.198 2.198 0 0 1-2.196 2.196H17.881a2.198 2.198 0 0 1-2.196-2.196v-9.218h32.461v9.218zm0-11.217H15.685V5.204c0-1.211.985-2.196 2.196-2.196h28.068c1.211 0 2.196.985 2.196 2.196v42.309z"/><circle cx="31.915" cy="55.142" r="1.804"/></svg>