<svg xmlns="http://www.w3.org/2000/svg" viewBox="0 0 64 64"><path d="M32.09 45.369a1 1 0 0 1-1-1v-22.25a1 1 0 1 1 2 0v22.25a1 1 0 0 1-1 1zm1.454 7.295c0 .804-.65 1.454-1.454 1.454-.804 0-1.454-.65-1.454-1.454 0-.804.65-1.454 1.454-1.454.804 0 1.454.65 1.454 1.454z"/><path d="M31.805 2.197a2.16 2.16 0 0 1 1.954 1.208l27.617 55.234c.726 1.452-.33 3.161-1.954 3.161H4.188c-1.624 0-2.68-1.709-1.954-3.161L29.851 3.405a2.161 2.161 0 0 1 1.954-1.208m0-2a4.162 4.162 0 0 0-3.743 2.313L.446 57.744a4.158 4.158 0 0 0 .183 4.071 4.158 4.158 0 0 0 3.56 1.985h55.234a4.158 4.158 0 0 0 3.56-1.985 4.158 4.158 0 0 0 .183-4.071L35.548 2.511A4.162 4.162 0 0 0 31.805.197z"/></svg>