<svg xmlns="http://www.w3.org/2000/svg" viewBox="0 0 64 64"><path d="M52.29 20.796c-.856-8.162-7.739-14.437-16.032-14.437-5.917 0-11.391 3.301-14.193 8.484a16.022 16.022 0 0 0-5.257-.882c-8.9 0-16.141 7.241-16.141 16.141s7.24 16.141 16.141 16.141l3.383-.005a1 1 0 1 0 0-2h-3.278l-.104.005c-7.797 0-14.141-6.344-14.141-14.141s6.344-14.141 14.141-14.141c1.847 0 3.651.357 5.364 1.06a.998.998 0 0 0 1.285-.5c2.322-4.958 7.347-8.162 12.801-8.162 7.517 0 13.711 5.885 14.102 13.397a1 1 0 0 0 .931.946c5.632.385 10.043 5.106 10.043 10.749 0 5.948-4.839 10.787-10.787 10.787-.087 0-7.168-.009-7.386-.011h-.015a1 1 0 1 0-.022 2c.106.002 7.354.011 7.423.011 7.051 0 12.787-5.736 12.787-12.787-.002-6.398-4.786-11.798-11.045-12.655z"/><path d="M42.241 35.391l-9.587-8.302c-.047-.041-.103-.061-.155-.092-.045-.027-.084-.059-.133-.079a.996.996 0 0 0-.356-.072l-.01-.002-.01.002a1 1 0 0 0-.356.072c-.049.019-.088.052-.133.079-.052.031-.108.051-.155.092l-9.587 8.302a1 1 0 1 0 1.308 1.512L31 30.033v28.404a1 1 0 1 0 2 0V30.033l7.933 6.869a.996.996 0 0 0 1.41-.102.998.998 0 0 0-.102-1.409z"/></svg>