<svg xmlns="http://www.w3.org/2000/svg" viewBox="0 0 64 64"><path d="M63.559 32.379c-.144-.181-3.583-4.492-9.182-8.864-5.205-4.065-13.313-8.91-22.377-8.91s-17.172 4.845-22.377 8.91C4.024 27.887.585 32.198.441 32.379a1 1 0 0 0 0 1.242c.144.182 3.583 4.492 9.182 8.864 5.205 4.065 13.313 8.91 22.377 8.91s17.172-4.845 22.377-8.909c5.599-4.372 9.038-8.683 9.182-8.864a1.002 1.002 0 0 0 0-1.243zM32 49.395C17.493 49.395 5.169 36.062 2.53 33 5.166 29.936 17.478 16.605 32 16.605c14.507 0 26.831 13.333 29.47 16.395C58.834 36.063 46.522 49.395 32 49.395z"/><path d="M32 21.296c-6.454 0-11.704 5.25-11.704 11.704 0 6.454 5.25 11.704 11.704 11.704S43.704 39.454 43.704 33c0-6.454-5.25-11.704-11.704-11.704zm0 21.408c-5.351 0-9.704-4.354-9.704-9.704 0-5.351 4.354-9.704 9.704-9.704s9.704 4.353 9.704 9.704c0 5.351-4.353 9.704-9.704 9.704z"/></svg>