<svg xmlns="http://www.w3.org/2000/svg" viewBox="0 0 24 24"><path d="M23.047.164H10.163a.75.75 0 0 0-.75.75v6.962H.915a.75.75 0 0 0-.75.75v14.46c0 .414.336.75.75.75h22.133a.75.75 0 0 0 .75-.75V.914a.752.752 0 0 0-.751-.75zM1.665 9.376H13.18v12.96H9.86v-3.082a.75.75 0 0 0-.75-.75H6.217a.75.75 0 0 0-.75.75v3.082H1.665V9.376zm5.302 12.96v-2.332h1.392v2.332H6.967zm10.604 0v-2.332h1.392v2.332h-1.392zm4.726 0h-1.835v-3.082a.75.75 0 0 0-.75-.75H16.82a.75.75 0 0 0-.75.75v3.082h-1.392V8.626a.75.75 0 0 0-.75-.75h-3.016V1.664h11.384v20.672z"/><path d="M12.741 4.58h3.856a.75.75 0 0 0 0-1.5h-3.856a.75.75 0 0 0 0 1.5zm0 2.384h2.892a.75.75 0 0 0 0-1.5h-2.892a.75.75 0 0 0 0 1.5zm-9.175 5.219h3.856a.75.75 0 0 0 0-1.5H3.566a.75.75 0 0 0 0 1.5zm2.892 2.384a.75.75 0 0 0 0-1.5H3.566a.75.75 0 0 0 0 1.5h2.892z"/></svg>