<svg xmlns="http://www.w3.org/2000/svg" viewBox="0 0 24 24"><circle cx="11.945" cy="18.191" r=".741"/><path d="M12.034 4.667c-2.528 0-4.512 1.896-4.614 4.409a.673.673 0 0 0 .646.701.66.66 0 0 0 .702-.647c.073-1.775 1.477-3.114 3.266-3.114s3.087 1.291 3.087 3.069c0 1.062-.6 2.028-1.832 2.953-1.36 1.014-1.626 1.92-1.626 3.144a.675.675 0 1 0 1.35 0c0-.926.164-1.376 1.085-2.063 1.597-1.198 2.373-2.518 2.373-4.034-.001-2.519-1.908-4.418-4.437-4.418z"/><path d="M12 .125C5.452.125.125 5.452.125 12S5.452 23.875 12 23.875 23.875 18.548 23.875 12 18.548.125 12 .125zm0 22.25C6.279 22.375 1.625 17.721 1.625 12S6.279 1.625 12 1.625 22.375 6.279 22.375 12 17.721 22.375 12 22.375z"/></svg>