<svg xmlns="http://www.w3.org/2000/svg" viewBox="0 0 16 16"><path d="M10.895 6.608H5.227a.47.47 0 0 1-.47-.47V.47c0-.26.21-.47.47-.47h5.669c.26 0 .47.21.47.47v5.669a.47.47 0 0 1-.471.469zm-5.199-.939h4.73V.939h-4.73v4.73zm.442 10.299H.47a.47.47 0 0 1-.47-.47V9.83c0-.26.21-.47.47-.47h5.669c.26 0 .47.21.47.47v5.669a.47.47 0 0 1-.471.469zm-5.199-.939h4.73v-4.73H.939v4.73zm14.065.939H9.335a.47.47 0 0 1-.47-.47V9.83c0-.26.21-.47.47-.47h5.669c.26 0 .47.21.47.47v5.669a.47.47 0 0 1-.47.469zm-5.199-.939h4.73v-4.73h-4.73v4.73z"/><path d="M12.504 9.757a.47.47 0 0 1-.47-.47V8.214H4.087v1.074a.47.47 0 1 1-.94 0V7.744c0-.26.21-.47.47-.47h8.887c.26 0 .47.21.47.47v1.543c0 .26-.21.47-.47.47z"/><path d="M8.061 8.126a.47.47 0 0 1-.47-.47V6.138a.47.47 0 1 1 .94 0v1.518c0 .26-.21.47-.47.47z"/></svg>