<svg xmlns="http://www.w3.org/2000/svg" viewBox="0 0 64 64"><path d="M33.27 22.764c-10.671 0-19.352 8.68-19.352 19.349s8.681 19.349 19.352 19.349c10.669 0 19.349-8.68 19.349-19.349S43.938 22.764 33.27 22.764zm1.419 20.79v6.172a1.354 1.354 0 1 1-2.707 0v-6.172a3.58 3.58 0 0 1 1.353-6.897 3.583 3.583 0 0 1 3.583 3.583 3.578 3.578 0 0 1-2.229 3.314z" fill="none"/><path d="M33.27 20.764c-3.266 0-6.35.758-9.12 2.074v-11.18c0-5.029 4.091-9.12 9.118-9.12 5.028 0 9.119 4.091 9.119 9.12a1 1 0 1 0 2 0c0-6.131-4.988-11.12-11.119-11.12S22.15 5.526 22.15 11.658v12.265c-6.124 3.757-10.231 10.495-10.231 18.19 0 11.771 9.578 21.349 21.352 21.349 11.771 0 21.349-9.577 21.349-21.349-.002-11.772-9.579-21.349-21.35-21.349zm0 40.698c-10.671 0-19.352-8.68-19.352-19.349s8.681-19.349 19.352-19.349c10.669 0 19.349 8.68 19.349 19.349S43.938 61.462 33.27 61.462z"/><path d="M33.336 36.657a3.58 3.58 0 1 0-1.353 6.897v6.172a1.354 1.354 0 1 0 2.707 0v-6.172a3.58 3.58 0 0 0-1.354-6.897z"/></svg>