<svg xmlns="http://www.w3.org/2000/svg" viewBox="0 0 16 16"><path d="M12.05 6.697c0-2.952-2.401-5.353-5.353-5.353S1.344 3.745 1.344 6.697s2.401 5.353 5.353 5.353 5.353-2.402 5.353-5.353zM5.454 8.913a.5.5 0 0 1-.718.696L2.268 7.061a.499.499 0 0 1 0-.695l2.468-2.547a.5.5 0 0 1 .718.696l-2.13 2.199 2.13 2.199zm2.845.84a.5.5 0 0 1-.359-.848l2.13-2.199-2.13-2.2a.5.5 0 1 1 .718-.696l2.468 2.547a.499.499 0 0 1 0 .695L8.658 9.601a.5.5 0 0 1-.359.152z" fill="none"/><path d="M11.524 10.817a6.32 6.32 0 0 0 1.526-4.12c0-3.503-2.85-6.353-6.353-6.353S.344 3.194.344 6.697a6.36 6.36 0 0 0 6.353 6.353 6.323 6.323 0 0 0 4.12-1.526l3.986 3.986a.498.498 0 0 0 .708 0 .5.5 0 0 0 0-.707l-3.987-3.986zm-10.18-4.12c0-2.952 2.401-5.353 5.353-5.353s5.353 2.401 5.353 5.353-2.402 5.353-5.353 5.353-5.353-2.402-5.353-5.353z"/><path d="M11.125 6.358L8.658 3.811a.498.498 0 0 0-.707-.011.498.498 0 0 0-.011.706l2.13 2.199-2.13 2.2a.5.5 0 1 0 .718.696l2.468-2.547a.5.5 0 0 0-.001-.696zM5.443 3.807a.498.498 0 0 0-.707.011L2.268 6.365a.499.499 0 0 0 0 .695l2.468 2.548a.5.5 0 1 0 .719-.695l-2.131-2.2 2.13-2.199a.5.5 0 0 0-.011-.707z"/></svg>