<svg xmlns="http://www.w3.org/2000/svg" viewBox="0 0 16 16"><path fill="none" d="M7.235 7.614h1.53v1.531h-1.53z"/><path d="M9.765 9.645a.5.5 0 0 1-.5.5h-2.53a.5.5 0 0 1-.5-.5v-.953H1.289v4.578c0 .301.329.556.719.556h11.985c.39 0 .719-.255.719-.556V8.692H9.765v.953zm-3.53-1.953v-.578a.5.5 0 0 1 .5-.5h2.53a.5.5 0 0 1 .5.5v.578h4.946V5.379a.393.393 0 0 0-.392-.392H1.681a.393.393 0 0 0-.392.392v2.312h4.946zm-.653-5.58h4.837v1.875H5.582z" fill="none"/><path d="M14.319 3.987h-2.901V1.612a.5.5 0 0 0-.5-.5H5.082a.5.5 0 0 0-.5.5v2.375H1.681c-.768 0-1.392.625-1.392 1.392v2.716c0 .017.008.032.01.048-.002.017-.01.031-.01.048v5.078c0 .857.771 1.556 1.719 1.556h11.985c.948 0 1.719-.698 1.719-1.556v-7.89a1.395 1.395 0 0 0-1.393-1.392zM5.582 2.112h4.837v1.875H5.582V2.112zM1.681 4.987H14.32c.216 0 .392.176.392.392v2.312H9.765v-.577a.5.5 0 0 0-.5-.5h-2.53a.5.5 0 0 0-.5.5v.578H1.289V5.379c0-.216.175-.392.392-.392zm5.554 2.627h1.53v1.531h-1.53V7.614zm7.476 5.656c0 .301-.329.556-.719.556H2.007c-.39 0-.719-.255-.719-.556V8.692h4.946v.953a.5.5 0 0 0 .5.5h2.53a.5.5 0 0 0 .5-.5v-.953h4.946v4.578z"/></svg>