<svg xmlns="http://www.w3.org/2000/svg" viewBox="0 0 24 24"><path d="M.996 7.164l5.177.05c1.825 0 3.083.785 4.206 2.626a.75.75 0 0 0 1.281-.782c-.876-1.436-2.398-3.345-5.479-3.345l-5.17-.05c-.372-.01-.753.329-.757.743a.75.75 0 0 0 .742.758zm22.719 11.201a.734.734 0 0 0 .026-.26c-.002-.027-.009-.051-.014-.078-.007-.04-.008-.081-.021-.121-.007-.021-.021-.037-.03-.057a.765.765 0 0 0-.166-.233c-.013-.013-.019-.029-.033-.041l-4.043-3.368a.751.751 0 0 0-.96 1.153l2.437 2.03-2.137-.012c-1.879 0-3.171-.812-4.32-2.713a.75.75 0 0 0-1.284.775c.892 1.476 2.442 3.438 5.6 3.438l2.082.012-2.361 1.863a.752.752 0 0 0 .464 1.339.748.748 0 0 0 .464-.161l4.043-3.189c.029-.023.048-.053.073-.079.012-.012.028-.017.039-.03.007-.009.009-.02.016-.029a.76.76 0 0 0 .116-.215c.001-.01.007-.016.009-.024z"/><path d="M23.727 6.315c-.007-.04-.008-.081-.021-.12-.003-.009-.009-.016-.013-.024-.006-.016-.014-.031-.021-.046-.011-.024-.025-.045-.039-.067a.812.812 0 0 0-.134-.167c-.009-.008-.013-.02-.022-.028l-4.043-3.37a.75.75 0 1 0-.96 1.152l2.437 2.031-2.137-.013c-4.285 0-5.761 3.387-7.063 6.376-1.259 2.89-2.347 5.386-5.529 5.386l-5.17-.05c-.372.022-.753.328-.757.743a.75.75 0 0 0 .743.757l5.177.05c4.172 0 5.627-3.34 6.912-6.287 1.28-2.938 2.386-5.475 5.684-5.475l2.082.012-2.362 1.863a.75.75 0 0 0 .928 1.178l4.043-3.189c.013-.011.021-.025.034-.037a.65.65 0 0 0 .052-.053c.008-.008.018-.011.026-.02.007-.009.009-.019.015-.028a.875.875 0 0 0 .106-.192c.003-.009.009-.016.012-.025.002-.007.007-.013.009-.02a.748.748 0 0 0 .025-.177c.001-.012.007-.022.007-.034l-.001-.007c0-.014-.003-.028-.004-.042-.003-.026-.011-.05-.016-.077z"/></svg>