<svg viewBox="0 0 24 24" xmlns="http://www.w3.org/2000/svg"><path d="M5.993 19.613c-.683 0-1.149-.127-1.386-.375-.38-.402-.333-1.307-.284-2.267.081-1.541.191-3.72-1.787-4.97 1.978-1.252 1.868-3.432 1.787-4.971-.049-.959-.096-1.866.284-2.268.237-.25.703-.375 1.386-.375a.707.707 0 1 0 0-1.413c-1.101 0-1.889.267-2.41.815-.799.842-.734 2.099-.672 3.314.101 1.915.187 3.567-2.386 4.212-.027.007-.047.025-.072.034a.777.777 0 0 0-.151.072c-.035.024-.062.053-.092.083-.034.033-.068.065-.094.105-.029.042-.046.087-.064.134-.011.029-.032.053-.039.086-.003.01 0 .019-.002.029-.01.047-.007.095-.007.143 0 .048-.003.094.007.141.002.01-.001.019.002.029.002.013.017.02.021.033a.689.689 0 0 0 .226.346l.008.009a.694.694 0 0 0 .257.126c2.573.643 2.487 2.297 2.386 4.211-.062 1.217-.127 2.472.672 3.313.521.551 1.309.817 2.41.817a.707.707 0 0 0 0-1.413M23.989 11.858c-.003-.01.001-.02-.003-.029-.007-.031-.028-.055-.038-.084-.021-.048-.038-.096-.067-.138-.024-.037-.055-.065-.086-.096-.032-.033-.063-.066-.104-.092-.041-.028-.087-.045-.133-.065-.03-.011-.055-.031-.086-.039-2.572-.645-2.486-2.297-2.385-4.212.063-1.215.128-2.472-.671-3.314-.52-.548-1.311-.815-2.41-.815a.706.706 0 1 0 0 1.412c.684 0 1.15.127 1.384.376.382.402.333 1.309.284 2.267-.079 1.54-.189 3.72 1.789 4.971-1.978 1.252-1.868 3.43-1.789 4.971.049.96.098 1.865-.284 2.265-.234.25-.7.377-1.384.377a.706.706 0 1 0 0 1.413c1.099 0 1.89-.266 2.41-.817.799-.841.734-2.096.671-3.313-.101-1.914-.187-3.568 2.385-4.211a.691.691 0 0 0 .257-.124c.006-.004.007-.009.011-.012a.687.687 0 0 0 .225-.345c.004-.013.018-.019.021-.033.004-.01 0-.02.003-.029.01-.047.007-.094.007-.142 0-.048.003-.095-.007-.142"/><path d="M7.671 10.865a1.135 1.135 0 1 0 .002 2.266 1.135 1.135 0 0 0-.002-2.266M16.326 10.865a1.135 1.135 0 0 0 0 2.268c.625 0 1.136-.508 1.136-1.133 0-.626-.511-1.135-1.136-1.135M11.999 10.865a1.135 1.135 0 1 0 .002 2.266 1.135 1.135 0 0 0-.002-2.266"/></svg>