<svg xmlns="http://www.w3.org/2000/svg" viewBox="0 0 16 16"><path d="M8 1.188a6.789 6.789 0 0 0-6.781 6.781c0 3.739 3.042 6.781 6.781 6.781s6.781-3.042 6.781-6.781A6.789 6.789 0 0 0 8 1.188zm-2.022 9.053a.498.498 0 0 1-.707.027l-2.161-2a.503.503 0 0 1 .013-.746l2.161-1.865a.501.501 0 0 1 .654.758L4.2 7.914l1.751 1.62a.5.5 0 0 1 .027.707zm3.325-4.923l-1.646 5.584a.499.499 0 0 1-.621.337.5.5 0 0 1-.338-.621l1.646-5.584a.5.5 0 1 1 .959.284zm3.747 2.574a.5.5 0 0 1-.16.375l-2.161 2.001a.498.498 0 0 1-.707-.027.5.5 0 0 1 .027-.707l1.751-1.62-1.738-1.5a.5.5 0 0 1 .653-.757l2.161 1.865a.503.503 0 0 1 .174.37z" fill="none"/><path d="M8.965 4.697a.499.499 0 0 0-.621.338l-1.646 5.584a.5.5 0 0 0 .959.284l1.646-5.584a.501.501 0 0 0-.338-.622z"/><path d="M8 .188C3.709.188.219 3.678.219 7.969c0 4.291 3.49 7.781 7.781 7.781s7.781-3.49 7.781-7.781c0-4.291-3.49-7.781-7.781-7.781zM8 14.75a6.789 6.789 0 0 1-6.781-6.781C1.219 4.23 4.261 1.188 8 1.188s6.781 3.042 6.781 6.781A6.789 6.789 0 0 1 8 14.75z"/><path d="M4.2 7.914l1.738-1.5a.5.5 0 1 0-.653-.756L3.124 7.522a.503.503 0 0 0-.014.746l2.161 2.001a.498.498 0 0 0 .707-.027.5.5 0 0 0-.027-.707L4.2 7.914zm5.81-2.205a.501.501 0 0 0 .052.706l1.738 1.5-1.751 1.62a.5.5 0 1 0 .68.734l2.161-2.001a.5.5 0 0 0-.013-.745l-2.161-1.865a.5.5 0 0 0-.706.051z"/></svg>