<svg xmlns="http://www.w3.org/2000/svg" viewBox="0 0 24 24"><path d="M6.442 21.719c0 .234.191.425.426.425H17.06c.235 0 .426-.19.426-.425V17.87H6.442v3.849zm5.522-2.464a.77.77 0 1 1 0 1.539.77.77 0 0 1 0-1.539zm5.097-17.4H6.868a.426.426 0 0 0-.426.426v14.118h11.044V2.281a.425.425 0 0 0-.425-.426z" fill="none"/><path d="M17.061.386H6.868c-1.045 0-1.896.85-1.896 1.896V17.13l-.001.005.001.005v4.579c0 1.045.85 1.896 1.896 1.896H17.06a1.899 1.899 0 0 0 1.896-1.896V2.281A1.896 1.896 0 0 0 17.061.386zm.426 21.333a.426.426 0 0 1-.426.425H6.868a.425.425 0 0 1-.426-.425V17.87h11.044v3.849zm0-5.32H6.442V2.281c0-.235.191-.426.426-.426H17.06c.235 0 .426.191.426.426v14.118z"/><circle cx="11.964" cy="20.024" r=".769"/></svg>