<svg xmlns="http://www.w3.org/2000/svg" viewBox="0 0 16 16"><circle cx="14.273" cy="1.511" r=".357" fill="none"/><circle cx="12.044" cy="5.454" r=".357" fill="none"/><circle cx="6.642" cy="8.62" r=".783" fill="none"/><circle cx="9.644" cy="3.396" r=".357" fill="none"/><path d="M8.425 8.62c0 .983-.8 1.783-1.783 1.783s-1.784-.8-1.784-1.783.8-1.784 1.784-1.784c.143 0 .28.021.413.053l.868-1.465a4.052 4.052 0 0 0-2.435-.823c-2.255 0-4.09 1.834-4.09 4.09s1.835 4.09 4.09 4.09 4.09-1.835 4.09-4.09c0-.969-.353-1.848-.918-2.549l-.736 1.244c.309.32.501.755.501 1.234z" fill="none"/><path d="M14.273.153c-.749 0-1.357.609-1.357 1.357 0 .322.117.613.305.846l-.994 1.758c-.06-.008-.12-.018-.183-.018-.228 0-.439.062-.628.161l-.494-.424c.047-.138.079-.284.079-.438a1.358 1.358 0 0 0-2.714 0c0 .332.125.633.324.869l-.174.295a5.048 5.048 0 0 0-2.949-.957 5.095 5.095 0 0 0-5.09 5.09 5.096 5.096 0 0 0 5.09 5.09c1.223 0 2.332-.451 3.21-1.173l3.07 3.07a.498.498 0 0 0 .708 0 .5.5 0 0 0 0-.707l-3.07-3.07c.722-.879 1.173-1.987 1.173-3.21 0-1.339-.53-2.55-1.379-3.459l.293-.495c.05.006.099.015.151.015.227 0 .439-.062.627-.161l.495.424a1.348 1.348 0 0 0-.079.437 1.358 1.358 0 0 0 2.714 0 1.34 1.34 0 0 0-.305-.846l.994-1.758c.06.008.12.018.183.018.748 0 1.357-.609 1.357-1.357S15.021.153 14.273.153zM9.644 3.039a.357.357 0 1 1 0 .714.357.357 0 0 1 0-.714zm-.065 5.653c0 2.255-1.835 4.09-4.09 4.09s-4.09-1.835-4.09-4.09 1.835-4.09 4.09-4.09a4.05 4.05 0 0 1 2.435.823L7.055 6.89a1.757 1.757 0 0 0-.413-.053c-.983 0-1.784.8-1.784 1.784s.8 1.783 1.784 1.783 1.783-.8 1.783-1.783c0-.48-.192-.914-.501-1.235l.737-1.243c.565.701.918 1.58.918 2.549zM7.425 8.62a.784.784 0 1 1-1.568-.002.784.784 0 0 1 1.568.002zm4.619-2.809a.357.357 0 1 1 0-.714.357.357 0 0 1 0 .714zm2.229-3.943a.357.357 0 1 1 0-.714.357.357 0 0 1 0 .714z"/></svg>