<svg xmlns="http://www.w3.org/2000/svg" viewBox="0 0 64 64"><path d="M63.732 32.428v-.002a1 1 0 0 0-.294-.706L52.323 20.604a.999.999 0 1 0-1.414 1.414l9.409 9.41H21.046a1 1 0 1 0 0 2h39.273l-9.41 9.41a.999.999 0 1 0 1.414 1.414l11.116-11.116c.006-.006.007-.014.013-.019a1 1 0 0 0 .28-.689z"/><path d="M41.261 46.756a22.086 22.086 0 0 1-16.832 7.775c-12.188 0-22.104-9.915-22.104-22.103 0-12.188 9.916-22.103 22.104-22.103a22.125 22.125 0 0 1 16.865 7.817.998.998 0 0 0 1.41.117.999.999 0 0 0 .116-1.409 24.311 24.311 0 0 0-2.989-2.962A24.134 24.134 0 0 0 24.43 8.326C11.139 8.326.326 19.138.326 32.429S11.138 56.532 24.43 56.532a24.08 24.08 0 0 0 18.354-8.479.999.999 0 0 0-.112-1.409.998.998 0 0 0-1.411.112z"/></svg>