<svg xmlns="http://www.w3.org/2000/svg" viewBox="0 0 24 24"><path d="M22.196 6.346h-1.929V4.883c0-.859-.747-1.558-1.665-1.558H7.295v-.588c0-.714-.581-1.296-1.295-1.296H1.436C.722 1.441.14 2.023.14 2.737v17.467c0 .604.248 1.178.698 1.615a2.68 2.68 0 0 0 1.87.741l.064-.001h18.521c1.416 0 2.567-1.057 2.567-2.354V7.903c0-.859-.746-1.557-1.664-1.557zM3.775 7.903v12.235c0 .49-.458.901-1.022.921H2.68a1.17 1.17 0 0 1-.796-.313.756.756 0 0 1-.244-.541V2.941h4.155v1.134c0 .414.336.75.75.75h12.058c.103 0 .159.05.165.058v1.463H5.439c-.918 0-1.664.698-1.664 1.557zM22.36 20.204c0 .471-.479.854-1.067.854H5.079c.126-.285.196-.597.196-.921L5.273 7.913c.008-.017.064-.067.167-.067h16.756c.102 0 .159.05.165.057v12.301z"/></svg>