<svg xmlns="http://www.w3.org/2000/svg" viewBox="0 0 64 64"><path d="M52.162 19.453a10.562 10.562 0 0 0 4.218-8.432C56.38 5.205 51.648.473 45.83.473c-5.636 0-10.241 4.447-10.522 10.014a10.512 10.512 0 0 0-3.253-.519 10.51 10.51 0 0 0-3.252.518C28.523 4.919 23.917.473 18.28.473c-5.816 0-10.548 4.732-10.548 10.548 0 3.355 1.601 6.465 4.217 8.432C5.123 22.038.529 28.564.529 36.042v11.252a1 1 0 1 0 2 0V36.042a15.69 15.69 0 0 1 12.106-15.325 1 1 0 0 0 .177-1.886 8.562 8.562 0 0 1-5.08-7.81c0-4.713 3.835-8.548 8.548-8.548 4.715 0 8.551 3.834 8.551 8.548 0 .109.03.209.062.307-3.21 1.811-5.385 5.248-5.385 9.188 0 3.355 1.601 6.465 4.217 8.433-6.826 2.585-11.421 9.112-11.421 16.589v16.989a1 1 0 1 0 2 0V45.538a15.69 15.69 0 0 1 12.107-15.325 1 1 0 0 0 .177-1.886 8.562 8.562 0 0 1-5.08-7.811c0-4.713 3.835-8.548 8.548-8.548 4.715 0 8.551 3.834 8.551 8.548a8.564 8.564 0 0 1-5.081 7.811 1 1 0 0 0 .177 1.887A15.689 15.689 0 0 1 47.81 45.539v16.989a1 1 0 1 0 2 0v-16.99c0-7.478-4.595-14.004-11.422-16.589a10.562 10.562 0 0 0 4.219-8.433c0-3.94-2.177-7.378-5.387-9.188a.98.98 0 0 0 .062-.307c0-4.713 3.835-8.548 8.549-8.548 4.715 0 8.55 3.834 8.55 8.548a8.562 8.562 0 0 1-5.081 7.81 1 1 0 0 0 .177 1.887 15.69 15.69 0 0 1 12.108 15.325v11.252a1 1 0 1 0 2 0V36.042c-.001-7.478-4.596-14.004-11.423-16.589z"/></svg>