<svg xmlns="http://www.w3.org/2000/svg" viewBox="0 0 64 64"><path d="M27.2 51c7.5 0 13.6-6 13.6-13.4s-6.1-13.4-13.6-13.4-13.6 6-13.6 13.4S19.7 51 27.2 51zm0-24.8c6.4 0 11.6 5.1 11.6 11.4 0 6.3-5.2 11.4-11.6 11.4-6.4 0-11.6-5.1-11.6-11.4 0-6.3 5.2-11.4 11.6-11.4z"/><path d="M62.6 10.1L53.1 1c-.4-.4-1-.4-1.4 0l-9.4 9.1c-.4.4-.4 1 0 1.4.4.4 1 .4 1.4 0l7.6-7.4v33c0 13.3-10.8 24.1-24.1 24.1S3.1 50.4 3.1 37.1c0-7.1 3.1-13.8 8.6-18.4.4-.4.5-1 .1-1.4-.4-.4-1-.5-1.4-.1-5.9 5-9.3 12.3-9.3 20 0 14.4 11.7 26.1 26.1 26.1 14.4 0 26.1-11.7 26.1-26.1V4l7.8 7.6c.2.2.4.3.7.3.3 0 .5-.1.7-.3.5-.5.5-1.1.1-1.5z"/></svg>