<svg xmlns="http://www.w3.org/2000/svg" viewBox="0 0 24 24"><path d="M12.052 2.259c-5.498 0-9.971 4.473-9.971 9.971s4.473 9.97 9.971 9.97 9.971-4.473 9.971-9.97c0-5.498-4.473-9.971-9.971-9.971zM9.085 15.585a.749.749 0 0 1-1.059.041L4.844 12.68a.752.752 0 0 1 .019-1.118l3.182-2.746a.751.751 0 0 1 .98 1.136l-2.546 2.197 2.566 2.375a.75.75 0 0 1 .04 1.061zm4.898-7.254l-2.424 8.222a.75.75 0 1 1-1.438-.424l2.424-8.222a.749.749 0 1 1 1.438.424zm5.518 3.786a.752.752 0 0 1-.241.563l-3.182 2.946a.749.749 0 0 1-1.059-.041.752.752 0 0 1 .041-1.061l2.566-2.375-2.546-2.197a.75.75 0 1 1 .98-1.136l3.182 2.746a.75.75 0 0 1 .259.555z" fill="none"/><path d="M13.476 7.4a.749.749 0 0 0-.931.507l-2.424 8.222a.751.751 0 0 0 .719.962.75.75 0 0 0 .719-.538l2.424-8.222a.748.748 0 0 0-.507-.931z"/><path d="M12.052.759C5.727.759.581 5.905.581 12.23S5.727 23.7 12.052 23.7s11.471-5.146 11.471-11.47c0-6.325-5.146-11.471-11.471-11.471zm0 21.441c-5.498 0-9.971-4.473-9.971-9.97 0-5.498 4.473-9.971 9.971-9.971s9.971 4.473 9.971 9.971-4.473 9.97-9.971 9.97z"/><path d="M6.479 12.149l2.546-2.197a.75.75 0 1 0-.98-1.136l-3.182 2.746a.75.75 0 0 0-.019 1.118l3.182 2.946a.749.749 0 0 0 1.059-.041.752.752 0 0 0-.041-1.061l-2.565-2.375zm8.522-3.254a.75.75 0 0 0 .078 1.058l2.546 2.197-2.566 2.375a.752.752 0 0 0 .509 1.301.747.747 0 0 0 .509-.199l3.182-2.946a.752.752 0 0 0-.019-1.118l-3.182-2.746a.75.75 0 0 0-1.057.078z"/></svg>