<svg xmlns="http://www.w3.org/2000/svg" viewBox="0 0 16 16"><path d="M9.86 5.398V3.096a1.939 1.939 0 1 0-3.879 0v2.302a5.37 5.37 0 0 1 1.94-.366 5.36 5.36 0 0 1 1.939.366zm-1.939.634a4.411 4.411 0 0 0-4.406 4.406 4.41 4.41 0 0 0 4.406 4.405 4.41 4.41 0 0 0 4.405-4.405 4.41 4.41 0 0 0-4.405-4.406zm.411 4.737v1.8a.395.395 0 0 1-.79 0v-1.8a1.044 1.044 0 1 1 .79 0z" fill="none"/><path d="M10.86 5.907V3.096A2.945 2.945 0 0 0 7.921.156a2.945 2.945 0 0 0-2.94 2.94v2.812a5.403 5.403 0 0 0-2.466 4.531 5.412 5.412 0 0 0 5.406 5.405 5.412 5.412 0 0 0 5.405-5.405 5.402 5.402 0 0 0-2.466-4.532zM5.981 3.096a1.939 1.939 0 0 1 3.879 0v2.302a5.36 5.36 0 0 0-1.939-.366 5.37 5.37 0 0 0-1.94.366V3.096zm1.94 11.748a4.41 4.41 0 0 1-4.406-4.405 4.411 4.411 0 0 1 4.406-4.406 4.41 4.41 0 0 1 4.405 4.406 4.41 4.41 0 0 1-4.405 4.405z"/><path d="M7.937 8.758a1.045 1.045 0 0 0-.395 2.012v1.8a.395.395 0 0 0 .79 0v-1.8a1.044 1.044 0 0 0-.395-2.012z"/></svg>