<svg xmlns="http://www.w3.org/2000/svg" viewBox="0 0 16 16"><path d="M4.268 14.565a.29.29 0 0 0 .289.289h6.887a.29.29 0 0 0 .289-.289v-2.012H4.268v2.012zm7.175-13.421H4.557a.289.289 0 0 0-.289.289v10.13h7.465V1.433a.29.29 0 0 0-.29-.289z" fill="none"/><path d="M11.443.154H4.557a1.28 1.28 0 0 0-1.279 1.279v13.131a1.28 1.28 0 0 0 1.279 1.279h6.887a1.28 1.28 0 0 0 1.279-1.279V1.433c0-.705-.574-1.279-1.28-1.279zm.289 14.411a.29.29 0 0 1-.289.289H4.557a.29.29 0 0 1-.289-.289v-2.012h7.465v2.012zm0-3.002H4.268V1.433c0-.16.129-.289.289-.289h6.887c.16 0 .289.129.289.289v10.13z"/></svg>