<svg xmlns="http://www.w3.org/2000/svg" viewBox="0 0 24 24"><path d="M16.171.604A1.5 1.5 0 0 0 15.11.165H3.427a1.5 1.5 0 0 0-1.5 1.5v20.671a1.5 1.5 0 0 0 1.5 1.5h17.076a1.5 1.5 0 0 0 1.5-1.5V7.057c0-.398-.158-.779-.439-1.061L16.171.604zm3.582 5.703H15.86V2.415l3.893 3.892zM3.427 22.335V1.665H14.36v5.392c0 .414.336.75.75.75h5.392v14.528H3.427z"/><path d="M17.593 17.158H6.646a.75.75 0 0 0 0 1.5h10.946a.75.75 0 0 0 .001-1.5zm.006-5.418H6.652a.75.75 0 0 0 0 1.5h10.946a.75.75 0 0 0 .001-1.5z"/></svg>