<svg xmlns="http://www.w3.org/2000/svg" viewBox="0 0 24 24"><path d="M13.145.619a1.67 1.67 0 0 0-2.36 0L.584 10.82A1.658 1.658 0 0 0 .095 12v10.2c0 .92.749 1.669 1.669 1.669h20.402c.445 0 .863-.173 1.178-.487.316-.315.49-.734.49-1.181V12c0-.446-.173-.865-.489-1.18L13.145.619zm-3.534 21.75H6.295v-5.742c0-.591.481-1.072 1.072-1.072h1.172c.591 0 1.072.481 1.072 1.072v5.742zm12.723-.168c0 .058-.027.097-.049.119s-.061.049-.119.049H11.111v-5.742a2.575 2.575 0 0 0-2.572-2.572H7.367a2.575 2.575 0 0 0-2.572 2.572v5.742H1.764a.17.17 0 0 1-.169-.169V12c0-.044.018-.088.049-.12l10.201-10.2a.171.171 0 0 1 .119-.042c.046 0 .091.014.12.042l10.201 10.2a.171.171 0 0 1 .049.12v10.201z"/></svg>