<svg xmlns="http://www.w3.org/2000/svg" viewBox="0 0 24 24"><path d="M20.011 7.333a4.214 4.214 0 0 0 1.205-2.947A4.22 4.22 0 0 0 17 .171c-2.091 0-3.818 1.534-4.146 3.534a4.159 4.159 0 0 0-1.706-.001C10.819 1.705 9.092.17 7 .17a4.22 4.22 0 0 0-4.216 4.215c0 1.121.447 2.173 1.204 2.947A6.807 6.807 0 0 0 .17 13.467v4.084a.75.75 0 0 0 1.5 0v-4.084a5.31 5.31 0 0 1 4.096-5.185.75.75 0 0 0 .133-1.415 2.72 2.72 0 0 1-1.614-2.481A2.719 2.719 0 0 1 7 1.67a2.714 2.714 0 0 1 2.707 2.633 4.21 4.21 0 0 0-1.924 3.529 4.22 4.22 0 0 0 1.204 2.948 6.8 6.8 0 0 0-3.818 6.133v6.167a.75.75 0 0 0 1.5 0v-6.167a5.31 5.31 0 0 1 4.096-5.185.75.75 0 0 0 .133-1.415 2.722 2.722 0 0 1-1.614-2.481 2.718 2.718 0 0 1 2.715-2.715 2.718 2.718 0 0 1 2.716 2.715c0 1.07-.634 2.044-1.614 2.481a.75.75 0 0 0 .133 1.415 5.307 5.307 0 0 1 4.097 5.185v6.167a.75.75 0 0 0 1.5 0v-6.167a6.803 6.803 0 0 0-3.819-6.134 4.218 4.218 0 0 0 1.204-2.947 4.21 4.21 0 0 0-1.924-3.529 2.715 2.715 0 0 1 2.707-2.633 2.718 2.718 0 0 1 2.716 2.715c0 1.07-.634 2.044-1.615 2.481a.75.75 0 0 0 .133 1.415 5.309 5.309 0 0 1 4.097 5.185v4.084a.75.75 0 0 0 1.5 0v-4.084a6.803 6.803 0 0 0-3.819-6.133z"/></svg>