<svg xmlns="http://www.w3.org/2000/svg" viewBox="0 0 24 24"><path d="M12 5.602C5.541 5.602.453 11.931.24 12.201a.75.75 0 0 0 0 .931c.213.27 5.301 6.6 11.76 6.6s11.547-6.33 11.76-6.6a.75.75 0 0 0 0-.931c-.213-.27-5.301-6.599-11.76-6.599zm0 12.629c-4.774 0-8.911-4.149-10.183-5.565C3.089 11.251 7.226 7.102 12 7.102s8.911 4.149 10.183 5.564c-1.272 1.416-5.409 5.565-10.183 5.565z"/><path d="M12 8.419a4.252 4.252 0 0 0-4.248 4.247c0 2.342 1.905 4.248 4.248 4.248s4.248-1.905 4.248-4.248A4.253 4.253 0 0 0 12 8.419zm0 6.995a2.75 2.75 0 0 1-2.748-2.748c0-1.515 1.232-2.747 2.748-2.747s2.748 1.232 2.748 2.747A2.75 2.75 0 0 1 12 15.414z"/></svg>