<svg xmlns="http://www.w3.org/2000/svg" viewBox="0 0 16 16"><path d="M12.837 8.164a.5.5 0 0 0-.5.5v5.758a.426.426 0 0 1-.429.422H1.729a.426.426 0 0 1-.429-.422V3.972c0-.232.192-.422.429-.422h4.612a.5.5 0 0 0 0-1H1.729C.941 2.55.3 3.188.3 3.972v10.45c0 .784.641 1.422 1.429 1.422h10.18c.788 0 1.429-.638 1.429-1.422V8.664a.501.501 0 0 0-.501-.5z"/><path d="M15.662.457a.494.494 0 0 0-.095-.144C15.562.307 15.56.3 15.555.295A.496.496 0 0 0 15.2.147H9.48a.5.5 0 0 0 0 1h4.507L7.163 7.923a.499.499 0 0 0 .352.855.497.497 0 0 0 .352-.145L14.7 1.848v4.478a.5.5 0 0 0 1 0V.647c0-.011-.006-.021-.006-.032a.505.505 0 0 0-.032-.158z"/></svg>