<svg xmlns="http://www.w3.org/2000/svg" viewBox="0 0 16 16"><path d="M10.255 7.842a.5.5 0 0 0-.5.5v5.036H1.187V2.623h8.568v2.035a.5.5 0 0 0 1 0V2.123a.5.5 0 0 0-.5-.5H.687a.5.5 0 0 0-.5.5v11.755a.5.5 0 0 0 .5.5h9.568a.5.5 0 0 0 .5-.5V8.342c0-.277-.223-.5-.5-.5z"/><path d="M15.738 6.316c-.005-.009-.003-.021-.009-.029l-2.104-3.156a.5.5 0 1 0-.832.554l1.585 2.378H7.73a3.66 3.66 0 0 0-3.656 3.656.5.5 0 0 0 1 0A2.659 2.659 0 0 1 7.73 7.063h6.649l-1.585 2.378a.5.5 0 1 0 .833.554l2.104-3.156c.006-.009.004-.02.009-.029.043-.074.075-.156.075-.248s-.034-.172-.077-.246z"/></svg>