<svg xmlns="http://www.w3.org/2000/svg" viewBox="0 0 24 24"><path d="M13.295 24.086h-2.59a1.633 1.633 0 0 1-1.638-1.624v-1.343a.212.212 0 0 0-.135-.194l-.969-.399a.233.233 0 0 0-.254.048l-.967.952a1.652 1.652 0 0 1-2.309 0l-1.831-1.804a1.611 1.611 0 0 1-.482-1.152c0-.436.172-.845.483-1.152l.964-.949a.203.203 0 0 0 .047-.223l-.398-.957a.225.225 0 0 0-.21-.135H1.638A1.633 1.633 0 0 1 0 13.53v-2.889c0-.896.735-1.624 1.638-1.624h1.364a.226.226 0 0 0 .21-.133l.405-.955a.2.2 0 0 0-.047-.223l-.967-.954c-.311-.306-.483-.715-.483-1.151s.172-.845.483-1.152l1.831-1.804a1.652 1.652 0 0 1 2.309 0l.964.949a.238.238 0 0 0 .253.05l.971-.392a.213.213 0 0 0 .137-.195V1.71c0-.896.735-1.624 1.638-1.624h2.59c.903 0 1.638.728 1.638 1.624v1.343c0 .084.053.16.135.193l.969.4a.238.238 0 0 0 .254-.049l.966-.952a1.652 1.652 0 0 1 2.309 0l1.831 1.804c.312.307.483.716.483 1.152s-.172.845-.483 1.152l-.964.95a.203.203 0 0 0-.047.223l.398.957a.225.225 0 0 0 .21.135h1.367c.903 0 1.638.728 1.638 1.624v2.889c0 .896-.735 1.624-1.638 1.624h-1.363a.224.224 0 0 0-.21.134l-.404.954a.202.202 0 0 0 .046.224l.967.953c.312.307.483.716.483 1.152 0 .436-.172.845-.483 1.152l-1.831 1.804a1.652 1.652 0 0 1-2.309 0l-.964-.949a.236.236 0 0 0-.253-.049l-.971.39a.213.213 0 0 0-.137.195v1.347c0 .895-.735 1.624-1.638 1.624zm-5.424-4.991c.212 0 .427.041.631.126l.968.399c.613.252 1.009.84 1.009 1.499v1.343c0 .117.102.212.226.212h2.59c.125 0 .226-.096.226-.212v-1.347c0-.663.4-1.253 1.019-1.504l.971-.392a1.65 1.65 0 0 1 1.773.352l.964.949a.24.24 0 0 0 .327 0l1.831-1.804a.204.204 0 0 0 0-.292l-.967-.952a1.606 1.606 0 0 1-.355-1.783l.404-.953a1.635 1.635 0 0 1 1.51-.994h1.363c.125 0 .226-.095.226-.212v-2.889c0-.117-.102-.212-.226-.212h-1.367c-.666 0-1.26-.394-1.514-1.004l-.398-.957a1.61 1.61 0 0 1 .359-1.772l.964-.949a.204.204 0 0 0 0-.292l-1.831-1.804a.237.237 0 0 0-.327 0l-.966.952a1.648 1.648 0 0 1-1.783.348l-.969-.4a1.618 1.618 0 0 1-1.009-1.499V1.71c0-.117-.102-.212-.226-.212h-2.59c-.125 0-.226.095-.226.212v1.347c0 .663-.4 1.253-1.019 1.504l-.97.391A1.643 1.643 0 0 1 6.716 4.6l-.964-.949a.237.237 0 0 0-.327 0L3.594 5.455a.202.202 0 0 0 0 .292l.967.953c.477.469.616 1.169.355 1.783l-.405.953a1.634 1.634 0 0 1-1.509.993H1.638c-.125 0-.226.095-.226.212v2.889c0 .117.102.212.226.212h1.367c.666 0 1.26.394 1.514 1.004l.398.957a1.61 1.61 0 0 1-.359 1.772l-.964.949a.204.204 0 0 0 0 .292l1.831 1.804a.24.24 0 0 0 .327 0l.966-.952c.314-.309.73-.473 1.153-.473z"/><path d="M12 17.351c-2.942 0-5.335-2.362-5.335-5.265S9.058 6.821 12 6.821s5.335 2.362 5.335 5.265-2.393 5.265-5.335 5.265zm0-9.119c-2.163 0-3.923 1.728-3.923 3.853s1.76 3.853 3.923 3.853 3.923-1.728 3.923-3.853S14.163 8.232 12 8.232z"/></svg>