<svg xmlns="http://www.w3.org/2000/svg" viewBox="0 0 24 24"><path d="M19.786 1.218a4.064 4.064 0 0 0-5.727.379l-3.633 4.147a2.96 2.96 0 0 0 .276 4.17.75.75 0 1 0 .988-1.128 1.457 1.457 0 0 1-.136-2.054l3.633-4.147a2.56 2.56 0 0 1 3.61-.239l1.66 1.454a2.54 2.54 0 0 1 .863 1.756 2.54 2.54 0 0 1-.624 1.854l-3.633 4.147a1.457 1.457 0 0 1-2.054.136.75.75 0 1 0-.989 1.129c.56.49 1.254.73 1.945.73.823 0 1.642-.341 2.225-1.006l3.633-4.147c.712-.813 1.065-1.857.993-2.941s-.559-2.073-1.372-2.785l-1.658-1.455zM11.77 14.252a.751.751 0 0 0 .07 1.059c.292.256.467.61.493.998s-.101.763-.357 1.055l-3.633 4.147a2.537 2.537 0 0 1-1.756.863 2.547 2.547 0 0 1-1.854-.624l-1.659-1.453a2.562 2.562 0 0 1-.239-3.61l3.633-4.147a1.458 1.458 0 0 1 2.054-.136.75.75 0 1 0 .988-1.128 2.957 2.957 0 0 0-4.17.276l-3.633 4.147a4.065 4.065 0 0 0 .378 5.728l1.659 1.453a4.04 4.04 0 0 0 2.671 1.003c1.13 0 2.254-.468 3.056-1.383l3.633-4.147c.52-.594.777-1.354.725-2.143a2.935 2.935 0 0 0-1.001-2.027.75.75 0 0 0-1.058.069z"/><path d="M7.275 17.175a.75.75 0 0 0 1.058-.07l7.993-9.125a.75.75 0 1 0-1.128-.988l-7.993 9.125a.75.75 0 0 0 .07 1.058z"/></svg>