<svg xmlns="http://www.w3.org/2000/svg" viewBox="0 0 24 24"><path d="M12.006 15.835a.752.752 0 0 1-.568-.26l-4.796-5.561a.75.75 0 1 1 1.136-.979l4.205 4.875L22.523.66a.75.75 0 0 1 1.174.934L12.593 15.552a.751.751 0 0 1-.572.283h-.015z"/><path d="M21.178 23.891H2.846a2.425 2.425 0 0 1-2.422-2.422V2.403A2.314 2.314 0 0 1 2.735.092h11.901a.75.75 0 0 1 0 1.5H2.734a.812.812 0 0 0-.811.811v19.065c0 .509.414.922.922.922h18.332a.922.922 0 0 0 .922-.922V9.22a.75.75 0 0 1 1.5 0v12.249a2.423 2.423 0 0 1-2.421 2.422z"/></svg>