<svg xmlns="http://www.w3.org/2000/svg" viewBox="0 0 64 64"><path d="M57.577 3.735a6.386 6.386 0 0 0-3.96 11.396c-.016.023-.04.037-.054.062l-10.32 18.261c-.015.026-.014.054-.026.081a6.358 6.358 0 0 0-6.399 1.122c-.019-.019-.028-.045-.049-.063l-8.186-7.018c-.022-.019-.051-.025-.074-.042a6.35 6.35 0 0 0 .962-3.359 6.388 6.388 0 1 0-12.776 0 6.37 6.37 0 0 0 2.428 5.007c-.016.023-.04.038-.054.063L8.746 47.508c-.015.026-.014.054-.026.08a6.35 6.35 0 0 0-2.248-.414 6.386 6.386 0 0 0-6.388 6.388 6.385 6.385 0 0 0 6.388 6.388 6.387 6.387 0 0 0 6.388-6.388 6.372 6.372 0 0 0-2.424-5.004c.016-.023.036-.041.05-.066l10.32-18.261c.015-.026.014-.054.026-.081a6.357 6.357 0 0 0 6.396-1.121c.02.021.03.047.052.066l8.186 7.017c.022.019.048.025.071.042a6.35 6.35 0 0 0-.958 3.354 6.385 6.385 0 0 0 6.388 6.388 6.387 6.387 0 0 0 6.388-6.388 6.37 6.37 0 0 0-2.424-5.003c.016-.023.036-.041.05-.066l10.32-18.261c.015-.026.014-.054.026-.08.7.263 1.455.414 2.248.414a6.387 6.387 0 0 0 6.388-6.388 6.385 6.385 0 0 0-6.386-6.389zM6.472 57.95a4.392 4.392 0 0 1-4.388-4.388 4.393 4.393 0 0 1 4.388-4.388 4.393 4.393 0 0 1 4.388 4.388 4.393 4.393 0 0 1-4.388 4.388zm16.609-29.385a4.392 4.392 0 0 1-4.388-4.388 4.392 4.392 0 0 1 4.388-4.388 4.393 4.393 0 0 1 4.388 4.388 4.393 4.393 0 0 1-4.388 4.388zm17.887 15.331a4.393 4.393 0 0 1-4.388-4.388 4.392 4.392 0 0 1 4.388-4.388 4.393 4.393 0 0 1 4.388 4.388 4.393 4.393 0 0 1-4.388 4.388zm16.609-29.385a4.392 4.392 0 0 1-4.388-4.388 4.392 4.392 0 0 1 4.388-4.388 4.393 4.393 0 0 1 4.388 4.388 4.393 4.393 0 0 1-4.388 4.388z"/></svg>