<svg xmlns="http://www.w3.org/2000/svg" viewBox="0 0 64 64"><path d="M58.068 44.225l-1.482.003V30.449c0-9.827-5.98-18.769-14.987-22.584C40.436 3.678 36.566.636 32.146.59a1.737 1.737 0 0 0-.102-.003c-4.462 0-8.383 3.057-9.555 7.276C13.482 11.678 7.502 20.62 7.502 30.447v13.778a438.86 438.86 0 0 0-1.482-.003 5.834 5.834 0 0 0-5.827 5.827c0 3.038 2.396 5.16 5.827 5.16h17.141c.513 4.45 4.298 7.918 8.883 7.918 4.584 0 8.369-3.467 8.883-7.916h17.141c3.431 0 5.827-2.122 5.827-5.16a5.833 5.833 0 0 0-5.827-5.826zM32.044 61.187c-3.513 0-6.421-2.601-6.922-5.977h6.83l.092.002h6.921c-.501 3.375-3.409 5.975-6.921 5.975zm26.024-7.917H40.317c-.095-.031-.191-.06-.296-.06s-.201.029-.296.06h-7.68v-.002h-7.691c-.092-.029-.184-.058-.286-.058s-.194.029-.286.058H6.02c-2.137 0-3.885-1.081-3.885-3.218s1.748-3.885 3.885-3.885c1.045 0 3.399.009 3.399.009.026-.491.026-.491.026-1.103V30.447c0-9.707 6.129-17.963 14.722-21.161.587-3.825 3.89-6.756 7.878-6.756v.002c3.988 0 7.291 2.931 7.878 6.756 8.593 3.199 14.722 11.454 14.722 21.161v14.623c0 .612 0 .612.026 1.103 0 0 2.353-.009 3.399-.009 2.137 0 3.885 1.748 3.885 3.885s-1.75 3.219-3.887 3.219z"/></svg>